SplineFontDB: 3.2
FontName: Pointless-Bold
FullName: Pointless Bold
FamilyName: Pointless
Weight: Bold
Copyright: Based on Pointfree by wrp, whoever he/she/they is/are, I thank you.\nTadhg O'Brien 2020 released under the terms of the Unlicense.
Version: 1.0
ItalicAngle: 0
UnderlinePosition: -143
UnderlineWidth: 20
Ascent: 656
Descent: 164
InvalidEm: 0
sfntRevision: 0x00010000
LayerCount: 2
Layer: 0 1 "Back" 1
Layer: 1 1 "Fore" 0
XUID: [1021 796 -163880829 2966828]
StyleMap: 0x0040
FSType: 0
OS2Version: 3
OS2_WeightWidthSlopeOnly: 0
OS2_UseTypoMetrics: 0
CreationTime: 1316413706
ModificationTime: 1606911280
PfmFamily: 17
TTFWeight: 400
TTFWidth: 5
LineGap: 0
VLineGap: 0
Panose: 2 0 5 3 0 0 0 0 0 0
OS2TypoAscent: 891
OS2TypoAOffset: 0
OS2TypoDescent: -256
OS2TypoDOffset: 0
OS2TypoLinegap: 0
OS2WinAscent: 891
OS2WinAOffset: 0
OS2WinDescent: 256
OS2WinDOffset: 0
HheadAscent: 891
HheadAOffset: 0
HheadDescent: -256
HheadDOffset: 0
OS2SubXSize: 585
OS2SubYSize: 543
OS2SubXOff: 0
OS2SubYOff: 120
OS2SupXSize: 585
OS2SupYSize: 543
OS2SupXOff: 0
OS2SupYOff: 379
OS2StrikeYSize: 42
OS2StrikeYPos: 209
OS2CapHeight: 613
OS2XHeight: 454
OS2Vendor: '    '
OS2CodePages: 00000001.00000000
OS2UnicodeRanges: 00000001.00000000.00000000.00000000
MarkAttachClasses: 1
DEI: 91125
ShortTable: maxp 16
  1
  0
  98
  112
  5
  0
  0
  0
  0
  0
  0
  0
  0
  0
  0
  0
EndShort
LangName: 1033 "" "" "" "" "" "1.0"
Encoding: UnicodeBmp
UnicodeInterp: none
NameList: AGL For New Fonts
DisplaySize: -48
AntiAlias: 1
FitToEm: 0
WinInfo: 22 22 6
BeginPrivate: 0
EndPrivate
TeXData: 1 0 0 639376 319687 213126 549863 1048576 213126 783286 444596 497025 792723 393216 433062 380633 303038 157286 324010 404750 52429 2506097 1059062 262144
BeginChars: 65539 94

StartChar: exclam
Encoding: 33 33 0
Width: 500
Flags: W
LayerCount: 2
Fore
SplineSet
283.245129978 625.13850959 m 0,0,1
 310.597002656 610.671355785 310.597002656 610.671355785 315 584.253371719 c 1,2,-1
 315 237.310327357 l 1,3,4
 312.30719544 207.689477193 312.30719544 207.689477193 291.109996572 192.915671921 c 0,5,6
 268.953181946 177.473043546 268.953181946 177.473043546 246.574394464 177.470588235 c 0,7,8
 226.389630171 177.470588235 226.389630171 177.470588235 212.745109974 186.895992886 c 0,9,10
 184.349816159 206.510983412 184.349816159 206.510983412 183 235 c 1,11,-1
 183 581.497386 l 1,12,13
 188.605228242 609.52352721 188.605228242 609.52352721 211.85054369 623.19724218 c 0,14,15
 233.45605933 634 233.45605933 634 250.676632176 634 c 128,-1,16
 267.897205022 634 267.897205022 634 283.245129978 625.13850959 c 0,0,1
250 140 m 0,17,18
 260.001127656 140 260.001127656 140 269.623425051 137.296858983 c 0,19,20
 288.523155289 131.98745792 288.523155289 131.98745792 302.790444941 118.764116291 c 0,21,22
 330 93.5455042852 330 93.5455042852 330 60 c 128,-1,23
 330 26.3354169664 330 26.3354169664 304.54329372 3.36229178727 c 1,24,25
 263.265843944 -19.1721194321 263.265843944 -19.1721194321 251.780071522 -19.1721194321 c 0,26,27
 250.776260288 -19.1721194321 250.776260288 -19.1721194321 250 -19 c 0,28,29
 220.130475058 -19 220.130475058 -19 195.565237529 3.72284471411 c 128,-1,30
 171 26.4456894282 171 26.4456894282 171 60 c 128,-1,31
 171 93.4356663223 171 93.4356663223 195.672886548 116.874908543 c 0,32,33
 220.015088082 140 220.015088082 140 250 140 c 0,17,18
EndSplineSet
EndChar

StartChar: quotedbl
Encoding: 34 34 1
Width: 500
Flags: W
LayerCount: 2
Fore
SplineSet
385.349009767 620.077134612 m 0,0,1
 409.281088074 606.738704904 409.281088074 606.738704904 415 579.573873256 c 1,2,-1
 415 434.310327357 l 1,3,4
 412.312137246 404.743837068 412.312137246 404.743837068 389.636144829 388.737254185 c 0,5,6
 368.758368067 374 368.758368067 374 349 374 c 0,7,8
 327.470847528 374.631473835 327.470847528 374.631473835 311.046246572 387.946355888 c 0,9,10
 284.420398264 406.009906976 284.420398264 406.009906976 283 431.577075725 c 1,11,-1
 283 576.497386 l 1,12,13
 288.58202093 604.40749065 288.58202093 604.40749065 310.741516559 617.837488001 c 0,14,15
 330.809661357 630 330.809661357 630 349.375208249 630 c 128,-1,16
 367.94075514 630 367.94075514 630 385.349009767 620.077134612 c 0,0,1
214 581.299004929 m 1,17,-1
 214 435.310327357 l 1,18,19
 211.312137246 405.743837068 211.312137246 405.743837068 188.636144829 389.737254185 c 0,20,21
 167.758368067 375 167.758368067 375 148 375 c 2,22,-1
 146.869609968 375 l 1,23,24
 121.95161654 378.737699014 121.95161654 378.737699014 108.697076677 390.208596023 c 0,25,26
 83.4306039946 408.232065201 83.4306039946 408.232065201 82 432.55233311 c 1,27,-1
 82 577.497386 l 1,28,29
 87.58202093 605.40749065 87.58202093 605.40749065 108.577795767 618.132202673 c 128,-1,30
 129.573570603 630.856914695 129.573570603 630.856914695 147.5625214 630.998280598 c 0,31,32
 149.772112114 631.111110818 149.772112114 631.111110818 151.901234568 631.111111111 c 0,33,34
 172.299549247 631.111111111 172.299549247 631.111111111 185.272721079 620.788109357 c 0,35,36
 206.932622965 603.914615227 206.932622965 603.914615227 213.320362575 583.473844689 c 2,37,-1
 214 581.299004929 l 1,17,-1
EndSplineSet
EndChar

StartChar: numbersign
Encoding: 35 35 2
Width: 500
Flags: W
LayerCount: 2
Fore
SplineSet
357.154055154 627.072912271 m 0,0,1
 362.625092613 628.347826087 362.625092613 628.347826087 367.133902687 628.347826087 c 0,2,3
 391.711293276 628.347826087 391.711293276 628.347826087 409.263390054 608.402261566 c 0,4,5
 423.083333333 592.697780567 423.083333333 592.697780567 423.083333333 567.600694444 c 1,6,-1
 422.830253663 561.738078362 l 1,7,8
 417.860922896 528.940495299 417.860922896 528.940495299 414.399605462 500.816815518 c 128,-1,9
 410.938288029 472.693135736 410.938288029 472.693135736 407.44945913 449 c 1,10,-1
 441.321880913 449 l 1,11,12
 467.103965945 440.858288937 467.103965945 440.858288937 478.815140867 425.243389041 c 128,-1,13
 490.526315789 409.628489145 490.526315789 409.628489145 490.526315789 392.814404432 c 0,14,15
 490.526315789 373.99970089 490.526315789 373.99970089 476.767645011 358.177229495 c 128,-1,16
 463.008974233 342.354758101 463.008974233 342.354758101 437.573873256 337 c 1,17,-1
 391.893595112 337 l 1,18,19
 388.172963019 311.822673605 388.172963019 311.822673605 385.510050275 288.235687642 c 128,-1,20
 382.84713753 264.648701678 382.84713753 264.648701678 379.498256625 242 c 1,21,-1
 414.321880913 242 l 1,22,23
 440.103965945 233.858288937 440.103965945 233.858288937 451.815140867 218.243389041 c 128,-1,24
 463.526315789 202.628489145 463.526315789 202.628489145 463.526315789 185.814404432 c 0,25,26
 463.526315789 166.99970089 463.526315789 166.99970089 449.767645011 151.177229495 c 128,-1,27
 436.008974233 135.354758101 436.008974233 135.354758101 410.573873256 130 c 1,28,-1
 364.145726511 130 l 1,29,-1
 345.634259182 -9.76157833777 l 1,30,31
 336.157285457 -34.1309393434 336.157285457 -34.1309393434 318.845486814 -44.7843538932 c 0,32,33
 304.297693469 -53.7368421053 304.297693469 -53.7368421053 289.459833795 -53.7368421053 c 0,34,35
 268.527798355 -53.7368421053 268.527798355 -53.7368421053 253.06673955 -38.2757833004 c 128,-1,36
 237.605680746 -22.8147244956 237.605680746 -22.8147244956 234.892034564 4.32173731851 c 1,37,38
 240.134352574 41.0179633894 240.134352574 41.0179633894 244.084559733 72.1806227482 c 128,-1,39
 248.034766891 103.343282107 248.034766891 103.343282107 251.737227209 130 c 1,40,-1
 197.140458116 130 l 1,41,42
 192.913013498 98.4830776698 192.913013498 98.4830776698 187.884988225 64.201052723 c 128,-1,43
 182.856790335 29.9178508376 182.856790335 29.9178508376 177.636607282 -9.75554036619 c 1,44,45
 166.12545272 -39.3556520979 166.12545272 -39.3556520979 141.474245217 -49.6088503072 c 0,46,47
 131.549538769 -53.7368421053 131.549538769 -53.7368421053 121.459833795 -53.7368421053 c 0,48,49
 100.527798355 -53.7368421053 100.527798355 -53.7368421053 83.895478125 -37.104521875 c 0,50,51
 69.6056807456 -22.8147244956 69.6056807456 -22.8147244956 66.8920345642 4.32173731851 c 1,52,53
 72.1343525743 41.0179633895 72.1343525743 41.0179633895 76.0845597326 72.1806227482 c 128,-1,54
 80.0347668909 103.343282107 80.0347668909 103.343282107 83.7372272091 130 c 1,55,-1
 65.9706856877 130 l 1,56,57
 25.4999983907 135.518730086 25.4999983907 135.518730086 12.9797623451 167.609787998 c 0,58,59
 9.47727272727 176.587142479 9.47727272727 176.587142479 9.47727272727 186.185950413 c 0,60,61
 9.47727272727 207.477423419 9.47727272727 207.477423419 25.40238852 224.094935551 c 128,-1,62
 41.3275043126 240.712447682 41.3275043126 240.712447682 69.3087063512 241.984320502 c 2,63,-1
 69.6536553085 242 l 1,64,-1
 99.1609590547 242 l 1,65,66
 102.846547687 266.351876068 102.846547687 266.351876068 105.513155064 289.970715637 c 128,-1,67
 108.179762441 313.589555206 108.179762441 313.589555206 111.570831276 337 c 1,68,-1
 96.9706856877 337 l 1,69,70
 68.2428535243 340.917431659 68.2428535243 340.917431659 54.3600631258 357.444563085 c 128,-1,71
 40.4772727273 373.971694512 40.4772727273 373.971694512 40.4772727273 393.185950413 c 0,72,73
 40.4772727273 414.477423419 40.4772727273 414.477423419 56.40238852 431.094935551 c 128,-1,74
 72.3275043126 447.712447682 72.3275043126 447.712447682 100.308706351 448.984320502 c 2,75,-1
 100.653655308 449 l 1,76,-1
 126.974381353 449 l 1,77,78
 130.966512564 477.395098907 130.966512564 477.395098907 135.052541431 508.721358361 c 128,-1,79
 139.138374773 540.046118782 139.138374773 540.046118782 144.23748829 575.739913403 c 1,80,81
 152.045240476 610.094023018 152.045240476 610.094023018 178.675421673 622.470667796 c 0,82,83
 189.16934885 627.347826087 189.16934885 627.347826087 200.145557656 627.347826087 c 0,84,85
 223.711293276 627.347826087 223.711293276 627.347826087 241.263390054 607.402261566 c 0,86,87
 255.083333333 591.697780567 255.083333333 591.697780567 255.083333333 566.600694444 c 0,88,89
 255.083333333 563.382656988 255.083333333 563.382656988 254.855531651 560.911787723 c 2,90,-1
 239.239933364 449 l 1,91,-1
 293.988929233 449 l 1,92,93
 312.151285067 576.136490841 312.151285067 576.136490841 312.677960551 578.565927157 c 128,-1,94
 313.204636034 580.995363474 313.204636034 580.995363474 314.257658331 584.417301974 c 128,-1,95
 315.310680628 587.839240474 315.310680628 587.839240474 316.644554468 591.144072349 c 128,-1,96
 317.978428309 594.448904224 317.978428309 594.448904224 319.547976843 597.474410847 c 128,-1,97
 321.117525377 600.499917469 321.117525377 600.499917469 323.003187403 603.347529099 c 128,-1,98
 324.888849428 606.195140729 324.888849428 606.195140729 327.023768916 608.725657433 c 0,99,100
 338.917475318 622.823248884 338.917475318 622.823248884 357.154055154 627.072912271 c 0,0,1
212.06125743 242 m 1,101,-1
 267.160959055 242 l 1,102,103
 270.846547687 266.351876068 270.846547687 266.351876068 273.512620595 289.965981769 c 128,-1,104
 276.178693503 313.58008747 276.178693503 313.58008747 279.033121583 337 c 1,105,-1
 224.217087441 337 l 1,106,-1
 212.06125743 242 l 1,101,-1
EndSplineSet
EndChar

StartChar: dollar
Encoding: 36 36 3
Width: 500
Flags: W
LayerCount: 2
Fore
SplineSet
329.816448211 498.819335938 m 1,0,1
 329.633192788 486.350585938 329.633192788 486.350585938 329.633192788 473.396484375 c 2,2,-1
 330.75017822 379.623046875 l 2,3,4
 330.75017822 361.959960938 330.75017822 361.959960938 330.419663976 344.994140625 c 1,5,6
 360.543364836 335.329101562 360.543364836 335.329101562 395.108828077 324.771484375 c 0,7,8
 429.0625 314.212890625 429.0625 314.212890625 457.103515625 294.454101562 c 128,-1,9
 485.14453125 274.6953125 485.14453125 274.6953125 503.572265625 246.6953125 c 128,-1,10
 522 218.6953125 522 218.6953125 522 179.78125 c 0,11,12
 522 135.455078125 522 135.455078125 503.749023438 104.524414062 c 0,13,14
 469.413085938 46.3349609375 469.413085938 46.3349609375 390.850321118 21.439453125 c 0,15,16
 360.350292159 12.52734375 360.350292159 12.52734375 330.191685504 6.912109375 c 1,17,-1
 330.191685504 -14.515625 l 2,18,19
 330.191685504 -30.982421875 330.191685504 -30.982421875 331.430841217 -50.2294921875 c 1,20,21
 320.630770164 -85.65625 320.630770164 -85.65625 288.463989505 -95.8544921875 c 0,22,23
 278.899801747 -99 278.899801747 -99 268.757486763 -99 c 0,24,25
 240.661594416 -99 240.661594416 -99 226.128784938 -83.5009765625 c 0,26,27
 206.20630259 -62.2529296875 206.20630259 -62.2529296875 206.20630259 -14.1357421875 c 0,28,29
 206.20630259 -0.58984375 206.20630259 -0.58984375 205.644537456 11.9697265625 c 1,30,31
 142.36687643 26.986328125 142.36687643 26.986328125 110.9375 47.76171875 c 0,32,33
 93.2236328125 59.66796875 93.2236328125 59.66796875 82.84375 70.0634765625 c 0,34,35
 65.75390625 87.1767578125 65.75390625 87.1767578125 51.181640625 104.473632812 c 1,36,37
 40.6103515625 126.319335938 40.6103515625 126.319335938 39.5 135.959960938 c 0,38,39
 39.2001953125 138.564453125 39.2001953125 138.564453125 39.2001953125 143.6640625 c 128,-1,40
 39.2001953125 148.763671875 39.2001953125 148.763671875 41.287109375 157.486328125 c 0,41,42
 49.408203125 191.420898438 49.408203125 191.420898438 83.845703125 191.420898438 c 0,43,44
 89.9814453125 191.420898438 89.9814453125 191.420898438 95.3916015625 189.682617188 c 128,-1,45
 100.80078125 187.943359375 100.80078125 187.943359375 109.453125 182.102539062 c 0,46,47
 123.669921875 172.505859375 123.669921875 172.505859375 131.717773438 164.744140625 c 0,48,49
 140.043459468 156.982421875 140.043459468 156.982421875 163.190364604 142.448242188 c 128,-1,50
 186.338360547 127.9140625 186.338360547 127.9140625 198.962259376 123.72265625 c 0,51,-1
 206.333926902 121.129882812 l 1,52,-1
 207.268747718 278.563476562 l 1,53,54
 188.981383692 285.999023438 188.981383692 285.999023438 160.253914622 297.514648438 c 0,55,56
 132.141601562 309.029296875 132.141601562 309.029296875 105.786132812 328.854492188 c 0,57,58
 78.9150390625 349.067382812 78.9150390625 349.067382812 59.5830078125 376.513671875 c 0,59,60
 39 405.736328125 39 405.736328125 39 442.971679688 c 0,61,62
 39 472.000976562 39 472.000976562 51.1591796875 499.184570312 c 0,63,64
 76.8349609375 556.583984375 76.8349609375 556.583984375 141.052455097 585.311523438 c 0,65,66
 170.992900535 597.375 170.992900535 597.375 207.323288022 602.926757812 c 1,67,-1
 207.323288022 623.306640625 l 2,68,69
 207.323288022 658.055664062 207.323288022 658.055664062 215.737766166 684.51953125 c 0,70,71
 221.844098633 703.724609375 221.844098633 703.724609375 239.146464763 712.793945312 c 0,72,73
 252.403031122 720 252.403031122 720 270.642399679 720 c 128,-1,74
 288.88067743 720 288.88067743 720 301.738008761 713.361328125 c 0,75,76
 318.780763043 704.876953125 318.780763043 704.876953125 325.029991107 686.76953125 c 0,77,78
 333.542641799 662.09765625 333.542641799 662.09765625 333.542641799 629.123046875 c 0,79,80
 333.542641799 628.439453125 333.542641799 628.439453125 332.616547432 600.478515625 c 1,81,82
 374.872193577 592.055664062 374.872193577 592.055664062 415.761059695 576.284179688 c 0,83,84
 441.833984375 565.416015625 441.833984375 565.416015625 479.8203125 536.313476562 c 0,85,86
 521.163085938 504.640625 521.163085938 504.640625 521.98046875 480.7890625 c 2,87,-1
 522.2421875 476.66015625 l 1,88,89
 522.2421875 455.51953125 522.2421875 455.51953125 497.895507812 441.903320312 c 0,90,91
 483.827148438 434.03515625 483.827148438 434.03515625 467.669921875 434.03515625 c 0,92,93
 459.532226562 434.03515625 459.532226562 434.03515625 454.384765625 436.241210938 c 128,-1,94
 449.237304688 438.447265625 449.237304688 438.447265625 442.340820312 442.21484375 c 0,95,96
 428.823242188 449.598632812 428.823242188 449.598632812 410.47065018 462.356445312 c 0,97,98
 391.534256534 475.115234375 391.534256534 475.115234375 370.146821614 484.53515625 c 128,-1,99
 348.759386693 493.955078125 348.759386693 493.955078125 329.816448211 498.819335938 c 1,0,1
374.526408047 222.756835938 m 128,-1,101
 356.51829038 231.969726562 356.51829038 231.969726562 330.191685504 240.802734375 c 1,102,-1
 330.191685504 100.10546875 l 1,103,104
 356.355760273 104.822265625 356.355760273 104.822265625 393.385354461 127.716796875 c 1,105,106
 417.841226901 148.259765625 417.841226901 148.259765625 419.033477952 163.557617188 c 0,107,108
 419.165465489 165.254882812 419.165465489 165.254882812 419.165465489 166.932617188 c 0,109,110
 419.165465489 181.3046875 419.165465489 181.3046875 409.306760087 195.1953125 c 0,111,100
 392.534525715 213.543945312 392.534525715 213.543945312 374.526408047 222.756835938 c 128,-1,101
166.807477584 415.323242188 m 0,112,113
 186.193283338 401.75390625 186.193283338 401.75390625 208.62243807 388.764648438 c 1,114,-1
 209.435088604 508.1015625 l 1,115,116
 198.124520302 506.107421875 198.124520302 506.107421875 191.718216161 504.1953125 c 128,-1,117
 185.31191202 502.283203125 185.31191202 502.283203125 175.807718597 497.177734375 c 128,-1,118
 166.303525173 492.073242188 166.303525173 492.073242188 162.857668748 490.013671875 c 128,-1,119
 159.411812324 487.955078125 159.411812324 487.955078125 156.479725566 485.979492188 c 128,-1,120
 153.546548002 484.004882812 153.546548002 484.004882812 151.075872218 482.11328125 c 128,-1,121
 148.604105628 480.221679688 148.604105628 480.221679688 146.564298248 478.395507812 c 0,122,123
 141.093905728 473.498046875 141.093905728 473.498046875 139.271168759 458.94921875 c 0,124,125
 142.408327061 432.401367188 142.408327061 432.401367188 166.807477584 415.323242188 c 0,112,113
EndSplineSet
EndChar

StartChar: percent
Encoding: 37 37 4
Width: 500
Flags: W
LayerCount: 2
Fore
SplineSet
76.5947265625 581.487304688 m 128,-1,1
 121.189453125 620 121.189453125 620 178.752906977 620 c 0,2,3
 237.441715684 620 237.441715684 620 285.728125284 580.889648438 c 128,-1,4
 334.014534884 541.779296875 334.014534884 541.779296875 334.014534884 486.138671875 c 0,5,6
 334.014534884 474.84765625 334.014534884 474.84765625 332.027194711 464.216796875 c 1,7,8
 419.327203795 572.427734375 419.327203795 572.427734375 426.165386821 581.881835938 c 1,9,-1
 425.537235704 578.008789062 l 1,10,-1
 441.462890625 563.696289062 l 1,11,-1
 451.00390625 567.228515625 l 1,12,-1
 430.000357694 587.98828125 l 1,13,14
 450.677734375 603.68359375 450.677734375 603.68359375 473 603.68359375 c 128,-1,15
 495.208984375 603.68359375 495.208984375 603.68359375 510.604492188 588.907226562 c 128,-1,16
 526 574.130859375 526 574.130859375 526 551.85546875 c 0,17,18
 526 542.4765625 526 542.4765625 523.578125 535.462890625 c 0,19,20
 519.8125 524.55859375 519.8125 524.55859375 518.262695312 522.451171875 c 0,21,22
 458.443359375 441.115234375 458.443359375 441.115234375 443.461914062 418.827148438 c 0,23,24
 416.608825684 381.65625 416.608825684 381.65625 355.993325877 306.096679688 c 2,25,-1
 300.087876431 235.693359375 l 1,26,27
 341.664982286 262 341.664982286 262 389.591829522 262 c 0,28,29
 446.919921875 262 446.919921875 262 490.459960938 223.43359375 c 128,-1,30
 534 184.868164062 534 184.868164062 534 130.001953125 c 128,-1,31
 534 75.1357421875 534 75.1357421875 490.489257812 36.0673828125 c 128,-1,32
 446.979492188 -3 446.979492188 -3 389.465116279 -3 c 0,33,34
 330.832624568 -3 330.832624568 -3 281.409044842 36.5654296875 c 128,-1,35
 231.985465116 76.1298828125 231.985465116 76.1298828125 231.985465116 132.8984375 c 0,36,37
 231.985465116 146.903320312 231.985465116 146.903320312 235.02658294 159.7890625 c 1,38,-1
 135.657408249 36.533203125 l 2,39,40
 124.506835938 22.4990234375 124.506835938 22.4990234375 110.63671875 17.427734375 c 128,-1,41
 96.767578125 12.3564453125 96.767578125 12.3564453125 86 12.3564453125 c 0,42,43
 65.1865234375 12.3564453125 65.1865234375 12.3564453125 49.0927734375 26.4599609375 c 128,-1,44
 33 40.5625 33 40.5625 33 63.2255859375 c 0,45,46
 33 82.0615234375 33 82.0615234375 44.7373046875 99.34765625 c 0,47,48
 104.6953125 180.873046875 104.6953125 180.873046875 147.835958791 238.836914062 c 0,49,50
 182.187160758 282.444335938 182.187160758 282.444335938 257.06060791 375.90625 c 1,51,52
 220.56611101 355 220.56611101 355 178.752906977 355 c 0,53,54
 121.130859375 355 121.130859375 355 76.5654296875 394.014648438 c 128,-1,55
 32 433.029296875 32 433.029296875 32 488.001953125 c 128,-1,0
 32 542.974609375 32 542.974609375 76.5947265625 581.487304688 c 128,-1,1
178.198401163 514 m 128,-1,57
 164.255612396 514 164.255612396 514 151.542050384 505.4921875 c 128,-1,58
 138.828488372 496.983398438 138.828488372 496.983398438 138.828488372 485.5 c 0,59,60
 138.828488372 477.666015625 138.828488372 477.666015625 142.863817792 473.140625 c 128,-1,61
 146.90023023 468.614257812 146.90023023 468.614257812 152.527597827 464.848632812 c 0,62,63
 164.255612396 457 164.255612396 457 178.198401163 457 c 128,-1,64
 192.14118993 457 192.14118993 457 204.854751942 465.5078125 c 128,-1,65
 217.568313953 474.016601562 217.568313953 474.016601562 217.568313953 485.5 c 128,-1,66
 217.568313953 496.983398438 217.568313953 496.983398438 205.086518044 505.3359375 c 0,67,56
 192.14118993 514 192.14118993 514 178.198401163 514 c 128,-1,57
362.254259686 147.4921875 m 128,-1,69
 349.540697674 138.983398438 349.540697674 138.983398438 349.540697674 127.5 c 128,-1,70
 349.540697674 116.016601562 349.540697674 116.016601562 362.254259686 107.5078125 c 128,-1,71
 374.967821698 99 374.967821698 99 389.465116279 99 c 0,72,73
 402.853399232 99 402.853399232 99 415.798727346 107.6640625 c 0,74,75
 428.280523256 116.016601562 428.280523256 116.016601562 428.280523256 127.5 c 128,-1,76
 428.280523256 138.983398438 428.280523256 138.983398438 415.566961244 147.4921875 c 128,-1,77
 402.853399232 156 402.853399232 156 388.910610465 156 c 128,-1,68
 374.967821698 156 374.967821698 156 362.254259686 147.4921875 c 128,-1,69
EndSplineSet
EndChar

StartChar: ampersand
Encoding: 38 38 5
Width: 500
Flags: W
LayerCount: 2
Fore
SplineSet
472.621315406 29.1841510549 m 0,0,1
 472.621315406 28.5569001355 472.621315406 28.5569001355 471.974388284 21.3821071689 c 0,2,3
 471.331940639 1.12289690672 471.331940639 1.12289690672 455.770492195 -14.4385515466 c 128,-1,4
 440.20904375 -30 440.20904375 -30 413 -30 c 0,5,6
 401.298863829 -30 401.298863829 -30 396.065892518 -26.7293929306 c 0,7,8
 369.78850357 -10.3060248382 369.78850357 -10.3060248382 349.140321573 16.3192624744 c 0,9,10
 336.790856462 32.2435727487 336.790856462 32.2435727487 324.878788259 47.0898225307 c 1,11,12
 295.228220362 7.16492284464 295.228220362 7.16492284464 262.846679153 -11.0781989628 c 0,13,14
 225.625958503 -32.0476190476 225.625958503 -32.0476190476 197.404761905 -32.0476190476 c 0,15,16
 152.924780008 -32.0476190476 152.924780008 -32.0476190476 127.752544797 -16.9442778624 c 128,-1,17
 102.580309585 -1.84093667713 102.580309585 -1.84093667713 76.057304849 25.7429882481 c 128,-1,18
 49.5343001132 53.3269131733 49.5343001132 53.3269131733 31.7671500566 89.9380102596 c 128,-1,19
 14 126.549107346 14 126.549107346 14 171 c 0,20,21
 14 233.996910197 14 233.996910197 49.9928684362 281.987401446 c 0,22,23
 65.7223884017 302.960094733 65.7223884017 302.960094733 77.905020445 314.691518182 c 128,-1,24
 90.0876524884 326.422941631 90.0876524884 326.422941631 102.702600327 335.43572666 c 1,25,26
 86.9423386401 363.443946149 86.9423386401 363.443946149 76.9711693201 403.803441016 c 128,-1,27
 67 444.162935883 67 444.162935883 67 486 c 0,28,29
 67 519.946599193 67 519.946599193 81.9320636258 546.364865608 c 0,30,31
 96.3519343471 571.876944576 96.3519343471 571.876944576 118.750962342 589.905430523 c 0,32,33
 162.353306238 625 162.353306238 625 197 625 c 2,34,-1
 198.694964925 625 l 1,35,36
 223.404732137 619.384143815 223.404732137 619.384143815 243.170922547 611.697291989 c 128,-1,37
 262.937112957 604.010440163 262.937112957 604.010440163 282.958690676 586.213482191 c 128,-1,38
 302.954389395 568.439527774 302.954389395 568.439527774 318.21635726 540.095873167 c 0,39,40
 330.315789474 517.625499056 330.315789474 517.625499056 330.315789474 492.512465374 c 0,41,42
 330.315789474 484.246658191 330.315789474 484.246658191 328.995781384 475.76258516 c 0,43,44
 328.814468251 449.169794056 328.814468251 449.169794056 320.784161197 422.4021038 c 0,45,46
 305.305807976 370.807592916 305.305807976 370.807592916 262.803697972 330.602894263 c 0,47,48
 249.721235868 318.227592273 249.721235868 318.227592273 234.528357214 308.797951471 c 1,49,-1
 282.252599929 253.915072349 l 2,50,51
 300.723960956 233.260997506 300.723960956 233.260997506 306.663249278 220.194563197 c 0,52,53
 308.277898644 216.642334592 308.277898644 216.642334592 313.407859021 210.73863511 c 1,54,55
 334.102056193 242.617302076 334.102056193 242.617302076 354.277266732 270.248568683 c 128,-1,56
 374.45247727 297.87983529 374.45247727 297.87983529 383.192459646 325.07089157 c 1,57,58
 394.005786477 343.994213523 394.005786477 343.994213523 408.073955139 352.033167045 c 128,-1,59
 422.015912811 360 422.015912811 360 436 360 c 0,60,61
 457.022877964 360 457.022877964 360 472.654296125 345.019890929 c 128,-1,62
 488.285714286 330.039781859 488.285714286 330.039781859 488.285714286 311.214285714 c 0,63,64
 488.285714286 308.141004307 488.285714286 308.141004307 487.848714933 304.863509159 c 0,65,66
 485.337908635 287.287865075 485.337908635 287.287865075 461.240751854 253.332780521 c 0,67,68
 444.596485398 229.879495968 444.596485398 229.879495968 442.270423782 226.202966671 c 0,69,70
 434.386000713 213.740995673 434.386000713 213.740995673 417.327145598 189.005655756 c 0,71,72
 392.173057477 152.53222798 392.173057477 152.53222798 387.501948481 143.78791194 c 128,-1,73
 382.830839485 135.0435959 382.830839485 135.0435959 381.47209227 131.864525441 c 0,74,75
 397.339881485 110.558682319 397.339881485 110.558682319 406.836959434 103.618509972 c 0,76,77
 418.134440738 91.0890105517 418.134440738 91.0890105517 448.442075036 68.6746108584 c 0,78,79
 472.621315406 51.2725435003 472.621315406 51.2725435003 472.621315406 29.1841510549 c 0,0,1
158.489704743 241.694651424 m 0,80,81
 153.75557253 234.593453105 153.75557253 234.593453105 143.188597005 223.54616051 c 128,-1,82
 132.621621479 212.498867915 132.621621479 212.498867915 126.810810739 199.632072706 c 128,-1,83
 121 186.765277498 121 186.765277498 121 172.956346085 c 0,84,85
 121 149.54394067 121 149.54394067 129.410272854 132.723394961 c 128,-1,86
 137.820545708 115.902849253 137.820545708 115.902849253 148.053844862 102.258450382 c 0,87,88
 161.574375621 84.2310760356 161.574375621 84.2310760356 187.772088502 78.9811322522 c 1,89,-1
 188.79095625 80 l 1,90,-1
 195 80 l 2,91,92
 202.595694215 80 202.595694215 80 213.755167877 87.173947354 c 0,93,94
 226.728594521 93.228213121 226.728594521 93.228213121 236.60759254 104.75371081 c 0,95,96
 244.93580077 114.469953746 244.93580077 114.469953746 255.01600069 124.12648319 c 1,97,98
 227.587162934 155.748837812 227.587162934 155.748837812 213.547006048 178.12533785 c 128,-1,99
 199.506849162 200.501837887 199.506849162 200.501837887 162.225250417 245.026958088 c 0,100,101
 159.347544204 242.778645974 159.347544204 242.778645974 158.489704743 241.694651424 c 0,80,81
223.296296296 466.488340192 m 0,102,103
 223.296296296 501.997729809 223.296296296 501.997729809 210.551200942 512.353119698 c 0,104,105
 201.357403894 519.823079799 201.357403894 519.823079799 194.920827363 521.778017341 c 0,106,107
 194.189955739 522 194.189955739 522 192.600648516 522 c 0,108,109
 187.14320579 522 187.14320579 522 177.697584447 514.653405622 c 0,110,111
 164.953758749 504.741541191 164.953758749 504.741541191 162.17189471 486.268211646 c 0,112,113
 161.619047619 482.596958717 161.619047619 482.596958717 161.619047619 479.884208866 c 128,-1,114
 161.619047619 477.171459016 161.619047619 477.171459016 161.733856782 475.457857106 c 128,-1,115
 161.848665946 473.744255196 161.848665946 473.744255196 162.08134129 471.990086696 c 0,116,117
 162.522940458 468.660815377 162.522940458 468.660815377 166.996215885 450.820472303 c 128,-1,118
 171.469491311 432.98012923 171.469491311 432.98012923 177.370138399 413.311305606 c 0,119,120
 180.822698411 401.802772229 180.822698411 401.802772229 191.168582468 391.717091268 c 1,121,122
 207.265433172 403.56699307 207.265433172 403.56699307 215.280864734 420.643347268 c 128,-1,123
 223.296296296 437.719701466 223.296296296 437.719701466 223.296296296 466.488340192 c 0,102,103
EndSplineSet
EndChar

StartChar: quotesingle
Encoding: 39 39 6
Width: 500
Flags: W
LayerCount: 2
Fore
SplineSet
250 628 m 2,0,-1
 250.506980869 628 l 1,1,2
 269.128412264 626.75857124 269.128412264 626.75857124 286.875258729 617.333960308 c 0,3,4
 302.812647885 609.298130928 302.812647885 609.298130928 310.604846122 594.312019893 c 0,5,6
 314.4700552 586.878372718 314.4700552 586.878372718 316 577.188722318 c 1,7,-1
 316 424.649272748 l 2,8,9
 316.222222222 421.896735135 316.222222222 421.896735135 316.222222222 419.234567901 c 0,10,11
 316.222222222 393.168984019 316.222222222 393.168984019 295.987401446 377.992868436 c 0,12,13
 275.996910197 363 275.996910197 363 250 363 c 0,14,15
 228.085847762 363.607168045 228.085847762 363.607168045 209.825890999 376.410430103 c 0,16,17
 186.719657414 390.394097002 186.719657414 390.394097002 184.062108215 419.627136995 c 0,18,-1
 184 421 l 1,19,-1
 184 574.364618962 l 1,20,21
 189.378341689 603.945498253 189.378341689 603.945498253 207.046561749 615.724311626 c 1,22,23
 227.915231984 628 227.915231984 628 250 628 c 2,0,-1
EndSplineSet
EndChar

StartChar: parenleft
Encoding: 40 40 7
Width: 500
Flags: W
LayerCount: 2
Fore
SplineSet
366.330636825 -12.0060254972 m 1,0,1
 381 -33.3432810243 381 -33.3432810243 381 -53.5350506929 c 128,-1,2
 381 -73.7268203616 381 -73.7268203616 368.68073367 -87.4954121424 c 0,3,4
 352.347681376 -105.75 352.347681376 -105.75 327.03125 -105.75 c 0,5,6
 311.95605933 -105.75 311.95605933 -105.75 293.425491956 -96.4847163128 c 1,7,8
 280.35003909 -84.4988845185 280.35003909 -84.4988845185 266.890014121 -74.1450191578 c 128,-1,9
 253.429989152 -63.7911537972 253.429989152 -63.7911537972 243.255751846 -49.3778302004 c 0,10,11
 198.665692763 -0.240503024428 198.665692763 -0.240503024428 166.391134392 88.8987564849 c 0,12,13
 134 178.359984806 134 178.359984806 134 239 c 0,14,15
 134 298.678574573 134 298.678574573 138.722526812 319.667582627 c 128,-1,16
 143.445053624 340.656590682 143.445053624 340.656590682 161.542043732 406.006832737 c 0,17,18
 183.437559629 476.51228876 183.437559629 476.51228876 241.589754388 561.923324813 c 2,19,-1
 275.866380668 612.299578587 l 1,20,21
 286.729430333 620.990018319 286.729430333 620.990018319 292.868122027 623.680368043 c 128,-1,22
 299.006813721 626.370717767 299.006813721 626.370717767 302.225437895 627.405571641 c 0,23,24
 310.660591619 630.117647059 310.660591619 630.117647059 319.432919544 630.117647059 c 0,25,26
 337.039687334 630.117647059 337.039687334 630.117647059 351.044915903 620.113912367 c 0,27,28
 372.454545455 604.82131983 372.454545455 604.82131983 372.454545455 575.491735537 c 0,29,30
 372.454545455 562.633443507 372.454545455 562.633443507 366.447083986 547.185685446 c 1,31,32
 349.455649985 520.636569818 349.455649985 520.636569818 335.041928145 500.258549286 c 128,-1,33
 320.628206305 479.880528754 320.628206305 479.880528754 311.855009791 464.892984708 c 0,34,35
 284.800092411 418.674167518 284.800092411 418.674167518 273.367659816 387.991912534 c 0,36,37
 270.277075778 379.697432188 270.277075778 379.697432188 267.396367618 370.760517905 c 0,38,39
 244.87629007 286.497657824 244.87629007 286.497657824 242.972209646 255.080303292 c 0,40,41
 242.428571429 246.1102727 242.428571429 246.1102727 242.428571429 236.713686843 c 0,42,43
 242.428571429 217.012743254 242.428571429 217.012743254 246.476620113 195.962890093 c 128,-1,44
 250.524668798 174.913036931 250.524668798 174.913036931 268.375427726 123.773024868 c 128,-1,45
 286.226186654 72.6330128046 286.226186654 72.6330128046 329.325437845 21.8328907488 c 0,46,47
 336.581886557 13.6886293016 336.581886557 13.6886293016 346.207782651 5.50661660438 c 128,-1,48
 355.833678745 -2.67539609284 355.833678745 -2.67539609284 366.330636825 -12.0060254972 c 1,0,1
EndSplineSet
EndChar

StartChar: parenright
Encoding: 41 41 8
Width: 500
Flags: W
LayerCount: 2
Fore
SplineSet
243.152798568 369.098300675 m 1,0,1
 234.189408692 395.988470305 234.189408692 395.988470305 223.062774269 416.306672294 c 128,-1,2
 211.936139846 436.624874284 211.936139846 436.624874284 203.0586097 451.790603181 c 0,3,4
 188.309042992 476.987693629 188.309042992 476.987693629 174.594997931 497.068973896 c 2,5,-1
 142.631927769 543.98251236 l 1,6,7
 136.545454545 559.633443507 136.545454545 559.633443507 136.545454545 569.951333809 c 0,8,9
 136.545454545 601.82131983 136.545454545 601.82131983 158.795266678 617.714042782 c 0,10,11
 171.960312666 627.117647059 171.960312666 627.117647059 189.143598616 627.117647059 c 0,12,13
 191.318465002 627.117647059 191.318465002 627.117647059 197.359018661 626.701057151 c 128,-1,14
 203.399572321 626.284467244 203.399572321 626.284467244 212.86630304 622.112257145 c 128,-1,15
 222.333033305 617.940047246 222.333033305 617.940047246 233.133619354 609.299578602 c 1,16,17
 278.33506151 542.867154392 278.33506151 542.867154392 285.772769076 530.780927234 c 128,-1,18
 293.210476641 518.694700076 293.210476641 518.694700076 302.754905124 502.332822678 c 128,-1,19
 312.299333606 485.970945279 312.299333606 485.970945279 319.985559941 469.637714317 c 128,-1,20
 327.671786277 453.304483354 327.671786277 453.304483354 330.631579585 446.516437765 c 128,-1,21
 333.591372893 439.728392176 333.591372893 439.728392176 336.416355586 432.729515388 c 0,22,23
 355.451820945 385.569270118 355.451820945 385.569270118 367.792177427 324.369236556 c 0,24,25
 374.576271186 290.724603484 374.576271186 290.724603484 374.576271186 267.051709279 c 0,26,27
 374.576271186 264.448869574 374.576271186 264.448869574 374.490957828 261.974782173 c 0,28,29
 372.956940135 217.488269093 372.956940135 217.488269093 368.271597002 189.37621029 c 128,-1,30
 363.586253868 161.264151488 363.586253868 161.264151488 340.667421173 95.5634977626 c 0,31,32
 316.836303021 27.2476257273 316.836303021 27.2476257273 264.341389706 -49.5236475651 c 0,33,34
 254.001210821 -64.4594615107 254.001210821 -64.4594615107 239.13379796 -75.8959329419 c 0,35,36
 226.64996091 -85.4988845185 226.64996091 -85.4988845185 213.574508044 -97.4847163128 c 1,37,38
 195.04394067 -106.75 195.04394067 -106.75 179.96875 -106.75 c 1,39,-1
 169.449957013 -105.689135306 l 1,40,41
 150.125892321 -101.691052956 150.125892321 -101.691052956 138.06294616 -88.2089366586 c 128,-1,42
 126 -74.7268203616 126 -74.7268203616 126 -54 c 0,43,44
 126 -34.3432810243 126 -34.3432810243 140.669363175 -13.0060254972 c 1,45,46
 151.166321255 -3.67539609284 151.166321255 -3.67539609284 158.410637063 2.48227234431 c 0,47,48
 169.985197698 12.3206488843 169.985197698 12.3206488843 176.982293706 20.0615144569 c 0,49,50
 207.103526735 67.8585716533 207.103526735 67.8585716533 234.83805369 128.028394608 c 128,-1,51
 262.572580645 188.198217563 262.572580645 188.198217563 262.572580645 260.250570835 c 128,-1,52
 262.572580645 332.302924108 262.572580645 332.302924108 243.152798568 369.098300675 c 1,0,1
EndSplineSet
EndChar

StartChar: asterisk
Encoding: 42 42 9
Width: 500
Flags: W
LayerCount: 2
Fore
SplineSet
72.8077373615 343.947336058 m 1,0,1
 52 366.055557004 52 366.055557004 52 389.030604126 c 0,2,3
 52 420.32354974 52 420.32354974 76.575753865 435.362245067 c 0,4,5
 89.0571281625 443 89.0571281625 443 105 443 c 2,6,-1
 105.632689405 443 l 1,7,8
 121.679816846 441.66273938 121.679816846 441.66273938 137.123317543 432.511035263 c 0,9,10
 163.905041705 416.640383908 163.905041705 416.640383908 192.884268619 388.82032607 c 0,11,12
 193.417992944 388.307950719 193.417992944 388.307950719 193.948854978 387.799355035 c 1,13,14
 200.472509936 428.035641425 200.472509936 428.035641425 202.382105551 458.589171274 c 0,15,16
 205.070805379 501.608368513 205.070805379 501.608368513 228.307803127 519.188028549 c 0,17,18
 241.277380356 529 241.277380356 529 258 529 c 0,19,20
 279.022877964 529 279.022877964 529 295.511438982 513.198462358 c 128,-1,21
 312 497.396924716 312 497.396924716 312 469 c 0,22,23
 312 432.955124518 312 432.955124518 307.358769098 399.435123558 c 2,24,-1
 302.952064096 367.486607598 l 1,25,26
 310.438046369 371.298040106 310.438046369 371.298040106 318.607190476 374.974154955 c 128,-1,27
 326.776334584 378.650269803 326.776334584 378.650269803 340.980386336 385.245008116 c 128,-1,28
 355.184438088 391.83974643 355.184438088 391.83974643 371.213863249 397.919873215 c 128,-1,29
 387.243288409 404 387.243288409 404 399.514734747 404 c 0,30,31
 424.59468202 404 424.59468202 404 440.058560659 387.130314212 c 0,32,33
 455 370.830562203 455 370.830562203 455 350.224216338 c 128,-1,34
 455 329.617870472 455 329.617870472 437.392986105 312.68804942 c 0,35,36
 408.201598753 284.619407735 408.201598753 284.619407735 361.562895729 267.877309213 c 0,37,38
 347.353535007 262.776513057 347.353535007 262.776513057 334.547797751 257.139674025 c 1,39,-1
 361.26005835 215.665374674 l 1,40,41
 375 197.799528569 375 197.799528569 375 175.192521644 c 128,-1,42
 375 152.585514719 375 152.585514719 359.502825624 137.792757359 c 128,-1,43
 344.005651247 123 344.005651247 123 322 123 c 0,44,45
 312.571256609 123 312.571256609 123 302.340412845 128.601342164 c 0,46,47
 276.559757525 142.71613807 276.559757525 142.71613807 262.072441582 164.102175892 c 0,48,49
 251.892419514 179.129827515 251.892419514 179.129827515 244.628418711 188.277087785 c 128,-1,50
 237.364417908 197.424348056 237.364417908 197.424348056 236.062077881 199.146705812 c 128,-1,51
 234.759737854 200.869063569 234.759737854 200.869063569 233.5232109 202.592873945 c 0,52,53
 231.039525103 206.055316338 231.039525103 206.055316338 228.869032767 209.474002215 c 1,54,-1
 154.747365498 146.755668372 l 1,55,56
 135.154584877 135 135.154584877 135 117 135 c 0,57,58
 93.387634397 135 93.387634397 135 78.6938171985 151.09322836 c 128,-1,59
 64 167.186456721 64 167.186456721 64 188 c 0,60,61
 64 216.886934659 64 216.886934659 88.4582417398 236.572625218 c 2,62,-1
 143.693218207 283.48452304 l 1,63,64
 123.556863413 297.01855674 123.556863413 297.01855674 94.1355145844 325.16071649 c 0,65,66
 83.1185287044 335.698702984 83.1185287044 335.698702984 72.8077373615 343.947336058 c 1,0,1
EndSplineSet
EndChar

StartChar: plus
Encoding: 43 43 10
Width: 500
Flags: W
LayerCount: 2
Fore
SplineSet
82.3385798781 358.985648867 m 1,0,-1
 190 359.87756269 l 1,1,-1
 190 474.858094475 l 1,2,3
 199.623245598 513.351076867 199.623245598 513.351076867 227.282257397 524.413254811 c 0,4,5
 236.250276897 528 236.250276897 528 245.665371538 528 c 0,6,7
 264.168343159 528 264.168343159 528 279.733293468 515.818734541 c 128,-1,8
 295.225691643 503.694249012 295.225691643 503.694249012 302 477.951877256 c 1,9,-1
 302 360 l 1,10,-1
 424.951877256 360 l 1,11,12
 450.694249012 353.225691643 450.694249012 353.225691643 462.818734541 337.733293468 c 128,-1,13
 475 322.168343159 475 322.168343159 475 304 c 0,14,15
 475 284.205077314 475 284.205077314 461.517881804 269.374747299 c 128,-1,16
 448.035763609 254.544417283 448.035763609 254.544417283 421.858094475 248 c 1,17,-1
 302 248 l 1,18,-1
 302 137 l 1,19,-1
 301.985648867 136.338579878 l 2,20,21
 300.71706797 107.161219232 300.71706797 107.161219232 283.781622735 91.5806096162 c 128,-1,22
 266.846177499 76 266.846177499 76 246 76 c 0,23,24
 226.368058288 76 226.368058288 76 210.12980725 90.2084696582 c 128,-1,25
 193.893982145 104.414816626 193.893982145 104.414816626 190 132.970685688 c 1,26,-1
 190 247.879510836 l 1,27,-1
 79.0311141945 246.991759749 l 1,28,29
 50.4148166257 250.893982145 50.4148166257 250.893982145 36.2084696582 267.12980725 c 128,-1,30
 22 283.368058288 22 283.368058288 22 303.607117894 c 128,-1,31
 22 323.846177499 22 323.846177499 37.5806096162 340.781622735 c 128,-1,32
 53.1612192325 357.71706797 53.1612192325 357.71706797 82.3385798781 358.985648867 c 1,0,-1
EndSplineSet
EndChar

StartChar: comma
Encoding: 44 44 11
Width: 500
Flags: W
LayerCount: 2
Fore
SplineSet
244.959960938 149.919921875 m 0,0,1
 211 80 211 80 187.199707031 44.8100585938 c 0,2,3
 136 -29 136 -29 122.080078125 -71.7900390625 c 4,4,5
 120 -78 120 -78 120.559570312 -82.5146484375 c 4,6,7
 121 -88 121 -88 120.559570312 -91.8095703125 c 4,8,9
 121 -120 121 -120 141.83984375 -135.424804688 c 4,10,11
 163 -150 163 -150 185.919921875 -153.299804688 c 260,12,13
 209 -156 209 -156 230.759765625 -144.719726562 c 4,14,15
 242.736290988 -138.653185937 242.736290988 -138.653185937 258.879882812 -118.98046875 c 4,16,17
 302.773768607 -48.4338518385 302.773768607 -48.4338518385 311.840332031 -35.2700195312 c 0,18,19
 332 -6 332 -6 383.280273438 98.4404296875 c 0,20,21
 391 114 391 114 390.879882812 129.900390625 c 0,22,23
 391 156 391 156 361.240234375 174.23046875 c 0,24,25
 335 191 335 191 304.240234375 187.099609375 c 0,26,27
 260 182 260 182 244.959960938 149.919921875 c 0,0,1
EndSplineSet
EndChar

StartChar: hyphen
Encoding: 45 45 12
Width: 500
Flags: W
LayerCount: 2
Fore
SplineSet
125.5 359 m 1,0,-1
 281.5 360 l 1,1,-1
 422.951877256 360 l 1,2,3
 448.694249012 353.225691643 448.694249012 353.225691643 460.818734541 337.733293468 c 128,-1,4
 473 322.168343159 473 322.168343159 473 304 c 0,5,6
 473 284.205077314 473 284.205077314 459.517881804 269.374747299 c 128,-1,7
 446.035763771 254.544417462 446.035763771 254.544417462 419.878965116 248.00521765 c 1,8,-1
 80.9945902935 246.996741753 l 1,9,10
 52.4148554959 250.893937722 52.4148554959 250.893937722 38.2084696582 267.12980725 c 128,-1,11
 24 283.368058288 24 283.368058288 24 303 c 128,-1,12
 24 322.518819753 24 322.518819753 39.5382804755 340.759409877 c 128,-1,13
 55.0765609509 359 55.0765609509 359 85 359 c 2,14,-1
 125.5 359 l 1,0,-1
EndSplineSet
EndChar

StartChar: period
Encoding: 46 46 13
Width: 500
Flags: W
LayerCount: 2
Fore
SplineSet
310.919267114 131.293204493 m 128,-1,1
 340 104.586408986 340 104.586408986 340 67.4497792675 c 128,-1,2
 340 30.3131495493 340 30.3131495493 310.871087183 4.15657477463 c 128,-1,3
 281.742174366 -22 281.742174366 -22 248 -22 c 0,4,5
 212.985354551 -22 212.985354551 -22 185.635514584 4.16071648965 c 0,6,7
 158 30.5946869617 158 30.5946869617 158 67.4502804598 c 128,-1,8
 158 104.305873958 158 104.305873958 185.513542281 131.221295755 c 128,-1,9
 212.887328843 158 212.887328843 158 247.362931536 158 c 128,-1,0
 281.838534229 158 281.838534229 158 310.919267114 131.293204493 c 128,-1,1
EndSplineSet
EndChar

StartChar: slash
Encoding: 47 47 14
Width: 500
Flags: W
LayerCount: 2
Fore
SplineSet
400 723 m 0,0,1
 420.830562203 723 420.830562203 723 437.130314212 708.058560659 c 0,2,3
 454 692.59468202 454 692.59468202 454 668 c 0,4,5
 454 658.228825732 454 658.228825732 451.578059152 650.921160066 c 128,-1,6
 449.156118305 643.6134944 449.156118305 643.6134944 447.904954736 640.360469122 c 0,7,8
 384.504718181 492.426583825 384.504718181 492.426583825 145.106168418 -57.4789958268 c 1,9,10
 133.78276558 -73.0486747291 133.78276558 -73.0486747291 120.503515279 -79.0243373646 c 128,-1,11
 107.224264978 -85 107.224264978 -85 97.6586915048 -85 c 128,-1,12
 88.0931180314 -85 88.0931180314 -85 81.5470473512 -83.2093050588 c 0,13,14
 68.4053021701 -79.6143459201 68.4053021701 -79.6143459201 58.395478125 -69.604521875 c 0,15,16
 43 -54.20904375 43 -54.20904375 43 -28 c 2,17,-1
 43 -21.5 l 2,18,19
 43 -16.2228049465 43 -16.2228049465 44.7321957081 -9.19715354331 c 1,20,-1
 195.739545753 339.976081845 l 1,21,-1
 348.215646107 689.845486814 l 1,22,23
 357.80705707 705.431529629 357.80705707 705.431529629 370.982478791 714.215764815 c 128,-1,24
 384.157900511 723 384.157900511 723 400 723 c 0,0,1
EndSplineSet
EndChar

StartChar: zero
Encoding: 48 48 15
Width: 500
Flags: W
LayerCount: 2
Fore
SplineSet
411.389045755 316.479492188 m 1,0,1
 370.532787253 289.059570312 370.532787253 289.059570312 293.016277948 235.067382812 c 0,2,3
 235.333204986 195.336914062 235.333204986 195.336914062 172.048681011 150.489257812 c 1,4,5
 180.266352985 138.737304688 180.266352985 138.737304688 191.869282254 123.889648438 c 0,6,7
 222.242473853 91.470703125 222.242473853 91.470703125 265.660404147 86.0068359375 c 1,8,9
 305.393591508 86.4716796875 305.393591508 86.4716796875 334.600928304 120.909179688 c 1,10,11
 380.758082589 164.408203125 380.758082589 164.408203125 390.871070812 200.583007812 c 0,12,13
 410.513050265 268.583984375 410.513050265 268.583984375 411.389045755 316.479492188 c 1,0,1
150.225804362 273.275390625 m 0,14,15
 150.225804362 268.401367188 150.225804362 268.401367188 150.318858828 263.454101562 c 1,16,17
 334.342087146 392.048828125 334.342087146 392.048828125 388.628137306 428.673828125 c 1,18,19
 378.682005367 447.360351562 378.682005367 447.360351562 353.250326787 471.157226562 c 1,20,21
 315.116178811 497.10546875 315.116178811 497.10546875 292.794872494 497.10546875 c 0,22,23
 291.974495766 497.10546875 291.974495766 497.10546875 291.199041883 497.08984375 c 0,24,25
 242.84601612 492.223632812 242.84601612 492.223632812 216.532994093 468.135742188 c 1,26,27
 189.96327009 451.91796875 189.96327009 451.91796875 168.46768846 395.688476562 c 0,28,29
 150.225804362 341.178710938 150.225804362 341.178710938 150.225804362 273.275390625 c 0,14,15
274.713427131 -25 m 128,-1,31
 258.041703448 -25 258.041703448 -25 241.802094755 -22.9990234375 c 0,32,33
 208.435116373 -18.9501953125 208.435116373 -18.9501953125 185.10946358 -9.939453125 c 0,34,35
 160.700314533 0.0048828125 160.700314533 0.0048828125 140.403745044 12.7724609375 c 0,36,37
 115.074747254 28.5283203125 115.074747254 28.5283203125 90.5498046875 63.466796875 c 0,38,39
 78.033203125 86.345703125 78.033203125 86.345703125 68.630859375 111.126953125 c 1,40,41
 58.4990234375 109.880859375 58.4990234375 109.880859375 56.9599609375 109.880859375 c 128,-1,42
 55.4208984375 109.880859375 55.4208984375 109.880859375 55.3515625 109.881835938 c 0,43,44
 44.78125 109.881835938 44.78125 109.881835938 33.666015625 113.26171875 c 0,45,46
 22.5498046875 115.708984375 22.5498046875 115.708984375 16.9326171875 120.961914062 c 0,47,48
 11.3154296875 127.014648438 11.3154296875 127.014648438 11.3017578125 134.025390625 c 0,49,50
 11.2763671875 155.057617188 11.2763671875 155.057617188 30.5205078125 176.856445312 c 0,51,52
 35.900390625 182.950195312 35.900390625 182.950195312 41.6904296875 188.020507812 c 1,53,54
 35.451171875 225.940429688 35.451171875 225.940429688 35.451171875 264.719726562 c 0,55,56
 35.451171875 360.483398438 35.451171875 360.483398438 65.3984375 442.158203125 c 0,57,58
 82.5869140625 484.337890625 82.5869140625 484.337890625 110.971794021 520.142578125 c 0,59,60
 141.94074812 557.924804688 141.94074812 557.924804688 181.163740306 583.16796875 c 0,61,62
 223.961307494 609.22265625 223.961307494 609.22265625 290.650341412 609.22265625 c 0,63,64
 318.300352892 609.22265625 318.300352892 609.22265625 344.848685064 602.823242188 c 0,65,66
 370.563805408 596.58203125 370.563805408 596.58203125 404.385360204 576.0078125 c 0,67,68
 466.397460938 533.4296875 466.397460938 533.4296875 493.365234375 466.385742188 c 1,69,70
 501.416992188 467.881835938 501.416992188 467.881835938 510.48046875 467.881835938 c 128,-1,71
 519.544921875 467.881835938 519.544921875 467.881835938 530.66015625 464.500976562 c 0,72,73
 541.776367188 461.907226562 541.776367188 461.907226562 548.040039062 455.698242188 c 0,74,75
 553.010742188 450.513671875 553.010742188 450.513671875 553.0234375 443.70703125 c 0,76,77
 553.049804688 422.706054688 553.049804688 422.706054688 533.385742188 400.432617188 c 0,78,79
 526.454101562 392.581054688 526.454101562 392.581054688 518.739257812 386.432617188 c 1,80,81
 523.986328125 349.837890625 523.986328125 349.837890625 523.986328125 309.434570312 c 128,-1,82
 523.986328125 269.03125 523.986328125 269.03125 518.758789062 228.252929688 c 1,83,84
 509.294921875 189.346679688 509.294921875 189.346679688 491.36328125 145.798828125 c 0,85,86
 473.228515625 106.3515625 473.228515625 106.3515625 445.255523396 71.732421875 c 0,87,88
 408.527888325 26.26953125 408.527888325 26.26953125 350.527146669 -6.9453125 c 0,89,90
 327.366210976 -19.0908203125 327.366210976 -19.0908203125 309.301879078 -22.876953125 c 1,91,30
 291.324184096 -25 291.324184096 -25 274.713427131 -25 c 128,-1,31
EndSplineSet
EndChar

StartChar: one
Encoding: 49 49 16
Width: 500
Flags: W
LayerCount: 2
Fore
SplineSet
368.990532378 291.87109375 m 0,0,1
 374.232804119 205.579101562 374.232804119 205.579101562 368.748898108 101.760742188 c 1,2,3
 385.807410721 100.713867188 385.807410721 100.713867188 395.238732183 100.713867188 c 128,-1,4
 404.670053645 100.713867188 404.670053645 100.713867188 407.961914238 100.763671875 c 128,-1,5
 411.253774831 100.813476562 411.253774831 100.813476562 414.460034046 100.911132812 c 128,-1,6
 417.666293261 101.009765625 417.666293261 101.009765625 420.798870277 101.15625 c 0,7,8
 434.887695312 102.077148438 434.887695312 102.077148438 446.703125 102.077148438 c 0,9,10
 473.934570312 102.077148438 473.934570312 102.077148438 491.182617188 98.2109375 c 128,-1,11
 508.431640625 94.3447265625 508.431640625 94.3447265625 515.077148438 84.908203125 c 0,12,13
 525.397460938 71.767578125 525.397460938 71.767578125 527.383789062 55.8759765625 c 0,14,15
 527.604492188 54.107421875 527.604492188 54.107421875 527.604492188 52.27734375 c 0,16,17
 527.604492188 34.669921875 527.604492188 34.669921875 504.397460938 9.1416015625 c 1,18,19
 488.176757812 -4.375 488.176757812 -4.375 443.375 -4.375 c 0,20,21
 418.164731665 -4.375 418.164731665 -4.375 380.428610199 -1 c 1,22,-1
 327.452192736 -1 l 2,23,24
 273.234013508 -1 273.234013508 -1 183.115266416 4.0068359375 c 0,25,26
 112.055664062 4.990234375 112.055664062 4.990234375 61.8818359375 2.9833984375 c 1,27,28
 43.1572265625 3.9736328125 43.1572265625 3.9736328125 34.0087890625 18.7373046875 c 0,29,30
 27.57421875 29.123046875 27.57421875 29.123046875 27 43.9384765625 c 0,31,32
 27 59.23046875 27 59.23046875 32.9833984375 70.3642578125 c 0,33,34
 40.900390625 85.09765625 40.900390625 85.09765625 58.0732421875 91.353515625 c 0,35,36
 69.5205078125 96.5927734375 69.5205078125 96.5927734375 87.2421875 98.6025390625 c 0,37,38
 126.710459579 103.065429688 126.710459579 103.065429688 244.192391515 98.021484375 c 1,39,40
 245.899001269 149.990234375 245.899001269 149.990234375 245.899001269 191.447265625 c 128,-1,41
 245.899001269 232.905273438 245.899001269 232.905273438 244.301831251 252.783203125 c 0,42,43
 241.707784424 285.05859375 241.707784424 285.05859375 241.707784424 329.6328125 c 128,-1,44
 241.707784424 374.20703125 241.707784424 374.20703125 243.673365437 438.163085938 c 1,45,46
 173.694780572 384.26171875 173.694780572 384.26171875 148.546395942 376.169921875 c 2,47,-1
 146.530971089 375.521484375 l 1,48,49
 140.379591041 374.993164062 140.379591041 374.993164062 136.561119438 374.993164062 c 0,50,51
 112.959960938 374.993164062 112.959960938 374.993164062 98.6708984375 389.189453125 c 0,52,53
 83 404.7578125 83 404.7578125 83 424.7734375 c 0,54,55
 83 436.412109375 83 436.412109375 88.8134765625 448.712890625 c 0,56,57
 91.9755859375 455.403320312 91.9755859375 455.403320312 115.6796875 477.5 c 0,58,59
 140.915954107 499.595703125 140.915954107 499.595703125 200.333062606 545.799804688 c 0,60,61
 200.877010604 546.205078125 200.877010604 546.205078125 275.109658895 599.122070312 c 1,62,63
 294.950758078 606 294.950758078 606 307.744371647 606 c 0,64,65
 334.203865993 606 334.203865993 606 350.690258002 600.110351562 c 0,66,67
 363.010355086 595.709960938 363.010355086 595.709960938 369.129228282 587.5 c 1,68,69
 365.587064925 488.576171875 365.587064925 488.576171875 365.587064925 440.62109375 c 128,-1,70
 365.587064925 392.666015625 365.587064925 392.666015625 365.911049888 372.40625 c 0,71,72
 366.555769129 331.961914062 366.555769129 331.961914062 368.990532378 291.87109375 c 0,0,1
EndSplineSet
EndChar

StartChar: two
Encoding: 50 50 17
Width: 500
Flags: W
LayerCount: 2
Fore
SplineSet
198.619229036 115 m 1,0,-1
 389.31676294 115 l 1,1,-1
 444.155273438 116 l 2,2,3
 471.037109375 116 471.037109375 116 483.81640625 92.6962890625 c 0,4,5
 494.155273438 73.8447265625 494.155273438 73.8447265625 494.155273438 53 c 2,6,-1
 494.155273438 50.556640625 l 1,7,8
 484.216796875 20.7431640625 484.216796875 20.7431640625 481.877929688 15.1298828125 c 128,-1,9
 479.540039062 9.5166015625 479.540039062 9.5166015625 475.95703125 7.126953125 c 128,-1,10
 472.374023438 4.7373046875 472.374023438 4.7373046875 469.018554688 3.6201171875 c 0,11,12
 453.678710938 -1.4912109375 453.678710938 -1.4912109375 393.494653837 -3.986328125 c 2,13,-1
 393.130870808 -4 l 1,14,-1
 124.377929688 -4 l 1,15,16
 95.498046875 -1.138671875 95.498046875 -1.138671875 80.685546875 17.6396484375 c 0,17,18
 69.39453125 31.9541015625 69.39453125 31.9541015625 67 56.814453125 c 1,19,20
 75.501953125 93.76953125 75.501953125 93.76953125 81.75390625 121.951171875 c 0,21,22
 90.431640625 161.064453125 90.431640625 161.064453125 126.029296875 208.821289062 c 0,23,24
 145.36328125 234.758789062 145.36328125 234.758789062 189.700930891 272.825195312 c 0,25,26
 212.9257826 293.297851562 212.9257826 293.297851562 239.302297773 313.979492188 c 128,-1,27
 265.677690158 334.661132812 265.677690158 334.661132812 296.047959139 353.087890625 c 128,-1,28
 326.417105334 371.514648438 326.417105334 371.514648438 346.639624267 394.762695312 c 0,29,30
 365.172348575 416.442382812 365.172348575 416.442382812 365.172348575 448 c 0,31,32
 365.172348575 455.349609375 365.172348575 455.349609375 361.605253874 463.87890625 c 0,33,34
 352.967652511 481.862304688 352.967652511 481.862304688 349.273682865 486.349609375 c 128,-1,35
 345.578590432 490.837890625 345.578590432 490.837890625 343.745079055 492.747070312 c 0,36,37
 329.465472382 507.611328125 329.465472382 507.611328125 314.380827339 509.995117188 c 0,38,39
 269.734320046 509.693359375 269.734320046 509.693359375 231.626924977 488.057617188 c 128,-1,40
 193.518407121 466.420898438 193.518407121 466.420898438 160.075195312 434.654296875 c 1,41,42
 140.958984375 421 140.958984375 421 120.155273438 421 c 0,43,44
 96.54296875 421 96.54296875 421 81.576171875 436.157226562 c 0,45,46
 67.1552734375 450.762695312 67.1552734375 450.762695312 67.1552734375 471.091796875 c 128,-1,47
 67.1552734375 491.419921875 67.1552734375 491.419921875 79.1357421875 509.884765625 c 1,48,49
 99.7265625 529.927734375 99.7265625 529.927734375 122.4921875 548.586914062 c 0,50,51
 171.024489831 587.764648438 171.024489831 587.764648438 234.883007643 605.20703125 c 0,52,53
 268.034420336 615 268.034420336 615 305.928485852 615 c 128,-1,54
 343.822551367 615 343.822551367 615 379.544023792 600.01953125 c 0,55,56
 443.811523438 571.797851562 443.811523438 571.797851562 470.3046875 501.10546875 c 0,57,58
 483.155273438 466.81640625 483.155273438 466.81640625 483.155273438 426.71875 c 0,59,60
 483.155273438 401.427734375 483.155273438 401.427734375 470.633789062 369.311523438 c 0,61,62
 459.993164062 342.015625 459.993164062 342.015625 443.512695312 322.012695312 c 0,63,64
 419.75390625 293.172851562 419.75390625 293.172851562 389.81303485 272.697265625 c 2,65,-1
 329.426174832 235.953125 l 2,66,67
 302.142447661 219.416015625 302.142447661 219.416015625 280.927384909 199.809570312 c 2,68,-1
 231.486576586 154.133789062 l 2,69,70
 213.664576529 137.671875 213.664576529 137.671875 198.619229036 115 c 1,0,-1
EndSplineSet
EndChar

StartChar: three
Encoding: 51 51 18
Width: 500
Flags: W
LayerCount: 2
Fore
SplineSet
67.2216796875 71.3447265625 m 2,0,-1
 65.896484375 72.837890625 l 1,1,2
 52 90.8525390625 52 90.8525390625 52 111.920898438 c 128,-1,3
 52 132.989257812 52 132.989257812 67.4970703125 147.052734375 c 128,-1,4
 82.994140625 161.115234375 82.994140625 161.115234375 106 161.115234375 c 2,5,-1
 107.077148438 161.115234375 l 1,6,7
 117.607421875 159.685546875 117.607421875 159.685546875 139.330078125 149.095703125 c 0,8,9
 162.390791223 138.564453125 162.390791223 138.564453125 175.685596561 127.465820312 c 0,10,11
 185.446241183 119.317382812 185.446241183 119.317382812 206.627851996 109.212890625 c 128,-1,12
 227.809462809 99.1083984375 227.809462809 99.1083984375 263.411294519 96.470703125 c 0,13,14
 289.424852567 96.5947265625 289.424852567 96.5947265625 310.249488682 105.893554688 c 0,15,16
 351.587381114 124.352539062 351.587381114 124.352539062 367.652354591 167.270507812 c 0,17,18
 375.419056429 188.018554688 375.419056429 188.018554688 375.419056429 208.15625 c 128,-1,19
 375.419056429 228.293945312 375.419056429 228.293945312 359.319608761 241.349609375 c 0,20,21
 333.42726642 262.348632812 333.42726642 262.348632812 280.347019361 272.379882812 c 0,22,23
 245.319016138 279 245.319016138 279 210.29879741 279 c 2,24,-1
 208.075768061 279 l 1,25,26
 166.710073861 287.935546875 166.710073861 287.935546875 154.665236001 314.85546875 c 0,27,28
 151.083256244 322.859375 151.083256244 322.859375 151.083256244 331.47265625 c 0,29,30
 151.083256244 348.740234375 151.083256244 348.740234375 166.658918608 363.443359375 c 0,31,32
 181.58846789 377.537109375 181.58846789 377.537109375 210.672453168 383.505859375 c 1,33,34
 257.314922887 387.759765625 257.314922887 387.759765625 295.137559804 400.015625 c 0,35,36
 336.761254409 413.502929688 336.761254409 413.502929688 350.525353586 434.927734375 c 1,37,-1
 351.43947571 453.685546875 l 1,38,-1
 347.22583979 471.848632812 l 2,39,40
 346.011458574 477.331054688 346.011458574 477.331054688 342.08918518 480.1484375 c 0,41,42
 322.804766998 494 322.804766998 494 274.069380204 494 c 0,43,44
 249.304677563 494 249.304677563 494 220.920184761 489.845703125 c 128,-1,45
 192.534579888 485.69140625 192.534579888 485.69140625 164.802872593 472.30859375 c 0,46,47
 152.230913217 464.314453125 152.230913217 464.314453125 141.114257812 457.657226562 c 0,48,49
 130.219726562 451 130.219726562 451 115 451 c 0,50,51
 92.421875 451 92.421875 451 76.7109375 468.077148438 c 128,-1,52
 61 485.154296875 61 485.154296875 61 515 c 2,53,-1
 61 516.325195312 l 1,54,55
 65.158203125 539.888671875 65.158203125 539.888671875 83.24609375 555.392578125 c 0,56,57
 98.720703125 568.65625 98.720703125 568.65625 117.690429688 577.870117188 c 128,-1,58
 136.66015625 587.083984375 136.66015625 587.083984375 168.956456695 595.514648438 c 0,59,60
 203.158191381 603.9453125 203.158191381 603.9453125 225.973434067 604.47265625 c 128,-1,61
 248.787564683 605 248.787564683 605 259.834875116 605 c 2,62,-1
 266.098057354 605 l 2,63,64
 357.357916028 605 357.357916028 605 412.446289062 569.280273438 c 0,65,66
 438.825195312 550.55078125 438.825195312 550.55078125 453.924804688 521.75390625 c 128,-1,67
 469 493.006835938 469 493.006835938 469 454.348632812 c 0,68,69
 469 447.15625 469 447.15625 467.90625 432.557617188 c 0,70,71
 465.24609375 397.041992188 465.24609375 397.041992188 437.311523438 363.059570312 c 0,72,73
 426.776367188 350.243164062 426.776367188 350.243164062 410.765625 337.987304688 c 1,74,75
 465.859375 301.586914062 465.859375 301.586914062 486.1015625 248.510742188 c 0,76,77
 495 225.178710938 495 225.178710938 495 198.813476562 c 0,78,79
 495 159.366210938 495 159.366210938 476.256835938 121.580078125 c 128,-1,80
 457.513671875 83.794921875 457.513671875 83.794921875 428.293945312 54.9208984375 c 128,-1,81
 398.998046875 25.97265625 398.998046875 25.97265625 356.457138753 8.0234375 c 0,82,83
 313.584588742 -9.92578125 313.584588742 -9.92578125 269.870201203 -10 c 0,84,85
 265.708832606 -10.142578125 265.708832606 -10.142578125 261.543015726 -10.142578125 c 0,86,87
 205.475746741 -10.142578125 205.475746741 -10.142578125 148.823242188 15.0498046875 c 0,88,89
 98.8828125 40.2421875 98.8828125 40.2421875 67.2216796875 71.3447265625 c 2,0,-1
EndSplineSet
EndChar

StartChar: four
Encoding: 52 52 19
Width: 500
InSpiro: 1
Flags: W
LayerCount: 2
Fore
SplineSet
279.756426853 2.9453125 m 1,0,-1
 272.738094181 26.052734375 l 1,1,-1
 272.738094181 171.977539062 l 1,2,-1
 233.225330357 172.740234375 l 1,3,-1
 193.413517865 174.083984375 l 1,4,-1
 156.540707489 176.602539062 l 1,5,-1
 108.127929688 181.725585938 l 1,6,-1
 68.328125 211.396484375 l 1,7,-1
 60.1904296875 245.549804688 l 1,8,-1
 53.048828125 316.620117188 l 1,9,-1
 48 412.7734375 l 1,10,-1
 54.193359375 487.47265625 l 1,11,-1
 79.3603515625 572.190429688 l 1,12,-1
 99.05078125 583.174804688 l 1,13,-1
 114.109375 586.213867188 l 1,14,-1
 126.348632812 587.057617188 l 1,15,-1
 145.44140625 584.936523438 l 1,16,-1
 165.420152571 574.564453125 l 1,17,-1
 178.998933873 555.624023438 l 1,18,-1
 172.821880972 515.442382812 l 1,19,-1
 168.419402587 466.88671875 l 1,20,-1
 168.419402587 370.877929688 l 1,21,-1
 175.456357338 281.051757812 l 1,22,-1
 193.542776996 278.86328125 l 1,23,-1
 229.968657494 278.501953125 l 1,24,-1
 264.687879289 279.369140625 l 1,25,-1
 265.461243245 279.369140625 l 1,26,-1
 272.738094181 279.260742188 l 1,27,-1
 272.738094181 345.672851562 l 1,28,-1
 281.766515889 367.609375 l 1,29,-1
 295.382541348 383.740234375 l 1,30,-1
 313.531399739 393.874023438 l 1,31,-1
 334.247914098 397.215820312 l 1,32,-1
 354.808879332 394.303710938 l 1,33,-1
 373.572266306 385.508789062 l 1,34,-1
 388.629859706 370.385742188 l 1,35,-1
 398.369206637 348.92578125 l 1,36,-1
 398.369206637 278 l 1,37,-1
 471.342773438 278 l 1,38,-1
 493.431640625 267.755859375 l 1,39,-1
 508.686523438 254.772460938 l 1,40,-1
 518.072265625 238.783203125 l 1,41,-1
 521.294921875 220.879882812 l 1,42,-1
 517.569335938 201.895507812 l 1,43,-1
 506.70703125 185.170898438 l 1,44,-1
 490.002929688 172.359375 l 1,45,-1
 467.763671875 164 l 1,46,-1
 437.838867188 164 l 1,47,-1
 417.223513169 164.250976562 l 1,48,-1
 417.037292387 164.250976562 l 1,49,-1
 398.369206637 164.64453125 l 1,50,-1
 398.369206637 27.404296875 l 1,51,-1
 393.103540154 4.673828125 l 1,52,-1
 378.625422013 -13.654296875 l 1,53,-1
 357.977918886 -25.130859375 l 1,54,-1
 334.449470709 -29.2919921875 l 1,55,-1
 313.002313633 -25.5390625 l 1,56,-1
 293.863198845 -14.45703125 l 1,57,-1
 279.756426853 2.9453125 l 1,0,-1
EndSplineSet
EndChar

StartChar: five
Encoding: 53 53 20
Width: 500
Flags: W
LayerCount: 2
Fore
SplineSet
188.72639945 489.081054688 m 1,0,-1
 192.09616452 398.907226562 l 1,1,2
 225.646630079 405 225.646630079 405 260.735346359 405 c 0,3,4
 346.294179479 405 346.294179479 405 411.338867188 367.922851562 c 0,5,6
 429.366210938 356.366210938 429.366210938 356.366210938 444.200195312 341.787109375 c 0,7,8
 473.684570312 312.811523438 473.684570312 312.811523438 489.841796875 276.421875 c 128,-1,9
 506 240.033203125 506 240.033203125 506 201.336914062 c 128,-1,10
 506 162.641601562 506 162.641601562 489.350585938 125.31640625 c 128,-1,11
 472.700195312 87.9921875 472.700195312 87.9921875 442.287109375 57.607421875 c 128,-1,12
 411.881835938 27.23046875 411.881835938 27.23046875 365.140517457 8.115234375 c 0,13,14
 317.827687889 -11 317.827687889 -11 264.116177981 -11 c 128,-1,15
 210.403561418 -11 210.403561418 -11 161.590107405 3.18359375 c 0,16,17
 117.434570312 17.3662109375 117.434570312 17.3662109375 79.294921875 42.4296875 c 1,18,19
 58 65.0556640625 58 65.0556640625 58 89.53515625 c 128,-1,20
 58 114.014648438 58 114.014648438 73.296875 130.006835938 c 128,-1,21
 88.5947265625 146 88.5947265625 146 114 146 c 0,22,23
 126.443359375 146 126.443359375 146 139.572265625 141.624023438 c 1,24,25
 199.604820021 106 199.604820021 106 258.468916519 106 c 0,26,27
 311.201036579 106 311.201036579 106 348.978924983 134.231445312 c 0,28,29
 366.818206733 147.564453125 366.818206733 147.564453125 377.28273826 166.250976562 c 128,-1,30
 387.655417407 184.774414062 387.655417407 184.774414062 387.655417407 207.036132812 c 128,-1,31
 387.655417407 229.297851562 387.655417407 229.297851562 375.383717945 244.3046875 c 0,32,33
 351.562964865 273.434570312 351.562964865 273.434570312 300.968902642 283.297851562 c 0,34,35
 276.849352659 288 276.849352659 288 257.54043281 288 c 0,36,37
 222.192759214 288 222.192759214 288 187.057563416 279.115234375 c 0,38,39
 182.227013488 276.51171875 182.227013488 276.51171875 179.382909636 274.001953125 c 0,40,41
 167.68335091 263.677734375 167.68335091 263.677734375 162.335993006 260.610351562 c 128,-1,42
 156.989741757 257.543945312 156.989741757 257.543945312 150.3515625 254.771484375 c 0,43,44
 144.25390625 252 144.25390625 252 133 252 c 0,45,46
 112.34375 252 112.34375 252 95.59765625 266.736328125 c 0,47,48
 78.8193359375 281.139648438 78.8193359375 281.139648438 75.037109375 310.65625 c 1,49,50
 73.005859375 360.04296875 73.005859375 360.04296875 72.033203125 407.361328125 c 128,-1,51
 71.0595703125 454.6796875 71.0595703125 454.6796875 69.224609375 502.258789062 c 1,52,53
 54 518.641601562 54 518.641601562 54 539.462890625 c 128,-1,54
 54 560.284179688 54 560.284179688 70.0517578125 578.142578125 c 128,-1,55
 86.1044921875 596 86.1044921875 596 116 596 c 0,56,57
 123.818359375 596 123.818359375 596 144.750976562 596.498046875 c 0,58,59
 376.480413244 600.2578125 376.480413244 600.2578125 394.224522647 600.572265625 c 0,60,61
 417.102539062 601 417.102539062 601 422 601 c 2,62,-1
 423.858398438 601 l 1,63,64
 450.798828125 594.743164062 450.798828125 594.743164062 463.006835938 579.623046875 c 0,65,66
 475 564.76953125 475 564.76953125 475 546.364257812 c 128,-1,67
 475 527.958007812 475 527.958007812 461.09375 513.1953125 c 128,-1,68
 447.1875 498.431640625 447.1875 498.431640625 421.122070312 492.37890625 c 1,69,70
 357.376224606 490.459960938 357.376224606 490.459960938 299.801381411 490.459960938 c 128,-1,71
 242.227644871 490.459960938 242.227644871 490.459960938 188.72639945 489.081054688 c 1,0,-1
EndSplineSet
EndChar

StartChar: six
Encoding: 54 54 21
Width: 500
Flags: W
LayerCount: 2
Fore
SplineSet
199.567759761 360.859375 m 1,0,1
 277.582624193 380.046875 277.582624193 380.046875 300.729516372 380.046875 c 0,2,3
 301.8730352 380.046875 301.8730352 380.046875 302.882152007 380 c 0,4,5
 348.664768027 380 348.664768027 380 388.357430215 368.020507812 c 0,6,7
 444.729492188 349.647460938 444.729492188 349.647460938 475.737304688 305.888671875 c 0,8,9
 508 260.358398438 508 260.358398438 508 197.178710938 c 0,10,11
 508 151.254882812 508 151.254882812 493.44140625 113.8984375 c 0,12,13
 471.932617188 58.7080078125 471.932617188 58.7080078125 421.805664062 28.0517578125 c 0,14,15
 367.937136395 -2 367.937136395 -2 292.729291204 -2 c 0,16,17
 236.303577505 -2 236.303577505 -2 184.093900946 16.4853515625 c 0,18,19
 133.418945312 34.9697265625 133.418945312 34.9697265625 104.916992188 71.578125 c 0,20,21
 90.70703125 89.978515625 90.70703125 89.978515625 82.205078125 102.14453125 c 0,22,23
 64.4892578125 127.5 64.4892578125 127.5 50.341796875 189.592773438 c 0,24,25
 47 205.791015625 47 205.791015625 47 226.037109375 c 0,26,27
 47 324.475585938 47 324.475585938 106.734375 432.130859375 c 0,28,29
 163.535900139 530.791015625 163.535900139 530.791015625 262.238760775 605.923828125 c 0,30,31
 284.461363652 622 284.461363652 622 310.146471032 622 c 128,-1,32
 335.832680068 622 335.832680068 622 353.20028538 607.502929688 c 128,-1,33
 370.567890692 593.006835938 370.567890692 593.006835938 370.567890692 572.09375 c 128,-1,34
 370.567890692 551.075195312 370.567890692 551.075195312 351.198576604 531.17578125 c 1,35,36
 298.601117167 492.877929688 298.601117167 492.877929688 252.95510648 439.169921875 c 0,37,38
 221.347496964 401.439453125 221.347496964 401.439453125 199.567759761 360.859375 c 1,0,1
231.761450216 123.341796875 m 128,-1,40
 259.807406197 111 259.807406197 111 290.473099915 111 c 0,41,42
 329.500361937 111 329.500361937 111 349.355506278 121.328125 c 128,-1,43
 369.211752275 131.65625 369.211752275 131.65625 378.601165537 144.953125 c 128,-1,44
 387.991680455 158.25 387.991680455 158.25 389.457984462 168.627929688 c 0,45,46
 392.001707942 186.638671875 392.001707942 186.638671875 392.001707942 194.063476562 c 0,47,48
 392.001707942 234.080078125 392.001707942 234.080078125 364.96707208 251.904296875 c 0,49,50
 352.268284486 260.276367188 352.268284486 260.276367188 340.885975695 263.154296875 c 0,51,52
 321.722671261 268 321.722671261 268 305.138343296 268 c 0,53,54
 241.448310572 268 241.448310572 268 191.09492421 225.2421875 c 0,55,56
 182.269558771 217.748046875 182.269558771 217.748046875 175.46132529 210.327148438 c 128,-1,57
 168.653091809 202.90625 168.653091809 202.90625 163.284722593 199.182617188 c 0,58,-1
 166.407917078 190.259765625 l 2,59,60
 170.72861153 181.083007812 170.72861153 181.083007812 174.075442163 171.520507812 c 0,61,39
 203.71439258 135.684570312 203.71439258 135.684570312 231.761450216 123.341796875 c 128,-1,40
EndSplineSet
EndChar

StartChar: seven
Encoding: 55 55 22
Width: 500
Flags: W
LayerCount: 2
Fore
SplineSet
222.040823849 -23 m 128,-1,1
 201.771236834 -23 201.771236834 -23 183.768806309 -8.05859375 c 0,2,3
 165.812754341 6.2587890625 165.812754341 6.2587890625 162.84884091 33.33203125 c 1,4,5
 174.627916086 137.502929688 174.627916086 137.502929688 220.348545765 251.583984375 c 1,6,-1
 159.623913268 251.392578125 l 2,7,8
 143.758132127 253.274414062 143.758132127 253.274414062 136.252355719 256.311523438 c 128,-1,9
 128.747657882 259.348632812 128.747657882 259.348632812 125.177587483 261.278320312 c 0,10,11
 118.251953125 265.19921875 118.251953125 265.19921875 113.208007812 270.736328125 c 0,12,13
 99 286.337890625 99 286.337890625 99 305.198242188 c 128,-1,14
 99 323.951171875 99 323.951171875 114.538085938 341.475585938 c 0,15,16
 130.982457238 359 130.982457238 359 164.032033426 359 c 2,17,-1
 208.762534819 359 l 1,18,-1
 270.751252666 359.522460938 l 1,19,20
 310.222641289 427.254882812 310.222641289 427.254882812 359.846619842 484 c 1,21,-1
 79.970703125 484 l 1,22,23
 39.419921875 489.529296875 39.419921875 489.529296875 26.68359375 521.071289062 c 0,24,25
 23 530.1953125 23 530.1953125 23 540 c 0,26,27
 23 560.845703125 23 560.845703125 38.5810546875 577.78125 c 128,-1,28
 54.1611328125 594.716796875 54.1611328125 594.716796875 83.3388671875 595.985351562 c 2,29,-1
 83.6689453125 596 l 1,30,-1
 488.909179688 596 l 1,31,32
 537 584.373046875 537 584.373046875 537 544.287109375 c 0,33,34
 537 533.19921875 537 533.19921875 530.138671875 516.42578125 c 1,35,-1
 501.114257812 483.181640625 l 2,36,37
 458.52734375 434.2421875 458.52734375 434.2421875 412.546683224 360 c 1,38,-1
 467.952148438 360 l 1,39,40
 493.694335938 353.48828125 493.694335938 353.48828125 505.818359375 338.595703125 c 128,-1,41
 518 323.633789062 518 323.633789062 518 306.168945312 c 0,42,43
 518 287.140625 518 287.140625 504.517578125 272.884765625 c 128,-1,44
 491.036132812 258.62890625 491.036132812 258.62890625 464.87890625 252.342773438 c 1,45,-1
 352.948078974 251.98046875 l 1,46,47
 298.525537517 136.002929688 298.525537517 136.002929688 285.198712787 20.013671875 c 1,48,49
 274.764615795 -2.04296875 274.764615795 -2.04296875 258.537513329 -12.314453125 c 0,50,0
 242.310410864 -23 242.310410864 -23 222.040823849 -23 c 128,-1,1
EndSplineSet
EndChar

StartChar: eight
Encoding: 56 56 23
Width: 500
Flags: W
LayerCount: 2
Fore
SplineSet
101.395507812 377.33203125 m 0,0,1
 70.2685546875 420.57421875 70.2685546875 420.57421875 70.2685546875 476.532226562 c 0,2,3
 70.2685546875 517.528320312 70.2685546875 517.528320312 91.759765625 545.046875 c 128,-1,4
 113.251953125 572.56640625 113.251953125 572.56640625 146.65089664 589.112304688 c 0,5,6
 183.048889223 605.659179688 183.048889223 605.659179688 225.371297549 612.172851562 c 0,7,8
 267.693705874 619 267.693705874 619 307.267054127 619 c 0,9,10
 340.448154546 619 340.448154546 619 375.250271302 612.149414062 c 0,11,12
 410.876559547 605.456054688 410.876559547 605.456054688 438.892578125 590.173828125 c 0,13,14
 465.950195312 574.891601562 465.950195312 574.891601562 483.609375 548.796875 c 128,-1,15
 501.268554688 522.701171875 501.268554688 522.701171875 501.268554688 485.080078125 c 0,16,17
 501.268554688 395.49609375 501.268554688 395.49609375 422.877929688 338.194335938 c 0,18,19
 405.509607279 326.6171875 405.509607279 326.6171875 384.658287223 315.0859375 c 1,20,21
 458.416015625 271.178710938 458.416015625 271.178710938 488.486328125 231.176757812 c 0,22,23
 497.380859375 219.344726562 497.380859375 219.344726562 504.138671875 206.703125 c 0,24,25
 518.268554688 180.2734375 518.268554688 180.2734375 518.268554688 149.467773438 c 128,-1,26
 518.268554688 118.662109375 518.268554688 118.662109375 501.711914062 90.748046875 c 128,-1,27
 485.155273438 62.833984375 485.155273438 62.833984375 460.015625 40.8837890625 c 128,-1,28
 434.875976562 18.9345703125 434.875976562 18.9345703125 402.728848303 4.212890625 c 0,29,30
 368.578198665 -10.6015625 368.578198665 -10.6015625 336.948158383 -14.791015625 c 0,31,32
 273.394043161 -22.00390625 273.394043161 -22.00390625 255.432788645 -22.00390625 c 0,33,34
 255.03600582 -22.00390625 255.03600582 -22.00390625 254.659991241 -22 c 0,35,36
 210.590864031 -22 210.590864031 -22 171.708333259 -10.77734375 c 0,37,38
 133.353515625 -0.048828125 133.353515625 -0.048828125 96.4091796875 26.12109375 c 0,39,40
 63.0283203125 49.212890625 63.0283203125 49.212890625 54.71484375 80.9384765625 c 0,41,42
 46.548828125 112.10546875 46.548828125 112.10546875 40 152.713867188 c 1,43,44
 47.701171875 184.204101562 47.701171875 184.204101562 55.203125 211.810546875 c 128,-1,45
 62.705078125 239.41796875 62.705078125 239.41796875 90.2314453125 265.848632812 c 0,46,47
 108.430664062 286.15625 108.430664062 286.15625 131.396484375 300.93359375 c 0,48,49
 145.262703283 309.384765625 145.262703283 309.384765625 160.568901372 317.653320312 c 1,50,51
 125.283203125 344.146484375 125.283203125 344.146484375 101.395507812 377.33203125 c 0,0,1
162.911341028 127.84375 m 0,52,53
 181.686929442 101.395507812 181.686929442 101.395507812 210.797453436 91.5302734375 c 0,54,55
 217.838982257 89.14453125 217.838982257 89.14453125 228.008864926 87.072265625 c 128,-1,56
 238.177654529 85 238.177654529 85 271.859379009 85 c 0,57,58
 284.249277983 85 284.249277983 85 299.016594713 87.76171875 c 128,-1,59
 313.783911444 90.5224609375 313.783911444 90.5224609375 320.647270566 92.5 c 0,60,61
 383.909537263 110.721679688 383.909537263 110.721679688 398.685598519 164.3515625 c 1,62,63
 395.447938107 177.580078125 395.447938107 177.580078125 383.099575628 190.083007812 c 0,64,65
 353.505916623 220.046875 353.505916623 220.046875 302.273930306 248.787109375 c 0,66,67
 283.580321815 259.274414062 283.580321815 259.274414062 267.265224145 268.244140625 c 1,68,69
 232.511202277 247.72265625 232.511202277 247.72265625 208.982964482 230.643554688 c 128,-1,70
 185.454726686 213.565429688 185.454726686 213.565429688 165.120426676 184.1484375 c 0,71,72
 163.218492471 177.291992188 163.218492471 177.291992188 161.367932351 170.266601562 c 128,-1,73
 159.518465296 163.241210938 159.518465296 163.241210938 157.720372327 156.733398438 c 0,74,75
 159.535954347 148.70703125 159.535954347 148.70703125 160.456315611 141.309570312 c 128,-1,76
 161.376676876 133.912109375 161.376676876 133.912109375 162.911341028 127.84375 c 0,52,53
345.016075835 507.03515625 m 128,-1,78
 325.103699161 512 325.103699161 512 304.556251352 512 c 0,79,80
 261.901551074 512 261.901551074 512 228.18812769 500.483398438 c 0,81,82
 211.821655936 494.892578125 211.821655936 494.892578125 201.107426581 486.79296875 c 128,-1,83
 190.393197225 478.693359375 190.393197225 478.693359375 187.761095176 469.442382812 c 0,84,85
 188.677084178 463.631835938 188.677084178 463.631835938 189.573397999 457.62890625 c 128,-1,86
 190.468618754 451.626953125 190.468618754 451.626953125 191.344164328 446.073242188 c 0,87,88
 208.65285866 420.365234375 208.65285866 420.365234375 230.213578312 401.530273438 c 128,-1,89
 251.77539103 382.694335938 251.77539103 382.694335938 276.78254663 366.012695312 c 1,90,91
 305.983795072 382.219726562 305.983795072 382.219726562 331.654441512 401.259765625 c 128,-1,92
 357.325087952 420.299804688 357.325087952 420.299804688 377.771973722 448.90625 c 0,93,94
 379.315382399 454.8984375 379.315382399 454.8984375 379.885962661 458.973632812 c 128,-1,95
 380.455449856 463.048828125 380.455449856 463.048828125 380.833650566 465.16015625 c 0,96,97
 381.594424248 469.418945312 381.594424248 469.418945312 382.660163242 473.448242188 c 0,98,99
 382.615347551 473.586914062 382.615347551 473.586914062 379.785400622 487.326171875 c 1,100,77
 364.929545576 502.0703125 364.929545576 502.0703125 345.016075835 507.03515625 c 128,-1,78
EndSplineSet
EndChar

StartChar: nine
Encoding: 57 57 24
Width: 500
Flags: W
LayerCount: 2
Fore
SplineSet
355.985879265 44.296875 m 0,0,1
 300.446721739 2.93359375 300.446721739 2.93359375 227.326059509 -27.1806640625 c 1,2,3
 193.32602475 -34.7607421875 193.32602475 -34.7607421875 168.91341283 -21.6484375 c 0,4,5
 153.047898028 -13.662109375 153.047898028 -13.662109375 145.521415198 0.5615234375 c 0,6,7
 141 9.42578125 141 9.42578125 141 20.779296875 c 128,-1,8
 141 32.1318359375 141 32.1318359375 148.380668315 43.490234375 c 128,-1,9
 155.931242898 54.8486328125 155.931242898 54.8486328125 171.058673978 64.962890625 c 1,10,11
 244.091729831 94.5556640625 244.091729831 94.5556640625 296.401497299 139.624023438 c 0,12,13
 334.642775766 172.881835938 334.642775766 172.881835938 359.806612365 212.875976562 c 1,14,15
 338.765750864 207.450195312 338.765750864 207.450195312 317.651519024 204.725585938 c 0,16,17
 285.769368419 201.999023438 285.769368419 201.999023438 280.666296982 201.999023438 c 128,-1,18
 275.564320625 201.999023438 275.564320625 201.999023438 275.393488191 202 c 0,19,20
 214.607803786 202 214.607803786 202 168.737104998 219.649414062 c 0,21,22
 125.153320312 237.224609375 125.153320312 237.224609375 98.0888671875 264.893554688 c 128,-1,23
 71.0537109375 292.532226562 71.0537109375 292.532226562 57.494140625 326.533203125 c 128,-1,24
 44 360.37109375 44 360.37109375 44 396.84375 c 128,-1,25
 44 433.31640625 44 433.31640625 59.5283203125 471.53125 c 128,-1,26
 75.12109375 509.905273438 75.12109375 509.905273438 105.712890625 540.4453125 c 128,-1,27
 136.245117188 570.92578125 136.245117188 570.92578125 185.016559929 589.911132812 c 0,28,29
 234.803263752 609 234.803263752 609 298.942082221 609 c 0,30,31
 329.452097952 609 329.452097952 609 355.394536223 601.366210938 c 0,32,33
 407.777674032 589.14453125 407.777674032 589.14453125 438.859375 566.387695312 c 0,34,35
 495.797851562 522.912109375 495.797851562 522.912109375 510.254882812 447.555664062 c 0,36,37
 516.966796875 412.567382812 516.966796875 412.567382812 517.995117188 372.3046875 c 2,38,-1
 517.995117188 371.950195312 l 2,39,40
 517.995117188 275.458984375 517.995117188 275.458984375 477.663085938 190.541992188 c 0,41,42
 438.002929688 107.04296875 438.002929688 107.04296875 355.985879265 44.296875 c 0,0,1
402.015364611 350.58984375 m 0,43,44
 402.107351306 352.258789062 402.107351306 352.258789062 402.107351306 354.137695312 c 2,45,-1
 402.107351306 371.270507812 l 2,46,47
 402.107351306 447.506835938 402.107351306 447.506835938 365.119939105 478.053710938 c 0,48,49
 338.545639843 500 338.545639843 500 293.335274118 500 c 0,50,51
 266.365651082 500 266.365651082 500 241.813964039 491.723632812 c 0,52,53
 190.340837467 474.372070312 190.340837467 474.372070312 168.46443015 434.953125 c 0,54,55
 157.650518039 415.466796875 157.650518039 415.466796875 157.650518039 393.497070312 c 0,56,57
 157.650518039 364.659179688 157.650518039 364.659179688 179.859829587 344.788085938 c 0,58,59
 219.703209665 312 219.703209665 312 274.27212657 312 c 0,60,61
 309.083615392 312 309.083615392 312 342.479166153 323.283203125 c 128,-1,62
 375.873621833 334.565429688 375.873621833 334.565429688 402.015364611 350.58984375 c 0,43,44
EndSplineSet
EndChar

StartChar: colon
Encoding: 58 58 25
Width: 500
Flags: W
LayerCount: 2
Fore
SplineSet
187.033308569 139.744240935 m 128,-1,1
 216.066617138 167 216.066617138 167 251.544747551 167 c 128,-1,2
 287.022877964 167 287.022877964 167 315.511438982 139.698462358 c 128,-1,3
 344 112.396924716 344 112.396924716 344 75 c 0,4,5
 343.146191218 36.3110255227 343.146191218 36.3110255227 315.254458004 9.55652429112 c 0,6,7
 286.92749876 -17 286.92749876 -17 252 -17 c 0,8,9
 216.161465771 -17 216.161465771 -17 187.359406568 9.45087069651 c 0,10,11
 158 36.4135910143 158 36.4135910143 158 74.4510364422 c 128,-1,0
 158 112.48848187 158 112.48848187 187.033308569 139.744240935 c 128,-1,1
250 472 m 128,-1,13
 286.026738196 472 286.026738196 472 315.013369098 444.19649689 c 128,-1,14
 344 416.39299378 344 416.39299378 344 377.353071664 c 128,-1,15
 344 338.313149549 344 338.313149549 314.871087183 312.156574775 c 128,-1,16
 285.742174366 286 285.742174366 286 250 286 c 128,-1,17
 214.257825634 286 214.257825634 286 185.484489185 311.837281709 c 0,18,19
 156 338.313149549 156 338.313149549 156 377.353071664 c 128,-1,20
 156 416.39299378 156 416.39299378 184.986630902 444.19649689 c 128,-1,12
 213.973261804 472 213.973261804 472 250 472 c 128,-1,13
EndSplineSet
EndChar

StartChar: semicolon
Encoding: 59 59 26
Width: 500
Flags: W
LayerCount: 2
Fore
SplineSet
234.331054688 120.939453125 m 0,0,1
 204.614257812 80.048828125 204.614257812 80.048828125 177.87109375 38.08203125 c 128,-1,2
 151.125976562 -3.884765625 151.125976562 -3.884765625 94.666015625 -91.046875 c 0,3,4
 93.1796875 -95.3515625 93.1796875 -95.3515625 93.1796875 -99.1171875 c 128,-1,5
 93.1796875 -102.883789062 93.1796875 -102.883789062 93.1796875 -106.111328125 c 0,6,7
 93.1796875 -127.633789062 93.1796875 -127.633789062 113.98046875 -138.932617188 c 128,-1,8
 134.782226562 -150.231445312 134.782226562 -150.231445312 157.069335938 -152.3828125 c 256,9,10
 179.356445312 -154.53515625 179.356445312 -154.53515625 200.900390625 -145.926757812 c 128,-1,11
 222.444335938 -137.318359375 222.444335938 -137.318359375 228.387695312 -126.557617188 c 0,12,13
 258.103515625 -85.666015625 258.103515625 -85.666015625 299.706054688 -22.177734375 c 128,-1,14
 341.30859375 41.3095703125 341.30859375 41.3095703125 369.5390625 82.201171875 c 0,15,16
 376.967773438 96.1904296875 376.967773438 96.1904296875 376.967773438 105.875 c 0,17,18
 376.967773438 125.244140625 376.967773438 125.244140625 347.995117188 139.233398438 c 128,-1,19
 319.021484375 153.22265625 319.021484375 153.22265625 292.27734375 148.916992188 c 0,20,21
 255.1328125 146.765625 255.1328125 146.765625 234.331054688 120.939453125 c 0,0,1
304.668945312 410 m 4,22,23
 319 410 319 410 334.875976562 403.061523438 c 4,24,25
 351 396 351 396 364.880859375 382.825195312 c 4,26,27
 394 355 394 355 394 317.451171875 c 4,28,29
 394 279 394 279 364.918945312 252.70703125 c 4,30,31
 336 226 336 226 302 226 c 4,32,33
 267 226 267 226 239.513671875 252.778320312 c 4,34,35
 212 280 212 280 212 318 c 4,36,37
 212 355 212 355 239.395507812 382.604492188 c 4,38,39
 267 410 267 410 304.668945312 410 c 4,22,23
EndSplineSet
EndChar

StartChar: less
Encoding: 60 60 27
Width: 500
Flags: W
LayerCount: 2
Fore
SplineSet
58.1923828125 256.532226562 m 5,0,1
 85.189453125 237.09375 85.189453125 237.09375 357.478515625 102.45703125 c 4,2,3
 371.837890625 95.8291015625 371.837890625 95.8291015625 408.970703125 86 c 5,4,-1
 410.93359375 86 l 6,5,6
 433.939453125 86 433.939453125 86 449.436523438 100.79296875 c 132,-1,7
 464.93359375 115.5859375 464.93359375 115.5859375 464.93359375 136.9921875 c 132,-1,8
 464.93359375 158.399414062 464.93359375 158.399414062 451.676757812 176.973632812 c 4,9,10
 447.139648438 184.958984375 447.139648438 184.958984375 424.416992188 196.584960938 c 4,11,12
 399.96484375 209.095703125 399.96484375 209.095703125 349.100585938 229.890625 c 4,13,14
 272.209960938 261.327148438 272.209960938 261.327148438 197.123046875 302.250976562 c 5,15,16
 424.947265625 415.8046875 424.947265625 415.8046875 447.893554688 438.750976562 c 4,17,18
 465 458.301757812 465 458.301757812 465 479.737304688 c 4,19,20
 465 504.142578125 465 504.142578125 449.538085938 519.604492188 c 4,21,22
 433.856445312 535.286132812 433.856445312 535.286132812 408.913085938 535.286132812 c 4,23,24
 398.499023438 535.286132812 398.499023438 535.286132812 365.186523438 523.528320312 c 5,25,26
 352.087890625 514.795898438 352.087890625 514.795898438 329.401367188 501.973632812 c 132,-1,27
 306.71484375 489.150390625 306.71484375 489.150390625 209.471679688 437.01953125 c 4,28,29
 76.0087890625 365.47265625 76.0087890625 365.47265625 59.9873046875 348.012695312 c 4,30,31
 58.3515625 346.23046875 58.3515625 346.23046875 56.9443359375 343.763671875 c 4,32,33
 36.93359375 325.283203125 36.93359375 325.283203125 36.93359375 301.537109375 c 132,-1,34
 36.93359375 277.791015625 36.93359375 277.791015625 58.1923828125 256.532226562 c 5,0,1
EndSplineSet
EndChar

StartChar: equal
Encoding: 61 61 28
Width: 500
Flags: W
LayerCount: 2
Fore
SplineSet
398 331 m 2,0,-1
 100 331 l 2,1,2
 70.4600943097 331 70.4600943097 331 50.1946514239 344.510295257 c 0,3,4
 27 359.973396206 27 359.973396206 27 393 c 2,5,-1
 27 394.006799399 l 1,6,7
 29.6911453456 414.19038949 29.6911453456 414.19038949 39.574314549 423.861058246 c 0,8,9
 55 446 55 446 100 446 c 2,10,-1
 398 446 l 2,11,12
 442.424070862 446 442.424070862 446 457.729392931 421.934107482 c 0,13,14
 463.813779994 412.199088181 463.813779994 412.199088181 466.884954432 405.374295898 c 1,15,-1
 470 393 l 1,16,17
 470 360.111005704 470 360.111005704 447.483297394 344.630772662 c 0,18,19
 427.656718976 331 427.656718976 331 398 331 c 2,0,-1
465.210526316 227.279778393 m 0,20,21
 465.210526316 192.097267025 465.210526316 192.097267025 444.064445285 176.548678032 c 128,-1,22
 422.918364254 161.000089039 422.918364254 161.000089039 392.052183443 161.000089039 c 2,23,-1
 99 160 l 2,24,25
 66.9149529239 160 66.9149529239 160 46.9574764619 175.300731954 c 128,-1,26
 27 190.601463908 27 190.601463908 27 217.714561466 c 128,-1,27
 27 244.827659023 27 244.827659023 49.9374790598 260.814386852 c 0,28,29
 70.2906223462 274.999910961 70.2906223462 274.999910961 98.9478165573 274.999910961 c 2,30,-1
 392 276 l 2,31,32
 451.81443454 276 451.81443454 276 464.234128444 238.74091829 c 2,33,-1
 464.853174241 236.883780898 l 1,34,35
 465.210526316 230.987471661 465.210526316 230.987471661 465.210526316 227.279778393 c 0,20,21
EndSplineSet
EndChar

StartChar: greater
Encoding: 62 62 29
Width: 500
Flags: W
LayerCount: 2
Fore
SplineSet
443.740931596 256.531887846 m 1,0,1
 416.743798245 237.093951834 416.743798245 237.093951834 144.454739052 102.456557251 c 0,2,3
 130.095537375 95.8292334 130.095537375 95.8292334 92.9628778644 86 c 1,4,-1
 91 86 l 2,5,6
 67.9943487528 86 67.9943487528 86 52.4971743764 100.792757359 c 128,-1,7
 37 115.585514719 37 115.585514719 37 136.992527439 c 128,-1,8
 37 158.39954016 37 158.39954016 50.2567302103 176.97320814 c 0,9,10
 54.7935794095 184.95938293 54.7935794095 184.95938293 77.5161547838 196.58488661 c 0,11,12
 101.969235681 209.095765208 101.969235681 209.095765208 152.832918904 229.890862217 c 0,13,14
 229.723855661 261.326935808 229.723855661 261.326935808 304.810648137 302.250857071 c 1,15,16
 76.9865053498 415.8044509 76.9865053498 415.8044509 54.039714269 438.751241981 c 0,17,18
 36.9333333333 458.301391622 36.9333333333 458.301391622 36.9333333333 479.737777778 c 0,19,20
 36.9333333333 504.142377071 36.9333333333 504.142377071 52.395478125 519.604521875 c 0,21,22
 68.0766618764 535.285705626 68.0766618764 535.285705626 93.0204081633 535.285714286 c 0,23,24
 103.434970267 535.285714286 103.434970267 535.285714286 136.747243755 523.52844129 c 1,25,26
 149.845470462 514.796290152 149.845470462 514.796290152 172.532270949 501.973315964 c 128,-1,27
 195.219071435 489.150341776 195.219071435 489.150341776 292.462392338 437.019901704 c 0,28,29
 425.925151492 365.47285556 425.925151492 365.47285556 441.945951765 348.012686512 c 0,30,31
 443.581558421 346.230130821 443.581558421 346.230130821 444.989026817 343.763771997 c 0,32,33
 465 325.282720684 465 325.282720684 465 301.536838467 c 128,-1,34
 465 277.79095625 465 277.79095625 443.740931596 256.531887846 c 1,0,1
EndSplineSet
EndChar

StartChar: question
Encoding: 63 63 30
Width: 500
Flags: W
LayerCount: 2
Fore
SplineSet
287.25 182.834425263 m 128,-1,1
 289.5 177.584425263 289.5 177.584425263 289.5 171.25 c 0,2,3
 289.5 152.673341564 289.5 152.673341564 268.268751428 140.878203468 c 0,4,5
 264.741712439 138.918737363 264.741712439 138.918737363 261.275359363 137.556984805 c 1,6,7
 286.281760857 134.843681779 286.281760857 134.843681779 307.180434643 115.512408527 c 0,8,9
 332 92.5543105718 332 92.5543105718 332 60 c 0,10,11
 332 26.3233090313 332 26.3233090313 307.028190378 3.84868037166 c 0,12,13
 282.751878854 -18 282.751878854 -18 253 -18 c 128,-1,14
 223.353308116 -18 223.353308116 -18 198.176654058 4.10633039255 c 128,-1,15
 173 26.2126607851 173 26.2126607851 173 59.4386219093 c 128,-1,16
 173 92.6645830336 173 92.6645830336 198.118271562 115.332291517 c 0,17,18
 214.722064268 130.316202007 214.722064268 130.316202007 233.355586376 135.395380741 c 1,19,20
 221.327582226 137.215220556 221.327582226 137.215220556 209.312759644 142.555141761 c 0,21,22
 184.649086298 156.257182509 184.649086298 156.257182509 179.791186088 180.546683559 c 0,23,24
 178.058823529 189.208496353 178.058823529 189.208496353 178.058823529 201.843016904 c 128,-1,25
 178.058823529 214.477537456 178.058823529 214.477537456 179.418300786 224.048448943 c 128,-1,26
 180.777778042 233.61936043 180.777778042 233.61936043 180.77777791 235.471046955 c 128,-1,27
 180.777777778 237.322733479 180.777777778 237.322733479 181.360084255 240.247721758 c 0,28,29
 183.409667459 250.542999386 183.409667459 250.542999386 197.598572705 279.807616455 c 1,30,31
 212.576531542 294.785575292 212.576531542 294.785575292 226.864312342 313.816084345 c 0,32,33
 251.535659706 348.744701406 251.535659706 348.744701406 272.895478125 370.104521875 c 0,34,35
 292.001459946 389.210503696 292.001459946 389.210503696 305.514989239 412.509692132 c 0,36,37
 326.137571592 448.065868603 326.137571592 448.065868603 328.800613238 461.393166796 c 0,38,39
 329.517857143 464.982642538 329.517857143 464.982642538 329.517857143 469.992883744 c 128,-1,40
 329.517857143 475.003124951 329.517857143 475.003124951 327.265871556 481.75908171 c 0,41,42
 322.497533778 496.064095044 322.497533778 496.064095044 299.037855972 513.506280136 c 0,43,44
 292.99298958 515.5212356 292.99298958 515.5212356 289.864664647 516.318115285 c 2,45,-1
 262.553659988 518.816901408 l 2,46,47
 222.765838442 518.816901408 222.765838442 518.816901408 197.479884337 493.965192826 c 0,48,49
 187.415180531 484.073334092 187.415180531 484.073334092 183.257799663 474.769578863 c 0,50,51
 176.327550187 459.2604526 176.327550187 459.2604526 174.509509781 438.807498039 c 1,52,-1
 171.291530342 435.12980725 l 2,53,54
 151.293573998 412.275 151.293573998 412.275 119.54125 412.275 c 0,55,56
 85.8305427779 412.275 85.8305427779 412.275 70.5240789504 436.961843191 c 0,57,58
 61.7096774194 451.178043018 61.7096774194 451.178043018 61.7096774194 467.079084287 c 0,59,60
 61.7096774194 483.851018095 61.7096774194 483.851018095 72.2975985598 501.359131542 c 1,61,62
 84.304336609 537.344384042 84.304336609 537.344384042 108.309627059 563.531973582 c 128,-1,63
 132.314917509 589.719563122 132.314917509 589.719563122 170.846059656 604.703896179 c 0,64,65
 226.709510297 626.428571429 226.709510297 626.428571429 284.897959184 626.428571429 c 0,66,67
 306.229951767 626.428571429 306.229951767 626.428571429 323.263454132 622.643348681 c 0,68,69
 353.837178099 615.849187799 353.837178099 615.849187799 385.153219653 589.477784385 c 128,-1,70
 416.581110665 563.012191954 416.581110665 563.012191954 431.959155426 521.507346471 c 0,71,72
 442 497 442 497 442.307692308 471.284023669 c 0,73,74
 440.950054377 434.70396864 440.950054377 434.70396864 428.987271085 409.069433015 c 128,-1,75
 417.024487793 383.43489739 417.024487793 383.43489739 400.57312416 360.300167281 c 0,76,77
 349.038141093 287.829097343 349.038141093 287.829097343 328.104521875 266.895478125 c 0,78,79
 316.661723881 255.452680131 316.661723881 255.452680131 303.955886136 236.393923514 c 1,80,-1
 301.704733322 234.785957218 l 2,81,82
 290.253370497 226.606412343 290.253370497 226.606412343 286.076786163 204.431558589 c 0,83,84
 285 198.714548282 285 198.714548282 285 193.399486772 c 128,-1,0
 285 188.084425263 285 188.084425263 287.25 182.834425263 c 128,-1,1
EndSplineSet
EndChar

StartChar: at
Encoding: 64 64 31
Width: 500
Flags: W
LayerCount: 2
Fore
SplineSet
361.024234623 295.423091785 m 1,0,1
 360.333333333 275.732405017 360.333333333 275.732405017 360.333333333 265.907563679 c 128,-1,2
 360.333333333 256.08272234 360.333333333 256.08272234 360.492102777 250.737016363 c 1,3,4
 376.84151049 284.946288031 376.84151049 284.946288031 377.97417099 297.40555353 c 128,-1,5
 379.10683149 309.864819029 379.10683149 309.864819029 383.085237094 330.872725152 c 0,6,7
 383.426161438 339.670007273 383.426161438 339.670007273 383.428571429 342.714285714 c 0,8,9
 383.428571429 380.339637682 383.428571429 380.339637682 368.881882562 419.924382399 c 0,10,11
 351.953408882 466.947920401 351.953408882 466.947920401 333.149931975 486.646800969 c 0,12,13
 332.104067058 487.86620204 l 2,14,15
 323.424549365 499.149575041 323.424549365 499.149575041 315.907475954 505.627232955 c 128,-1,16
 308.390402543 512.104890869 308.390402543 512.104890869 304.985019405 513.171570925 c 128,-1,17
 301.579636268 514.238250981 301.579636268 514.238250981 299.507190162 514.75968483 c 128,-1,18
 297.434744057 515.281118678 297.434744057 515.281118678 295.35485102 515.72754975 c 128,-1,19
 293.274957983 516.173980822 293.274957983 516.173980822 291.18766211 516.545564506 c 128,-1,20
 289.100366238 516.91714819 289.100366238 516.91714819 287.003899408 517.214080733 c 128,-1,21
 284.907432578 517.511013275 284.907432578 517.511013275 282.802709306 517.733435286 c 128,-1,22
 280.697986034 517.955857298 280.697986034 517.955857298 278.582367778 518.103979802 c 0,23,24
 263.295841872 519.174247793 263.295841872 519.174247793 247.408484705 516.369727928 c 0,25,26
 220.416281347 508.456713345 220.416281347 508.456713345 193.569818393 474.451193603 c 1,27,28
 159.899395809 435.519767491 159.899395809 435.519767491 138.23994404 367.27252672 c 0,29,30
 125 326 125 326 125 276 c 2,31,-1
 125 275.727433173 l 2,32,33
 124.939928308 272.363418412 124.939928308 272.363418412 124.9375 269 c 0,34,35
 124.9375 218.703397498 124.9375 218.703397498 138.373968014 168.323380365 c 0,36,37
 150.092275593 133.49928285 150.092275593 133.49928285 176.816215878 110.33853474 c 0,38,39
 177.604521875 109.604521875 l 2,40,41
 194.386297506 92.8227462445 194.386297506 92.8227462445 226.648845744 84.798362029 c 0,42,43
 236.022587894 83.7724862088 236.022587894 83.7724862088 244.49704142 83.7692307692 c 0,44,45
 263.312509348 83.7692307692 263.312509348 83.7692307692 277.959852229 89.130835883 c 0,46,47
 306.017572546 99.151450282 306.017572546 99.151450282 334.485991305 107.583257939 c 128,-1,48
 362.954410063 116.015065595 362.954410063 116.015065595 368.517145591 116.015065595 c 0,49,50
 368.777722246 116.015065595 368.777722246 116.015065595 369 116 c 0,51,52
 403.693946309 116 403.693946309 116 417.806983656 84.0924046368 c 0,53,54
 423.08988764 72.1485006741 423.08988764 72.1485006741 423.08988764 61.860876152 c 0,55,56
 423.08988764 28.7101389048 423.08988764 28.7101389048 372.487814692 10.8505837464 c 0,57,58
 329.452347043 -4.33840483534 329.452347043 -4.33840483534 302.706895388 -11.5391033579 c 0,59,60
 270.777169923 -19.2022374695 270.777169923 -19.2022374695 240.24 -19.2 c 0,61,62
 219.403628079 -19.2 219.403628079 -19.2 196.045964784 -15.8747350678 c 0,63,64
 158.131296182 -11.3821777145 158.131296182 -11.3821777145 141.333712841 5.42166801341 c 1,65,66
 104.369183459 30.287410425 104.369183459 30.287410425 85.1693006008 55.7778618931 c 0,67,68
 57.4903551699 89.9721700217 57.4903551699 89.9721700217 36.684598189 155.510311926 c 0,69,70
 22.5263157895 200.639837075 22.5263157895 200.639837075 22.5263157895 259.368421053 c 0,71,72
 22.5263157895 350.899694084 22.5263157895 350.899694084 54.1498319226 424.767297382 c 0,73,74
 80.8723797659 490.495325349 80.8723797659 490.495325349 120.081273968 536.142677987 c 1,75,76
 156.846694271 589.694887474 156.846694271 589.694887474 224.841004953 613.438932474 c 0,77,78
 258.406786491 621.111111111 258.406786491 621.111111111 285.296296296 621.111111111 c 0,79,80
 320.321718447 621.111111111 320.321718447 621.111111111 345.693630675 608.425154997 c 0,81,82
 389.567134767 586.488402951 389.567134767 586.488402951 419.194238095 537.815304627 c 128,-1,83
 448.821341423 489.142206302 448.821341423 489.142206302 457.480342617 449.030435261 c 1,84,85
 474.933714368 398.242822113 474.933714368 398.242822113 477.018118134 335.71070913 c 1,86,87
 474.899521708 306.050359164 474.899521708 306.050359164 467.565149508 267.282963252 c 1,88,89
 456.823701271 233.984473715 456.823701271 233.984473715 442.097055958 207.686892799 c 0,90,91
 425.809340731 178.601687037 425.809340731 178.601687037 389.936498166 160.932973535 c 0,92,93
 337.231343675 134.973718338 337.231343675 134.973718338 311.90372933 127.988990729 c 0,94,95
 287.28293112 121.199185472 287.28293112 121.199185472 276.285067725 120.099592736 c 128,-1,96
 265.287204329 119 265.287204329 119 258.812871359 119 c 128,-1,97
 252.338538388 119 252.338538388 119 248.526236498 119.128243072 c 128,-1,98
 244.713934607 119.256486143 244.713934607 119.256486143 240.782085336 119.510017289 c 128,-1,99
 236.850236065 119.763548435 236.850236065 119.763548435 232.758358521 120.143657222 c 0,100,101
 224.634011255 120.898356196 224.634011255 120.898356196 215.295626716 122.232411131 c 0,102,103
 172.613092552 131.717418723 172.613092552 131.717418723 148.765871556 203.25908171 c 0,104,105
 138.909090909 232.829423652 138.909090909 232.829423652 138.909090909 270.809917355 c 0,106,107
 138.909090909 298.27387994 138.909090909 298.27387994 142.187491312 317.621945192 c 0,108,109
 145.710565946 338.413999102 145.710565946 338.413999102 152.127833895 354.712596131 c 0,110,111
 180.83834358 424.280369597 180.83834358 424.280369597 217.122371822 435.350073129 c 0,112,113
 248.404135482 444.893662042 248.404135482 444.893662042 271.983543157 446.016490979 c 0,114,115
 316.656895328 443.985884062 316.656895328 443.985884062 331.752000068 433.637944235 c 0,116,117
 343.043890893 425.897169408 343.043890893 425.897169408 347.316513496 412.664761308 c 128,-1,118
 351.589136099 399.432353208 351.589136099 399.432353208 352.765140023 379.440286504 c 128,-1,119
 353.941143946 359.4482198 353.941143946 359.4482198 355.250881705 349.625186614 c 128,-1,120
 356.560619463 339.802153427 356.560619463 339.802153427 357.354507058 332.659002952 c 0,121,122
 358.918243024 318.588999378 358.918243024 318.588999378 361.024234623 295.423091785 c 1,0,1
223 257 m 0,123,124
 223 248.443303621 223 248.443303621 228.376971881 232.312387979 c 128,-1,125
 233.753943761 216.181472338 233.753943761 216.181472338 237.328367718 210.933185254 c 1,126,127
 243.728225951 210.080947048 243.728225951 210.080947048 253.289686897 210.006585861 c 0,128,129
 268.464788527 213.644939175 268.464788527 213.644939175 272.426890285 216.644815315 c 0,130,131
 274 218.20904375 274 218.20904375 274 226.601122176 c 128,-1,132
 274 234.993200601 274 234.993200601 271.75 251.868200601 c 128,-1,133
 269.5 268.743200601 269.5 268.743200601 269.5 279.152891834 c 128,-1,134
 269.5 289.562583067 269.5 289.562583067 270.996453678 298.322240952 c 0,135,136
 270.902607682 315.834353057 270.902607682 315.834353057 267.116408998 346.123942529 c 0,137,138
 266.678726024 349.625406317 266.678726024 349.625406317 264.701623029 351.906679004 c 128,-1,139
 262.724520035 354.18795169 262.724520035 354.18795169 261.500108964 355.468054819 c 0,140,141
 250.704426526 353.075139754 250.704426526 353.075139754 239.713653105 339.860195135 c 1,142,143
 231.219450294 322.31232852 231.219450294 322.31232852 227.109725147 299.48051528 c 128,-1,144
 223 276.648702041 223 276.648702041 223 257 c 0,123,124
EndSplineSet
EndChar

StartChar: A
Encoding: 65 65 32
Width: 500
Flags: W
LayerCount: 2
Fore
SplineSet
262.870024981 622.887695312 m 128,-1,1
 267.208659913 622.887695312 267.208659913 622.887695312 267.576746913 622.8828125 c 0,2,3
 286.877356073 622.8828125 286.877356073 622.8828125 306.041838385 612 c 1,4,-1
 308.669631078 612 l 1,5,-1
 311.438995695 608.579101562 l 2,6,7
 314.099458832 606.694335938 314.099458832 606.694335938 316.429950487 604.604492188 c 1,8,-1
 313.891457006 605.547851562 l 1,9,10
 365.372453274 544.930664062 365.372453274 544.930664062 389.104263624 486.557617188 c 128,-1,11
 412.836073974 428.185546875 412.836073974 428.185546875 429.040039062 382.591796875 c 0,12,13
 435.291015625 369.452148438 435.291015625 369.452148438 445.318359375 340.333007812 c 128,-1,14
 455.346679688 311.213867188 455.346679688 311.213867188 461.424804688 290.958007812 c 2,15,-1
 485.366210938 211.177734375 l 1,16,17
 513.5078125 126.620117188 513.5078125 126.620117188 523.046875 48.517578125 c 1,18,19
 521.740234375 24.8828125 521.740234375 24.8828125 509.62890625 9.5087890625 c 0,20,21
 494.12890625 -11.158203125 494.12890625 -11.158203125 469.158203125 -11.158203125 c 0,22,23
 455.795898438 -11.158203125 455.795898438 -11.158203125 442.904296875 -4.216796875 c 0,24,25
 425.875 4.953125 425.875 4.953125 412.177220024 28.39453125 c 1,26,27
 400.242706918 112.225585938 400.242706918 112.225585938 368.359620849 200.872070312 c 1,28,-1
 191.942491571 199.022460938 l 1,29,30
 166.505284056 119.990234375 166.505284056 119.990234375 145.600556107 34.6953125 c 1,31,32
 133.85546875 6.9775390625 133.85546875 6.9775390625 113.330078125 -2.6005859375 c 0,33,34
 100.786132812 -8.4541015625 100.786132812 -8.4541015625 91.0048828125 -8.4541015625 c 0,35,36
 59.87109375 -8.4541015625 59.87109375 -8.4541015625 43.6689453125 4.1220703125 c 0,37,38
 35.7197265625 10.2919921875 35.7197265625 10.2919921875 35.7197265625 18.5 c 0,39,40
 35.7197265625 27.0205078125 35.7197265625 27.0205078125 37.373046875 35.10546875 c 0,41,42
 70.501953125 180.731445312 70.501953125 180.731445312 117.669921875 332.333984375 c 2,43,-1
 205.921085442 593.141601562 l 1,44,-1
 207.899825319 595.359375 l 2,45,46
 222.378276981 611.588867188 222.378276981 611.588867188 250.576136993 620.33984375 c 0,47,0
 258.531390049 622.887695312 258.531390049 622.887695312 262.870024981 622.887695312 c 128,-1,1
220.041251237 294.5703125 m 1,48,-1
 335.311288953 297.461914062 l 1,49,50
 329.630987797 317.291015625 329.630987797 317.291015625 324.090080535 342.13671875 c 0,51,52
 319.043585988 364.76171875 319.043585988 364.76171875 307.823466585 394.421875 c 0,53,54
 286.565897843 450.615234375 286.565897843 450.615234375 276.835550675 471.69140625 c 1,55,56
 267.720496865 441.16015625 267.720496865 441.16015625 220.041251237 294.5703125 c 1,48,-1
EndSplineSet
EndChar

StartChar: B
Encoding: 66 66 33
Width: 500
Flags: W
LayerCount: 2
Fore
SplineSet
139.5 -6 m 2,0,1
 125.45703125 -6 125.45703125 -6 110.91796875 -4.9619140625 c 0,2,3
 82.740234375 -2.6748046875 82.740234375 -2.6748046875 68.3701171875 14.4326171875 c 0,4,5
 54 30.720703125 54 30.720703125 54 48.8486328125 c 0,6,7
 54 57.751953125 54 57.751953125 58.005859375 68.10546875 c 0,8,9
 59.0087890625 537.107421875 59.0087890625 537.107421875 61.3037109375 546.323242188 c 0,10,11
 69.41796875 590.092773438 69.41796875 590.092773438 138.396484375 611.279296875 c 0,12,13
 173.952780895 621.928710938 173.952780895 621.928710938 251.197954707 623.993164062 c 0,14,-1
 251.721677074 624 l 2,15,16
 306.107975057 624 306.107975057 624 350.445004112 607.9296875 c 0,17,18
 394.780925931 592.631835938 394.780925931 592.631835938 423.66015625 568.520507812 c 0,19,20
 465.201171875 532.077148438 465.201171875 532.077148438 477.23046875 485.001953125 c 0,21,22
 481 470.249023438 481 470.249023438 481 455.686523438 c 0,23,24
 481 400.23828125 481 400.23828125 441.426757812 352.762695312 c 0,25,26
 431.122070312 340.400390625 431.122070312 340.400390625 418.521484375 329.47265625 c 1,27,28
 457.611328125 306.528320312 457.611328125 306.528320312 478.73828125 274.264648438 c 0,29,30
 505 234.161132812 505 234.161132812 505 190.094726562 c 0,31,32
 505 160.828125 505 160.828125 494.134765625 133.419921875 c 128,-1,33
 483.26953125 106.010742188 483.26953125 106.010742188 464.444335938 82.4580078125 c 128,-1,34
 445.607421875 58.890625 445.607421875 58.890625 419.82421875 40.994140625 c 0,35,36
 392.144598329 22.9658203125 392.144598329 22.9658203125 356.64109368 13.69921875 c 0,37,38
 312.939617773 1.208984375 312.939617773 1.208984375 267.982536867 -2.3955078125 c 128,-1,39
 223.024348726 -6 223.024348726 -6 168.953612846 -6 c 2,40,-1
 139.5 -6 l 2,0,1
301.752110804 255.415039062 m 128,-1,42
 273.742375669 262.15234375 273.742375669 262.15234375 242.489547906 265.037109375 c 0,43,44
 205.71825867 266.540039062 205.71825867 266.540039062 172.355040143 262.448242188 c 1,45,-1
 172.355040143 90.2001953125 l 1,46,47
 193.260752641 90.6328125 193.260752641 90.6328125 230.767246216 92.2666015625 c 128,-1,48
 268.27373979 93.900390625 268.27373979 93.900390625 304.751611633 102.759765625 c 128,-1,49
 341.230590711 111.618164062 341.230590711 111.618164062 367.340309817 130.583984375 c 0,50,51
 390.046387154 147.076171875 390.046387154 147.076171875 390.046387154 178 c 0,52,53
 390.046387154 194.456054688 390.046387154 194.456054688 381.7985903 209.004882812 c 128,-1,54
 373.550793446 223.553710938 373.550793446 223.553710938 356.038757596 233.30859375 c 0,55,41
 329.761845938 248.676757812 329.761845938 248.676757812 301.752110804 255.415039062 c 128,-1,42
172.355040143 502.66796875 m 1,56,-1
 172.355040143 377.095703125 l 1,57,58
 183.509330049 376.333007812 183.509330049 376.333007812 198.70502934 376.333007812 c 128,-1,59
 213.900728632 376.333007812 213.900728632 376.333007812 227.174267186 376.756835938 c 128,-1,60
 240.446698504 377.180664062 240.446698504 377.180664062 245.949658682 377.932617188 c 0,61,62
 284.25557625 383.166015625 284.25557625 383.166015625 316.959989686 398.08984375 c 0,63,64
 337.074028839 407.268554688 337.074028839 407.268554688 350.521403358 419.779296875 c 128,-1,65
 363.968777877 432.291015625 363.968777877 432.291015625 363.968777877 448.015625 c 128,-1,66
 363.968777877 463.62109375 363.968777877 463.62109375 354.479770085 474.57421875 c 0,67,68
 328.934741058 504.060546875 328.934741058 504.060546875 267.154324752 509.967773438 c 0,69,70
 256.35656466 511 256.35656466 511 246.052631579 511 c 0,71,72
 210.964340224 511 210.964340224 511 172.355040143 502.66796875 c 1,56,-1
EndSplineSet
EndChar

StartChar: C
Encoding: 67 67 34
Width: 500
Flags: W
LayerCount: 2
Fore
SplineSet
416.466583975 182.95703125 m 1,0,1
 439.677734375 199.926757812 439.677734375 199.926757812 462 199.926757812 c 128,-1,2
 484.208984375 199.926757812 484.208984375 199.926757812 499.604492188 185.40234375 c 128,-1,3
 515 170.877929688 515 170.877929688 515 148.98046875 c 0,4,5
 515 137.85546875 515 137.85546875 508.435546875 121.752929688 c 1,6,7
 472.647460938 70.11328125 472.647460938 70.11328125 438.018554688 41.6103515625 c 0,8,9
 401.34521253 13.626953125 401.34521253 13.626953125 355.39782657 -1.4814453125 c 0,10,11
 319.479654177 -14 319.479654177 -14 276.052132701 -14 c 0,12,13
 209.701162618 -14 209.701162618 -14 178.241632109 8.853515625 c 0,14,15
 150.208549319 28.2373046875 150.208549319 28.2373046875 115.603515625 65.951171875 c 0,16,17
 81.71875 103.665039062 81.71875 103.665039062 63.359375 155.094726562 c 128,-1,18
 45 206.524414062 45 206.524414062 45 265.0546875 c 0,19,20
 45 307.17578125 45 307.17578125 57.99609375 348.241210938 c 128,-1,21
 70.9921875 389.305664062 70.9921875 389.305664062 89.5751953125 424.682617188 c 128,-1,22
 108.086914062 459.927734375 108.086914062 459.927734375 134.250976562 495.087890625 c 0,23,24
 163.667487411 531.734375 163.667487411 531.734375 201.808427133 551.828125 c 0,25,26
 237.432779177 570.59765625 237.432779177 570.59765625 263.107653288 582.516601562 c 1,27,28
 298.434908175 595.544921875 298.434908175 595.544921875 328.609930391 602.594726562 c 0,29,30
 358.783860338 610 358.783860338 610 386.781990521 610 c 0,31,32
 430.8046875 610 430.8046875 610 462.225585938 587.556640625 c 128,-1,33
 493.646484375 565.112304688 493.646484375 565.112304688 520.860351562 512.86328125 c 1,34,35
 525 500.443359375 525 500.443359375 525 490.893554688 c 128,-1,36
 525 481.344726562 525 481.344726562 523.34765625 474.336914062 c 0,37,38
 519.891601562 459.682617188 519.891601562 459.682617188 510.984375 450.775390625 c 0,39,40
 494.208984375 434 494.208984375 434 470.5 434 c 128,-1,41
 446.791015625 434 446.791015625 434 426.37127888 454.395507812 c 2,42,-1
 424.525344342 456.045898438 l 1,43,44
 408.86657657 483.045898438 408.86657657 483.045898438 399.944923726 491.022460938 c 128,-1,45
 391.022178614 499 391.022178614 499 382.308056872 499 c 0,46,47
 350.656287026 499 350.656287026 499 313.996464011 487.857421875 c 1,48,49
 268.348359745 468.48828125 268.348359745 468.48828125 245.573459716 446.716796875 c 0,50,51
 221.616724674 423.814453125 221.616724674 423.814453125 205.724211345 399.684570312 c 128,-1,52
 189.909249111 375.671875 189.909249111 375.671875 176.456864633 334.823242188 c 128,-1,53
 162.98809612 293.92578125 162.98809612 293.92578125 158.612466677 254.001953125 c 1,54,55
 158.790506517 205.586914062 158.790506517 205.586914062 184.042672541 163.662109375 c 0,56,57
 192.210659805 150.100585938 192.210659805 150.100585938 208.577217861 131.58203125 c 128,-1,58
 224.942683649 113.063476562 224.942683649 113.063476562 241.298319017 99.712890625 c 0,59,60
 251.716380332 91.208984375 251.716380332 91.208984375 270.243446386 91.208984375 c 0,61,62
 292.204606043 91.208984375 292.204606043 91.208984375 315.492872482 98.8740234375 c 128,-1,63
 338.780046653 106.540039062 338.780046653 106.540039062 356.081586937 119.416992188 c 0,64,65
 387.226543987 142.596679688 387.226543987 142.596679688 416.466583975 182.95703125 c 1,0,1
EndSplineSet
EndChar

StartChar: D
Encoding: 68 68 35
Width: 500
Flags: W
LayerCount: 2
Fore
SplineSet
204.519442887 596.75 m 0,0,1
 215.622012145 596.75 215.622012145 596.75 226.855731467 595.98828125 c 0,2,3
 311.866321076 593.111328125 311.866321076 593.111328125 348.56299058 571.811523438 c 0,4,5
 385.259660084 548.780273438 385.259660084 548.780273438 427.06640625 504.822265625 c 0,6,7
 465.853515625 461.033203125 465.853515625 461.033203125 488.739257812 410.98828125 c 0,8,9
 510.168945312 365.014648438 510.168945312 365.014648438 510.168945312 309.25 c 0,10,11
 510.168945312 304.037109375 510.168945312 304.037109375 510.001953125 298.75390625 c 0,12,13
 509.95703125 238.833984375 509.95703125 238.833984375 486.884765625 181.161132812 c 0,14,15
 463.8125 123.991210938 463.8125 123.991210938 416.4296875 81.06640625 c 0,16,17
 380.228567304 51.0244140625 380.228567304 51.0244140625 335.103026479 31.4912109375 c 128,-1,18
 290.175863902 11.9404296875 290.175863902 11.9404296875 230.375843261 1.5 c 2,19,-1
 170.176861921 -10.52734375 l 1,20,21
 161.4272791 -13.921875 161.4272791 -13.921875 114.733398438 -18.1689453125 c 1,22,23
 75.94140625 -14.2626953125 75.94140625 -14.2626953125 61.5771484375 6.3046875 c 0,24,25
 51.001953125 13.966796875 51.001953125 13.966796875 51.001953125 18.5 c 2,26,-1
 50 528.94140625 l 1,27,28
 54.0146484375 551.063476562 54.0146484375 551.063476562 77.1787109375 565.091796875 c 0,29,30
 100.34375 581.189453125 100.34375 581.189453125 139.357421875 590.000976562 c 0,31,32
 170.682726453 596.75 170.682726453 596.75 204.519442887 596.75 c 0,0,1
223.378601627 484.088867188 m 0,33,34
 207.642798186 485.384765625 207.642798186 485.384765625 199.41010091 485.384765625 c 128,-1,35
 191.176301533 485.384765625 191.176301533 485.384765625 186.113247813 484.68359375 c 0,36,37
 176.335404408 482.127929688 176.335404408 482.127929688 164.879060609 479.908203125 c 1,38,-1
 164.879060609 98.38671875 l 1,39,40
 192.891171273 100.837890625 192.891171273 100.837890625 211.48362148 103.426757812 c 0,41,42
 230.076071687 105.758789062 230.076071687 105.758789062 245.414016531 110.845703125 c 0,43,44
 260.751961376 116.149414062 260.751961376 116.149414062 277.492881271 125.090820312 c 0,45,46
 311.489402405 143.54296875 311.489402405 143.54296875 327.045563322 158.981445312 c 0,47,48
 361.208501764 187.586914062 361.208501764 187.586914062 378.683421176 223.260742188 c 0,49,50
 396.23218138 264.727539062 396.23218138 264.727539062 396.23218138 304.943359375 c 0,51,52
 396.23218138 380.358398438 396.23218138 380.358398438 336.301010675 429.2890625 c 0,53,54
 304.948430741 456.197265625 304.948430741 456.197265625 283.688895205 470.098632812 c 0,55,56
 262.428257568 481.900390625 262.428257568 481.900390625 223.378601627 484.088867188 c 0,33,34
EndSplineSet
EndChar

StartChar: E
Encoding: 69 69 36
Width: 500
Flags: W
LayerCount: 2
Fore
SplineSet
458.065429688 494.456054688 m 1,0,1
 411.304681999 492.212890625 411.304681999 492.212890625 355.038895956 492.212890625 c 0,2,3
 265.092292961 492.784179688 265.092292961 492.784179688 242.721131643 491.818359375 c 128,-1,4
 220.351078137 490.852539062 220.351078137 490.852539062 213.698665355 490.504882812 c 0,5,6
 200.393839792 489.809570312 200.393839792 489.809570312 187.309468873 488.883789062 c 1,7,-1
 186.35342687 343.096679688 l 1,8,9
 278.949916855 341.041015625 278.949916855 341.041015625 405.854245548 351.178710938 c 0,10,11
 408.293648203 351.322265625 408.293648203 351.322265625 416.182617188 351.322265625 c 0,12,13
 423.638671875 351.322265625 423.638671875 351.322265625 434.015625 348.0703125 c 128,-1,14
 444.393554688 344.817382812 444.393554688 344.817382812 452.40234375 338.046875 c 0,15,16
 472.34765625 321.186523438 472.34765625 321.186523438 472.34765625 298.548828125 c 0,17,18
 472.34765625 282.948242188 472.34765625 282.948242188 461.775390625 268.515625 c 0,19,20
 448.943359375 251 448.943359375 251 420.365234375 244.760742188 c 1,21,22
 297.319660194 235.201171875 297.319660194 235.201171875 218.524295676 235.200195312 c 0,23,24
 202.284875365 235.200195312 202.284875365 235.200195312 186.157344095 235.5390625 c 1,25,-1
 185.215703651 104.874023438 l 1,26,27
 222.562271461 101.057617188 222.562271461 101.057617188 253.456940513 101.057617188 c 0,28,29
 313.598961747 101.057617188 313.598961747 101.057617188 444.4921875 112.228515625 c 1,30,-1
 449.927734375 112.397460938 l 1,31,32
 482.090820312 112.397460938 482.090820312 112.397460938 499.772460938 90.6552734375 c 0,33,34
 509.861328125 78.25 509.861328125 78.25 509.861328125 62.3017578125 c 0,35,36
 509.861328125 31.3955078125 509.861328125 31.3955078125 476.588867188 13.0615234375 c 2,37,-1
 474.900390625 12.068359375 l 1,38,39
 438.328125 1.9091796875 438.328125 1.9091796875 395.384311626 1.9091796875 c 2,40,-1
 347.278670888 2.400390625 l 2,41,42
 318.382495201 2.400390625 318.382495201 2.400390625 286.229351391 1.3876953125 c 0,43,44
 242.050905209 -0.0029296875 242.050905209 -0.0029296875 194.926786157 0.509765625 c 0,45,46
 149.098632812 1.0224609375 149.098632812 1.0224609375 108.813476562 10.8212890625 c 1,47,48
 87.4326171875 20.9921875 87.4326171875 20.9921875 78.654296875 34.712890625 c 128,-1,49
 69.875 48.4345703125 69.875 48.4345703125 69.875 61.64453125 c 2,50,-1
 70 64.8583984375 l 1,51,-1
 70 495.577148438 l 1,52,53
 60.3330078125 521.270507812 60.3330078125 521.270507812 60.3330078125 537.948242188 c 0,54,55
 60.3330078125 560.262695312 60.3330078125 560.262695312 79.8486328125 580.892578125 c 2,56,-1
 83.212890625 584.448242188 l 1,57,58
 155.137695312 597.799804688 155.137695312 597.799804688 227.780067332 597.799804688 c 1,59,-1
 299.32369262 596.333007812 l 2,60,61
 330.181803867 596.333007812 330.181803867 596.333007812 358.920670209 599 c 128,-1,62
 387.658428739 601.666992188 387.658428739 601.666992188 411.195008582 601.666992188 c 0,63,64
 432.032226562 601.666992188 432.032226562 601.666992188 439.932617188 601.375 c 128,-1,65
 447.833984375 601.083007812 447.833984375 601.083007812 449.600585938 601.083007812 c 0,66,67
 474.698242188 601.083007812 474.698242188 601.083007812 490.8828125 587.401367188 c 0,68,69
 510.34765625 570.947265625 510.34765625 570.947265625 510.34765625 548.309570312 c 0,70,71
 510.34765625 532.708984375 510.34765625 532.708984375 499.775390625 518.276367188 c 0,72,73
 486.943359375 500.760742188 486.943359375 500.760742188 458.065429688 494.456054688 c 1,0,1
EndSplineSet
EndChar

StartChar: F
Encoding: 70 70 37
Width: 500
Flags: W
LayerCount: 2
Fore
SplineSet
381.570743405 253 m 2,0,-1
 285.258992806 253 l 2,1,2
 240.456267798 253 240.456267798 253 173.268585132 251.49609375 c 1,3,-1
 173.268585132 39.490234375 l 1,4,-1
 173.252180287 38.865234375 l 2,5,6
 171.831520721 11.2998046875 171.831520721 11.2998046875 152.865332734 -3.4189453125 c 0,7,8
 133.899144747 -19 133.899144747 -19 113.607421875 -19 c 128,-1,9
 93.3681640625 -19 93.3681640625 -19 77.1298828125 -4.7919921875 c 0,10,11
 60.8935546875 8.73046875 60.8935546875 8.73046875 57 35.9111328125 c 1,12,-1
 57 350.997070312 l 1,13,-1
 58 411.915039062 l 2,14,15
 58 462.59765625 58 462.59765625 50.818359375 483.583007812 c 0,16,17
 47.8681640625 492.205078125 47.8681640625 492.205078125 42.7890625 499.237304688 c 1,18,19
 35 516.536132812 35 516.536132812 35 529.942382812 c 0,20,21
 35 550.903320312 35 550.903320312 48.603515625 564.770507812 c 0,22,23
 58.923828125 575.291015625 58.923828125 575.291015625 77.4697265625 580.985351562 c 1,24,25
 116.48046875 587.006835938 116.48046875 587.006835938 146.494784641 588.095703125 c 0,26,27
 200.466724277 590.0234375 200.466724277 590.0234375 367.682401735 593.995117188 c 0,28,29
 409.323366307 594.973632812 409.323366307 594.973632812 446.979492188 600 c 1,30,-1
 448 600 l 2,31,32
 487.6015625 600 487.6015625 600 504.041015625 575.09375 c 0,33,34
 512 563.03515625 512 563.03515625 512 546.342773438 c 128,-1,35
 512 529.650390625 512 529.650390625 499.208007812 514.807617188 c 128,-1,36
 486.416015625 499.963867188 486.416015625 499.963867188 460.815429688 493.829101562 c 1,37,38
 400.137746834 486.381835938 400.137746834 486.381835938 334.732723977 486.381835938 c 2,39,-1
 315.940427346 486.447265625 l 2,40,41
 256.853457078 486.447265625 256.853457078 486.447265625 168.938799741 482.142578125 c 1,42,43
 174.388489209 454.53515625 174.388489209 454.53515625 174.388489209 411.163085938 c 2,44,-1
 173.287177289 357.545898438 l 1,45,46
 228.036706572 357.939453125 228.036706572 357.939453125 306.556856078 361.0546875 c 128,-1,47
 385.077005583 364.170898438 385.077005583 364.170898438 431.966796875 367.03515625 c 0,48,-1
 433 367.069335938 l 2,49,50
 461.490234375 367.069335938 461.490234375 367.069335938 479.245117188 352.66796875 c 128,-1,51
 497 338.267578125 497 338.267578125 497 315.306640625 c 0,52,53
 497 286.997070312 497 286.997070312 469.147460938 270.755859375 c 0,54,55
 438.697265625 253 438.697265625 253 381.570743405 253 c 2,0,-1
EndSplineSet
EndChar

StartChar: G
Encoding: 71 71 38
Width: 500
Flags: W
LayerCount: 2
Fore
SplineSet
467.952148438 351 m 1,0,1
 493.694335938 344.453125 493.694335938 344.453125 505.818359375 329.479492188 c 128,-1,2
 518 314.549804688 518 314.549804688 518 297.655273438 c 0,3,4
 518 271.688476562 518 271.688476562 494.494140625 255.216796875 c 0,5,6
 490.978515625 252.752929688 490.978515625 252.752929688 487 250.634765625 c 1,7,-1
 487 115.841796875 l 2,8,9
 487 88.927734375 487 88.927734375 468.284179688 70.357421875 c 0,10,11
 453.6953125 55.880859375 453.6953125 55.880859375 440.604492188 43.3251953125 c 0,12,13
 404.385737485 10.1533203125 404.385737485 10.1533203125 347.850048279 -5.29296875 c 0,14,15
 311.027230889 -15.7822265625 311.027230889 -15.7822265625 275.009690384 -15.7822265625 c 0,16,17
 255.707115896 -15.7822265625 255.707115896 -15.7822265625 235.557687726 -12.5849609375 c 1,18,19
 172.667313528 4.892578125 172.667313528 4.892578125 145.175204404 26.705078125 c 0,20,21
 120.125 48.517578125 120.125 48.517578125 93.0029296875 93.2275390625 c 128,-1,22
 65.853515625 137.981445312 65.853515625 137.981445312 55.466796875 182.499023438 c 128,-1,23
 45.080078125 227.017578125 45.080078125 227.017578125 42.017578125 287.2890625 c 2,24,-1
 42 287.638671875 l 1,25,26
 42 320.801757812 42 320.801757812 44.0791015625 353.473632812 c 128,-1,27
 46.1572265625 386.145507812 46.1572265625 386.145507812 60.65234375 424.602539062 c 128,-1,28
 75.146484375 463.059570312 75.146484375 463.059570312 92.029296875 496.223632812 c 128,-1,29
 108.911132812 529.387695312 108.911132812 529.387695312 145.903892456 556.07421875 c 0,30,31
 165.708670872 571.624023438 165.708670872 571.624023438 206.394847888 588.166015625 c 0,32,33
 247.082119031 605.534179688 247.082119031 605.534179688 314.666294643 614 c 1,34,-1
 315.852327448 614 l 2,35,36
 334.985312375 614 334.985312375 614 363.77396105 610.329101562 c 0,37,38
 430.427734375 601.6640625 430.427734375 601.6640625 462.44921875 575.646484375 c 0,39,40
 484 558.13671875 484 558.13671875 484 532 c 0,41,42
 484 509.791015625 484 509.791015625 468.604492188 494.395507812 c 128,-1,43
 453.208984375 479 453.208984375 479 430 479 c 0,44,45
 418.431035564 479 418.431035564 479 402.411933813 483.765625 c 0,46,47
 359.132677694 496.642578125 359.132677694 496.642578125 344.191290254 500.321289062 c 128,-1,48
 329.249902814 504 329.249902814 504 318.571231064 504 c 128,-1,49
 307.892559315 504 307.892559315 504 295.629592822 499.853515625 c 128,-1,50
 283.366626329 495.706054688 283.366626329 495.706054688 273.29300637 492.817382812 c 0,51,52
 236.64306092 475.874023438 236.64306092 475.874023438 212.767038899 457.8359375 c 128,-1,53
 188.889922753 439.797851562 188.889922753 439.797851562 169.623454429 397.9765625 c 0,54,55
 153.720330056 363.456054688 153.720330056 363.456054688 153.720330056 313.451171875 c 0,56,57
 153.720330056 302.451171875 153.720330056 302.451171875 154.498253787 290.611328125 c 0,58,59
 157.76859701 230.391601562 157.76859701 230.391601562 167.887076144 199.595703125 c 0,60,61
 177.87207188 168.166992188 177.87207188 168.166992188 203.468060293 131.994140625 c 0,62,63
 222.631680753 104.912109375 222.631680753 104.912109375 237.775481541 94.6689453125 c 0,64,65
 240.762446077 92.6484375 240.762446077 92.6484375 243.075428872 91.7314453125 c 0,66,67
 260.25977503 84.9638671875 260.25977503 84.9638671875 276.657444447 84.9638671875 c 128,-1,68
 293.055113864 84.9638671875 293.055113864 84.9638671875 309.029356441 90.11328125 c 0,69,70
 342.764549684 100.986328125 342.764549684 100.986328125 369.63081862 123.358398438 c 1,71,-1
 369.63081862 237.4375 l 1,72,73
 340.445002132 236.69921875 340.445002132 236.69921875 323.358033206 235.849609375 c 128,-1,74
 306.269970154 235 306.269970154 235 263.194221509 235 c 2,75,-1
 262.04101249 235 l 1,76,77
 216.746375903 240.512695312 216.746375903 240.512695312 202.415510885 271.899414062 c 0,78,79
 198.21187801 281.10546875 198.21187801 281.10546875 198.21187801 291 c 0,80,81
 198.21187801 310.518554688 198.21187801 310.518554688 215.620520039 328.759765625 c 128,-1,82
 233.029162069 347 233.029162069 347 266.555377207 347 c 0,83,84
 331.581485754 347 331.581485754 347 359.245372693 348.49609375 c 0,85,86
 405.526911116 351 405.526911116 351 466 351 c 2,87,-1
 467.952148438 351 l 1,0,1
EndSplineSet
EndChar

StartChar: H
Encoding: 72 72 39
Width: 500
Flags: W
LayerCount: 2
Fore
SplineSet
482.170898438 607.697265625 m 0,0,1
 510 595 510 595 510 554.619140625 c 2,2,-1
 510 51.44921875 l 2,3,4
 510 14.5244140625 510 14.5244140625 488.166992188 -0.2412109375 c 0,5,6
 468.779296875 -14 468.779296875 -14 446.698242188 -14 c 128,-1,7
 424.618164062 -14 424.618164062 -14 407.314492154 3.4814453125 c 0,8,9
 388.315377932 20.962890625 388.315377932 20.962890625 388.315377932 53.9306640625 c 2,10,-1
 387.271155178 258.978515625 l 1,11,-1
 172.423979149 234.787109375 l 1,12,-1
 172.423979149 55 l 2,13,14
 172.423979149 16.25390625 172.423979149 16.25390625 148.166992188 0.7587890625 c 0,15,16
 128.779296875 -13 128.779296875 -13 107.107421875 -13 c 128,-1,17
 85.4365234375 -13 85.4365234375 -13 69.2177734375 4.5693359375 c 0,18,19
 53 21.2958984375 53 21.2958984375 53 52.578125 c 2,20,-1
 53 544.75 l 2,21,22
 53 582.5546875 53 582.5546875 77.8642578125 599.262695312 c 0,23,24
 95.908203125 612 95.908203125 612 124 612 c 0,25,26
 144.10546875 612 144.10546875 612 158.424108961 595.48828125 c 0,27,28
 172.423979149 580.350585938 172.423979149 580.350585938 172.423979149 552 c 2,29,-1
 172.423979149 325.576171875 l 1,30,-1
 387.257909223 344.58203125 l 1,31,-1
 388.315377932 542 l 2,32,33
 388.315377932 562.543945312 388.315377932 562.543945312 396.312623025 576.693359375 c 0,34,35
 411.849609375 604.243164062 411.849609375 604.243164062 440.680664062 609.735351562 c 0,36,37
 452.572265625 612 452.572265625 612 460.318359375 612 c 128,-1,38
 468.064453125 612 468.064453125 612 472.923828125 610.899414062 c 128,-1,39
 477.782226562 609.797851562 477.782226562 609.797851562 482.170898438 607.697265625 c 0,0,1
EndSplineSet
EndChar

StartChar: I
Encoding: 73 73 40
Width: 500
Flags: W
LayerCount: 2
Fore
SplineSet
436.973632812 110.541992188 m 128,-1,1
 446.487304688 111.083007812 446.487304688 111.083007812 448.600585938 111.083007812 c 0,2,3
 473.698242188 111.083007812 473.698242188 111.083007812 489.40234375 97.263671875 c 0,4,5
 509.34765625 79.7109375 509.34765625 79.7109375 509.34765625 56.1455078125 c 0,6,7
 509.34765625 39.90625 509.34765625 39.90625 498.775390625 24.8818359375 c 0,8,9
 485.943359375 6.6474609375 485.943359375 6.6474609375 456.98046875 0.064453125 c 1,10,11
 420.626953125 -1.3330078125 420.626953125 -1.3330078125 381.128726515 -1.3330078125 c 0,12,13
 341.193504069 -1.3330078125 341.193504069 -1.3330078125 281.279146508 -0.6669921875 c 128,-1,14
 221.363691434 -0 221.363691434 -0 107 0 c 2,15,-1
 105.970703125 0 l 1,16,17
 65.5 5.5185546875 65.5 5.5185546875 52.9794921875 37.609375 c 0,18,19
 49.4775390625 46.5869140625 49.4775390625 46.5869140625 49.4775390625 56.185546875 c 0,20,21
 49.4775390625 77.4775390625 49.4775390625 77.4775390625 65.40234375 94.0947265625 c 128,-1,22
 81.3271484375 110.712890625 81.3271484375 110.712890625 109.30859375 111.984375 c 2,23,-1
 109.653320312 112 l 1,24,-1
 169.178023693 112 l 2,25,26
 198.529923798 112 198.529923798 112 215.817955896 111.620117188 c 1,27,-1
 215.817955896 494.321289062 l 1,28,-1
 103.034179688 493.490234375 l 1,29,30
 74.2431640625 497.188476562 74.2431640625 497.188476562 60.3603515625 512.756835938 c 128,-1,31
 46.4775390625 528.32421875 46.4775390625 528.32421875 46.4775390625 546.423828125 c 0,32,33
 46.4775390625 566.479492188 46.4775390625 566.479492188 62.40234375 582.1328125 c 128,-1,34
 78.3271484375 597.786132812 78.3271484375 597.786132812 106.30859375 598.984375 c 1,35,-1
 106.353515625 598 l 2,36,37
 106.671875 598 106.671875 598 118.029296875 598 c 128,-1,38
 129.38671875 598 129.38671875 598 203.200941104 598.998046875 c 0,39,-1
 204.309429704 598.981445312 l 1,40,41
 270.75399238 596.025390625 270.75399238 596.025390625 329.551081234 599.345703125 c 128,-1,42
 388.348170087 602.666992188 388.348170087 602.666992188 417.098632812 602.666992188 c 0,43,44
 457.2109375 602.666992188 457.2109375 602.666992188 461.516601562 601.306640625 c 0,45,46
 485.103515625 594.287109375 485.103515625 594.287109375 496.815429688 579.5703125 c 128,-1,47
 508.526367188 564.854492188 508.526367188 564.854492188 508.526367188 549.0078125 c 0,48,49
 508.526367188 531.276367188 508.526367188 531.276367188 494.767578125 516.364257812 c 128,-1,50
 481.008789062 501.452148438 481.008789062 501.452148438 455.69921875 496.430664062 c 1,51,-1
 341.689580155 494.755859375 l 1,52,-1
 341.689580155 110 l 1,53,-1
 386.081804782 110 l 2,54,0
 427.459960938 110 427.459960938 110 436.973632812 110.541992188 c 128,-1,1
106.823242188 587.708984375 m 1,55,-1
 107.215820312 579.111328125 l 1,56,-1
 110.75 583.25 l 1,57,-1
 106.823242188 587.708984375 l 1,55,-1
EndSplineSet
EndChar

StartChar: J
Encoding: 74 74 41
Width: 500
Flags: W
LayerCount: 2
Fore
SplineSet
555.080078125 547.069335938 m 128,-1,1
 555.080078125 526.29296875 555.080078125 526.29296875 541.426757812 511.274414062 c 128,-1,2
 527.772460938 496.254882812 527.772460938 496.254882812 501.91015625 491.083007812 c 1,3,4
 482.422851562 490 482.422851562 490 459 490 c 2,5,-1
 431.824601549 490 l 1,6,-1
 432.876445808 164.060546875 l 2,7,8
 432.876445808 107.076171875 432.876445808 107.076171875 400.776432101 63.0859375 c 0,9,10
 385.246450188 41.5 385.246450188 41.5 362.602312654 24.06640625 c 0,11,12
 319.500286767 -9.1171875 319.500286767 -9.1171875 258.688463085 -23 c 0,13,14
 229.719321181 -30 229.719321181 -30 204.609085995 -30 c 128,-1,15
 179.498850808 -30 179.498850808 -30 162.895580308 -26.7216796875 c 128,-1,16
 146.291237591 -23.443359375 146.291237591 -23.443359375 133.409630113 -16.341796875 c 0,17,18
 111.306640625 -4.2568359375 111.306640625 -4.2568359375 86.9326171875 22.9462890625 c 0,19,20
 83.0703125 26.73828125 83.0703125 26.73828125 68.1357421875 46.4365234375 c 0,21,22
 37.1796875 87.265625 37.1796875 87.265625 33.3603515625 96.712890625 c 0,23,24
 22 111.744140625 22 111.744140625 22 131.291992188 c 128,-1,25
 22 150.83984375 22 150.83984375 36.79296875 165.615234375 c 128,-1,26
 51.5859375 180.390625 51.5859375 180.390625 75 180.390625 c 0,27,28
 95.9072265625 180.390625 95.9072265625 180.390625 115.788085938 166.491210938 c 0,29,30
 127.421301682 155.997070312 127.421301682 155.997070312 132.938927126 148.41015625 c 0,31,32
 147.176888313 128.833984375 147.176888313 128.833984375 153.357143474 117.206054688 c 128,-1,33
 159.537398635 105.577148438 159.537398635 105.577148438 168.152657173 93.8603515625 c 0,34,35
 178.146785965 84.8330078125 178.146785965 84.8330078125 196.480613688 76.8720703125 c 0,36,37
 204.002211529 73.6064453125 204.002211529 73.6064453125 210.909429389 73.6064453125 c 0,38,39
 222.952563665 73.6064453125 222.952563665 73.6064453125 235.02250335 77.48828125 c 0,40,41
 260.885434429 85.806640625 260.885434429 85.806640625 279.732853793 103.895507812 c 1,42,43
 291.083336294 112.344726562 291.083336294 112.344726562 294.777121691 118.118164062 c 0,44,45
 300.891971653 127.674804688 300.891971653 127.674804688 305.890644374 139.063476562 c 0,46,47
 314.297892937 196.92578125 314.297892937 196.92578125 314.297892937 284.315429688 c 0,48,49
 314.297892937 309.22265625 314.297892937 309.22265625 313.202087806 367.143554688 c 0,50,51
 312.055888505 427.739257812 312.055888505 427.739257812 309.393575257 493.616210938 c 1,52,53
 254.885311618 492.163085938 254.885311618 492.163085938 214.933457428 492.163085938 c 2,54,-1
 205.457209144 492.163085938 l 1,55,56
 176.356184626 495.954101562 176.356184626 495.954101562 160.739353186 511.364257812 c 128,-1,57
 145.122521746 526.775390625 145.122521746 526.775390625 145.122521746 544.293945312 c 0,58,59
 145.122521746 545.661132812 145.122521746 545.661132812 145.216876787 547.021484375 c 0,60,61
 145.609307979 581.01953125 145.609307979 581.01953125 192.753589583 597.876953125 c 2,62,-1
 195.666801463 598.969726562 l 1,63,64
 305.427446901 600 305.427446901 600 347.107713881 600 c 128,-1,65
 388.786908644 600 388.786908644 600 492.688476562 601.997070312 c 0,66,67
 494.844726562 616.997070312 494.844726562 616.997070312 497 601.997070312 c 2,68,-1
 497.723632812 601.982421875 l 2,69,70
 524.86328125 600.690429688 524.86328125 600.690429688 539.971679688 584.268554688 c 128,-1,0
 555.080078125 567.845703125 555.080078125 567.845703125 555.080078125 547.069335938 c 128,-1,1
EndSplineSet
EndChar

StartChar: K
Encoding: 75 75 42
Width: 500
Flags: W
LayerCount: 2
Fore
SplineSet
139.794921875 9.5810546875 m 0,0,1
 122.859375 -6 122.859375 -6 102.69140625 -6 c 128,-1,2
 82.5224609375 -6 82.5224609375 -6 65.224609375 8.63671875 c 0,3,4
 47.9267578125 22.5546875 47.9267578125 22.5546875 44.005859375 49.8974609375 c 1,5,-1
 44.013671875 50.93359375 l 2,6,7
 45.013671875 174.494140625 45.013671875 174.494140625 45.013671875 296.151367188 c 128,-1,8
 45.013671875 417.80859375 45.013671875 417.80859375 44.013671875 549.934570312 c 2,9,-1
 44 551.754882812 l 1,10,11
 50.5576171875 576.698242188 50.5576171875 576.698242188 65.3876953125 589.517578125 c 0,12,13
 80.21875 603 80.21875 603 100.013671875 603 c 0,14,15
 118.181640625 603 118.181640625 603 133.747070312 590.818359375 c 0,16,17
 149.984779403 588.475585938 149.984779403 588.475585938 157.497646684 583.5 c 1,18,-1
 157.497646684 581.547851562 l 2,19,20
 157.497646684 524.481445312 157.497646684 524.481445312 156.9994603 477.799804688 c 128,-1,21
 156.502356929 431.119140625 156.502356929 431.119140625 156.411383763 386.033203125 c 1,22,23
 221.155036488 415.049804688 221.155036488 415.049804688 276.087666478 469.169921875 c 0,24,25
 305.516402623 498.163085938 305.516402623 498.163085938 327.823239497 524.609375 c 0,26,27
 365.22728985 559.305664062 365.22728985 559.305664062 405.341040929 592.45703125 c 1,28,29
 428.846774167 598 428.846774167 598 453.013671875 598 c 0,30,31
 475.22265625 598 475.22265625 598 490.618164062 583.342773438 c 128,-1,32
 506.013671875 568.684570312 506.013671875 568.684570312 506.013671875 546.587890625 c 0,33,34
 506.013671875 535.360351562 506.013671875 535.360351562 499.092773438 518.23046875 c 1,35,36
 467.611328125 483.26171875 467.611328125 483.26171875 449.666015625 461.548828125 c 0,37,38
 366.39694484 370.458007812 366.39694484 370.458007812 317.127394424 333.25 c 0,39,40
 306.131554507 324.946289062 306.131554507 324.946289062 294.403597207 317.147460938 c 1,41,42
 521.458007812 102.373046875 521.458007812 102.373046875 531.814453125 90.787109375 c 0,43,44
 546.013671875 73.5810546875 546.013671875 73.5810546875 546.013671875 51.875 c 128,-1,45
 546.013671875 30.16796875 546.013671875 30.16796875 530.516601562 16.083984375 c 128,-1,46
 515.018554688 2 515.018554688 2 493.013671875 2 c 0,47,48
 482.330078125 2 482.330078125 2 469.8203125 6.609375 c 128,-1,49
 457.310546875 11.2177734375 457.310546875 11.2177734375 448.618164062 21.0576171875 c 0,50,51
 439.087753411 30.8974609375 439.087753411 30.8974609375 418.0967784 50.8212890625 c 0,52,53
 402.38224701 65.736328125 402.38224701 65.736328125 323.933053642 141.935546875 c 128,-1,54
 245.484943288 218.133789062 245.484943288 218.133789062 237.125159153 226.224609375 c 0,55,56
 220.419670063 242.396484375 220.419670063 242.396484375 206.883079585 255.245117188 c 128,-1,57
 193.34757212 268.092773438 193.34757212 268.092773438 185.484891356 275.791015625 c 1,58,59
 171.844331545 270.365234375 171.844331545 270.365234375 155.28829837 264.626953125 c 1,60,61
 155.461580591 164.573242188 155.461580591 164.573242188 159.728655276 54.9365234375 c 1,62,63
 158.292578872 25.1611328125 158.292578872 25.1611328125 139.794921875 9.5810546875 c 0,0,1
EndSplineSet
EndChar

StartChar: L
Encoding: 76 76 43
Width: 500
Flags: W
LayerCount: 2
Fore
SplineSet
486.767578125 26.14453125 m 128,-1,1
 473.008789062 11.0947265625 473.008789062 11.0947265625 447.767578125 6.041015625 c 1,2,3
 364.741864417 4.0009765625 364.741864417 4.0009765625 278.839818717 3.50390625 c 128,-1,4
 192.938883522 3.0078125 192.938883522 3.0078125 113.345703125 -8.115234375 c 1,5,6
 89.5830078125 -5.677734375 89.5830078125 -5.677734375 75.6474609375 5.9462890625 c 0,7,8
 57.921875 10.2353515625 57.921875 10.2353515625 55 18.5 c 1,9,-1
 55 19.2783203125 l 2,10,11
 55 151.50390625 55 151.50390625 56 282.729492188 c 128,-1,12
 57 413.836914062 57 413.836914062 57 546.948242188 c 2,13,-1
 57 548.524414062 l 1,14,15
 62.3544921875 573.9921875 62.3544921875 573.9921875 77.6650390625 587.322265625 c 0,16,17
 93.998046875 601.525390625 93.998046875 601.525390625 112.814453125 601.526367188 c 0,18,19
 129.62890625 601.526367188 129.62890625 601.526367188 145.243164062 589.815429688 c 0,20,21
 161.881375027 578.676757812 161.881375027 578.676757812 171.139659731 554.154296875 c 1,22,-1
 171.139659731 551.946289062 l 2,23,24
 171.139659731 433.948242188 171.139659731 433.948242188 170.038038233 321.999023438 c 128,-1,25
 168.936416736 210.05078125 168.936416736 210.05078125 168.869786403 99.6826171875 c 1,26,27
 235.754424696 101.647460938 235.754424696 101.647460938 306.479191153 106.12890625 c 128,-1,28
 377.19396306 110.609375 377.19396306 110.609375 451.104492188 112.592773438 c 1,29,30
 464.978515625 108.42578125 464.978515625 108.42578125 470.7890625 104.856445312 c 128,-1,31
 476.599609375 101.287109375 476.599609375 101.287109375 479.319335938 99.2041015625 c 0,32,33
 484.833984375 94.9814453125 484.833984375 94.9814453125 489.006835938 89.6884765625 c 0,34,35
 500.526367188 75.080078125 500.526367188 75.080078125 500.526367188 58.13671875 c 128,-1,0
 500.526367188 41.193359375 500.526367188 41.193359375 486.767578125 26.14453125 c 128,-1,1
EndSplineSet
EndChar

StartChar: M
Encoding: 77 77 44
Width: 500
Flags: W
LayerCount: 2
Fore
SplineSet
352.002926244 575.877929688 m 1,0,1
 374.63416758 609 374.63416758 609 410.160835957 609 c 0,2,3
 428.818164899 609 428.818164899 609 443.272460938 598.713867188 c 0,4,5
 456.822265625 589.5 456.822265625 589.5 467.876953125 568.451171875 c 1,6,7
 474.896484375 550.07421875 474.896484375 550.07421875 479.926757812 522.286132812 c 0,8,9
 488.084960938 477.2109375 488.084960938 477.2109375 497.927734375 399.74609375 c 128,-1,10
 507.770507812 322.282226562 507.770507812 322.282226562 509.499023438 309.618164062 c 1,11,-1
 508.331054688 312.397460938 l 1,12,-1
 506.510742188 314.958007812 l 1,13,-1
 504.306640625 316.977539062 l 1,14,-1
 501.026367188 318.838867188 l 1,15,-1
 497.999023438 319.739257812 l 1,16,-1
 495.064453125 320.013671875 l 1,17,-1
 480.068359375 305.764648438 l 1,18,-1
 510.028320312 306.81640625 l 1,19,-1
 520.029296875 176.375 l 2,20,21
 527.760742188 74.0654296875 527.760742188 74.0654296875 527.760742188 52.3076171875 c 0,22,23
 526.14453125 31.3818359375 526.14453125 31.3818359375 521.524414062 21.005859375 c 128,-1,24
 516.905273438 10.6298828125 516.905273438 10.6298828125 508.71875 3.4599609375 c 0,25,26
 491.9140625 -12 491.9140625 -12 471.760742188 -12 c 128,-1,27
 451.608398438 -12 451.608398438 -12 434.6484375 2.24609375 c 0,28,29
 415.181085449 17.4150390625 415.181085449 17.4150390625 413.493934648 45.7451171875 c 0,30,31
 413.120939869 65.873046875 413.120939869 65.873046875 413.120939869 93.3251953125 c 128,-1,32
 413.120939869 120.776367188 413.120939869 120.776367188 414.572800359 150.751953125 c 0,33,34
 410.210713166 202.05078125 410.210713166 202.05078125 407.997683099 253.353515625 c 1,35,36
 399.154237126 297.607421875 399.154237126 297.607421875 399.058819857 336.157226562 c 1,37,-1
 394.263017805 375.338867188 l 1,38,39
 392.802483018 370.049804688 392.802483018 370.049804688 385.699317917 344.739257812 c 128,-1,40
 378.596152816 319.428710938 378.596152816 319.428710938 367.324987921 276.282226562 c 128,-1,41
 356.052738739 233.135742188 356.052738739 233.135742188 337.797680329 196.96484375 c 1,42,43
 315.018975941 172.346679688 315.018975941 172.346679688 285.539376983 171.018554688 c 2,44,-1
 282.508794407 170.8828125 l 1,45,46
 249.39141207 180.373046875 249.39141207 180.373046875 235.03219738 201.065429688 c 0,47,48
 230.965036291 208.790039062 230.965036291 208.790039062 213.20441282 257.580078125 c 0,49,50
 192.001177657 315.823242188 192.001177657 315.823242188 176.068662316 364.984375 c 1,51,52
 168.980677235 298.749023438 168.980677235 298.749023438 163.518038588 239.704101562 c 0,53,54
 153.421156673 130.584960938 153.421156673 130.584960938 141.127508998 24.287109375 c 1,55,56
 130.650042295 1.3701171875 130.650042295 1.3701171875 115.635742188 -9.314453125 c 0,57,58
 100.943359375 -20 100.943359375 -20 82.5908203125 -20 c 128,-1,59
 64.2373046875 -20 64.2373046875 -20 47.9375 -5.05859375 c 128,-1,60
 31.6806640625 9.849609375 31.6806640625 9.849609375 29 38.0107421875 c 1,61,-1
 80.4248046875 583.5 l 1,62,63
 86.751953125 591.412109375 86.751953125 591.412109375 108.646484375 595.13671875 c 0,64,65
 121.495117188 603 121.495117188 603 137.200220951 603 c 0,66,67
 153.555608279 603 153.555608279 603 167.594958261 595.482421875 c 128,-1,68
 181.633223956 587.965820312 181.633223956 587.965820312 192.818730166 573.189453125 c 1,69,70
 231.973423338 489.337890625 231.973423338 489.337890625 236.610919466 480.412109375 c 1,71,-1
 234.575712491 482.927734375 l 1,72,-1
 231.785841661 485.169921875 l 2,73,74
 228.200104066 486.907226562 228.200104066 486.907226562 227.11147977 487.188476562 c 0,75,76
 225.297467373 487.65625 225.297467373 487.65625 222.183394686 487.918945312 c 1,77,-1
 205.537418402 472.9375 l 1,78,-1
 205.868125982 470.926757812 l 1,79,-1
 219.909644538 463.103515625 l 1,80,-1
 236.525260782 477.991210938 l 1,81,82
 239.524399031 468.291992188 239.524399031 468.291992188 253.292677226 427.359375 c 128,-1,83
 267.060955421 386.426757812 267.060955421 386.426757812 283.009735069 336.15234375 c 1,84,85
 286.983647463 354.489257812 286.983647463 354.489257812 292.946142485 382.372070312 c 0,86,87
 313.112799136 476.6796875 313.112799136 476.6796875 324.801414583 510.366210938 c 0,88,89
 334.898296497 539.465820312 334.898296497 539.465820312 352.002926244 575.877929688 c 1,0,1
EndSplineSet
EndChar

StartChar: N
Encoding: 78 78 45
Width: 500
Flags: W
LayerCount: 2
Fore
SplineSet
351.362606851 282.252929688 m 0,0,1
 366.250627735 257.669921875 366.250627735 257.669921875 381.925119253 222.897460938 c 1,2,3
 387.033883096 377.443359375 387.033883096 377.443359375 387.033883096 571 c 2,4,-1
 387.033883096 572.858398438 l 1,5,6
 394.395511838 599.036132812 394.395511838 599.036132812 411.076158522 612.517578125 c 0,7,8
 426.209960938 626 426.209960938 626 446.004882812 626 c 0,9,10
 464.172851562 626 464.172851562 626 479.73828125 613.818359375 c 0,11,12
 495.23046875 602.256835938 495.23046875 602.256835938 502.004882812 577.708007812 c 1,13,-1
 502.004882812 575.846679688 l 2,14,15
 502.004882812 439.375 502.004882812 439.375 500.025390625 312.873046875 c 128,-1,16
 498.044921875 186.370117188 498.044921875 186.370117188 490.353515625 53.1240234375 c 1,17,-1
 512.213867188 32.27734375 l 1,18,-1
 489.004882812 32.27734375 l 1,19,-1
 489.004882812 28.72265625 l 1,20,21
 480.538085938 7.1904296875 480.538085938 7.1904296875 466.301757812 -3.1533203125 c 0,22,23
 452.064453125 -14 452.064453125 -14 435.004882812 -14 c 0,24,25
 410.419301765 -14 410.419301765 -14 387.478744278 6.3955078125 c 2,26,-1
 385.532339305 8.1259765625 l 1,27,28
 382.806054235 12.97265625 382.806054235 12.97265625 381.366022113 15 c 1,29,-1
 372.411680498 15 l 1,30,-1
 372.411680498 28.0263671875 l 1,31,32
 328.403376179 96.9326171875 328.403376179 96.9326171875 303.918436416 152.8359375 c 128,-1,33
 279.434595076 208.739257812 279.434595076 208.739257812 252.909884414 252.95703125 c 0,34,35
 226.047957991 297.734375 226.047957991 297.734375 201.693730526 335.239257812 c 128,-1,36
 177.339503062 372.744140625 177.339503062 372.744140625 158.702565601 405.494140625 c 1,37,-1
 158.702565601 268.5 l 1,38,-1
 159.827350416 44 l 1,39,-1
 159.810874076 43.3388671875 l 2,40,41
 158.384023026 14.1611328125 158.384023026 14.1611328125 139.786132812 -1.4189453125 c 0,42,43
 122.8515625 -17 122.8515625 -17 102.612304688 -17 c 128,-1,44
 82.373046875 -17 82.373046875 -17 66.134765625 -2.7919921875 c 0,45,46
 49.8408203125 10.787109375 49.8408203125 10.787109375 46.0087890625 37.921875 c 1,47,-1
 45 561.4453125 l 1,48,49
 50.4228515625 584.565429688 50.4228515625 584.565429688 65.31640625 597.459960938 c 0,50,51
 80.2099609375 611 80.2099609375 611 100.004882812 611 c 2,52,-1
 100.547851562 611 l 1,53,54
 118.791015625 609.697265625 118.791015625 609.697265625 140.420898438 596.178710938 c 1,55,56
 196.55091558 527.106445312 196.55091558 527.106445312 269.016056041 412.8515625 c 0,57,58
 341.083567494 299.224609375 341.083567494 299.224609375 351.362606851 282.252929688 c 0,0,1
EndSplineSet
EndChar

StartChar: O
Encoding: 79 79 46
Width: 500
Flags: W
LayerCount: 2
Fore
SplineSet
395.768875872 273.49609375 m 2,0,-1
 400.390396512 313.545898438 l 2,1,2
 402.551207327 331.796875 402.551207327 331.796875 402.551207327 354.204101562 c 128,-1,3
 402.551207327 376.610351562 402.551207327 376.610351562 397.32329748 401.708984375 c 0,4,5
 392.275546745 425.935546875 392.275546745 425.935546875 378.662548462 447.940429688 c 0,6,7
 353.620431867 489.561523438 353.620431867 489.561523438 331.131301715 513.361328125 c 0,8,9
 315.105928978 530.321289062 315.105928978 530.321289062 292.008212557 530.321289062 c 0,10,11
 276.884733913 530.321289062 276.884733913 530.321289062 261.054899725 518.583007812 c 128,-1,12
 245.223967007 506.844726562 245.223967007 506.844726562 231.141895914 487.396484375 c 0,13,14
 200.898234219 445.627929688 200.898234219 445.627929688 183.578791762 395.588867188 c 0,15,16
 166.044037196 344.9296875 166.044037196 344.9296875 163.889817567 327.694335938 c 128,-1,17
 161.735597939 310.458984375 161.735597939 310.458984375 155.119144691 263.373046875 c 1,18,19
 157.37772478 216.76953125 157.37772478 216.76953125 167.966466746 180.999023438 c 128,-1,20
 178.556307244 145.227539062 178.556307244 145.227539062 194.782711185 123.58984375 c 128,-1,21
 211.009115125 101.952148438 211.009115125 101.952148438 221.034310601 92.5966796875 c 0,22,23
 235.459123419 84.158203125 235.459123419 84.158203125 245.763345812 84.158203125 c 0,24,25
 248.06696568 84.158203125 248.06696568 84.158203125 252.093082425 85 c 2,26,-1
 254.064945878 85 l 2,27,28
 281.731453444 85 281.731453444 85 287.84917354 87.63671875 c 0,29,30
 305.918912788 95.4228515625 305.918912788 95.4228515625 325.559551611 116.193359375 c 0,31,32
 344.39057296 136.107421875 344.39057296 136.107421875 364.023522065 176.000976562 c 0,33,34
 375.683331924 199.69140625 375.683331924 199.69140625 385.79421283 223.060546875 c 128,-1,35
 395.903995206 246.428710938 395.903995206 246.428710938 395.903995206 268.099609375 c 0,36,37
 395.903995206 270.262695312 395.903995206 270.262695312 395.768875872 273.49609375 c 2,0,-1
417.229492188 582.842773438 m 0,38,39
 449.255859375 554.3515625 449.255859375 554.3515625 481.409179688 490.161132812 c 0,40,41
 499.322265625 457.924804688 499.322265625 457.924804688 506.661132812 422.44921875 c 128,-1,42
 514 386.973632812 514 386.973632812 514 357.842773438 c 128,-1,43
 514 328.711914062 514 328.711914062 512.465820312 311.533203125 c 0,44,45
 509.918945312 283.004882812 509.918945312 283.004882812 505.893554688 260.779296875 c 0,46,47
 502.677734375 224.069335938 502.677734375 224.069335938 488.716796875 184.639648438 c 0,48,49
 458.541992188 99.4208984375 458.541992188 99.4208984375 408.409674067 51.4736328125 c 0,50,51
 377.737585215 24.974609375 377.737585215 24.974609375 342.924033845 10.224609375 c 1,52,53
 305.548707783 -2.234375 305.548707783 -2.234375 294.353576609 -4.96875 c 0,54,55
 276.148718028 -9.4140625 276.148718028 -9.4140625 260.964820169 -11.1015625 c 1,56,57
 227.415678178 -7.90625 227.415678178 -7.90625 206.248081026 -5.6923828125 c 1,58,59
 153.819582314 10.564453125 153.819582314 10.564453125 126.065429688 42.7822265625 c 0,60,61
 69.5419921875 110.682617188 69.5419921875 110.682617188 54.7568359375 185.858398438 c 0,62,63
 47 225.30078125 47 225.30078125 47 264.776367188 c 0,64,65
 47 295.64453125 47 295.64453125 51.6474609375 324.572265625 c 128,-1,66
 56.294921875 353.5 56.294921875 353.5 63.9482421875 381.594726562 c 0,67,68
 87.75390625 468.971679688 87.75390625 468.971679688 126.072265625 530.875 c 0,69,70
 145.041992188 561.520507812 145.041992188 561.520507812 171.267552918 583.784179688 c 0,71,72
 187.423650864 597.477539062 187.423650864 597.477539062 221.308943394 607.920898438 c 0,73,74
 255.195334454 618.875 255.195334454 618.875 306.556060867 621.048828125 c 1,75,76
 379.758882572 612.637695312 379.758882572 612.637695312 417.229492188 582.842773438 c 0,38,39
EndSplineSet
EndChar

StartChar: P
Encoding: 80 80 47
Width: 500
Flags: W
LayerCount: 2
Fore
SplineSet
72.509765625 582.721679688 m 128,-1,1
 87.423828125 595 87.423828125 595 107 595 c 0,2,3
 113.708007812 595 113.708007812 595 118.188476562 594.040039062 c 0,4,5
 155.251734297 609.88671875 155.251734297 609.88671875 197.693403467 619.943359375 c 128,-1,6
 240.135072638 630 240.135072638 630 260.366220736 630 c 0,7,8
 333.68325081 630 333.68325081 630 387.654959892 603.21484375 c 0,9,10
 433.90234375 581.693359375 433.90234375 581.693359375 465.186523438 542.037109375 c 0,11,12
 494.0390625 505.462890625 494.0390625 505.462890625 507.934570312 458.0390625 c 0,13,14
 517 427.095703125 517 427.095703125 517 396.05859375 c 0,15,16
 517 308.177734375 517 308.177734375 444.842773438 237.967773438 c 0,17,18
 372.405764985 172.494140625 372.405764985 172.494140625 264.034819842 164.984375 c 0,19,20
 236.319202028 163 236.319202028 163 221.227169994 163 c 128,-1,21
 206.134038919 163 206.134038919 163 203.750218828 163.05078125 c 128,-1,22
 201.366398738 163.1015625 201.366398738 163.1015625 199.022144126 163.204101562 c 128,-1,23
 196.677889515 163.306640625 196.677889515 163.306640625 194.40287449 163.463867188 c 128,-1,24
 192.126760425 163.62109375 192.126760425 163.62109375 189.900103209 163.83203125 c 128,-1,25
 187.673445992 164.04296875 187.673445992 164.04296875 185.505037952 164.311523438 c 128,-1,26
 183.336629912 164.580078125 183.336629912 164.580078125 181.224272967 164.905273438 c 0,27,28
 176.989667707 165.556640625 176.989667707 165.556640625 172.983662991 166.446289062 c 128,-1,29
 168.953479371 167.341796875 168.953479371 167.341796875 164.705685619 168.240234375 c 1,30,-1
 164.705685619 105.606445312 l 2,31,32
 164.705685619 61.3583984375 164.705685619 61.3583984375 165.825608474 26.3681640625 c 0,33,-1
 165.814618063 25.3837890625 l 1,34,35
 163.996804126 -9.0166015625 163.996804126 -9.0166015625 134.322265625 -23.8857421875 c 0,36,37
 121.8984375 -31 121.8984375 -31 108 -31 c 0,38,39
 88.3681640625 -31 88.3681640625 -31 72.1298828125 -16.7919921875 c 0,40,41
 55.7783203125 -3.1533203125 55.7783203125 -3.1533203125 52.0078125 23.9453125 c 1,42,-1
 51 288.051757812 l 1,43,-1
 51 545.295898438 l 1,44,0
 57.595703125 570.443359375 57.595703125 570.443359375 72.509765625 582.721679688 c 128,-1,1
164.705685619 506.982421875 m 1,45,-1
 164.705685619 282.045898438 l 1,46,47
 203.556787599 275 203.556787599 275 243.484949833 275 c 0,48,49
 264.261222304 275 264.261222304 275 302.101206496 286.674804688 c 0,50,51
 338.65421359 297.952148438 338.65421359 297.952148438 360.561399326 318.227539062 c 0,52,53
 390.459712714 347.520507812 390.459712714 347.520507812 398.525575159 384.791992188 c 0,54,55
 401.043478261 396.423828125 401.043478261 396.423828125 401.043478261 410.779296875 c 0,56,57
 401.043478261 442.131835938 401.043478261 442.131835938 382.474080268 472.010742188 c 128,-1,58
 363.904682274 501.888671875 363.904682274 501.888671875 327.815470514 519.766601562 c 0,59,60
 296.843393996 533.909179688 296.843393996 533.909179688 259.724380748 533.999023438 c 0,61,62
 223.763756793 532.127929688 223.763756793 532.127929688 206.436275214 525.28515625 c 0,63,64
 189.705572938 518.677734375 189.705572938 518.677734375 164.705685619 506.982421875 c 1,45,-1
EndSplineSet
EndChar

StartChar: Q
Encoding: 81 81 48
Width: 500
Flags: W
LayerCount: 2
Fore
SplineSet
487.946289062 -65 m 2,0,1
 469.219726562 -65 469.219726562 -65 453.922851562 -57.00390625 c 1,2,3
 405.920145186 -6.751953125 405.920145186 -6.751953125 367.754286415 23.4853515625 c 1,4,-1
 333.395001948 2.9912109375 l 1,5,6
 316.367709743 -4.994140625 316.367709743 -4.994140625 302.119717359 -11.0087890625 c 0,7,8
 297.58295113 -12.4814453125 297.58295113 -12.4814453125 276.175595583 -14.90234375 c 0,9,10
 254.768240036 -17.9091796875 254.768240036 -17.9091796875 251.387157599 -17.9091796875 c 128,-1,11
 248.006075163 -17.9091796875 248.006075163 -17.9091796875 247.386881116 -17.900390625 c 0,12,13
 231.039722971 -17.900390625 231.039722971 -17.900390625 211.62379995 -12.9267578125 c 0,14,15
 179.040481538 -5.5810546875 179.040481538 -5.5810546875 139.23828125 23.8125 c 0,16,17
 103.004882812 53.5810546875 103.004882812 53.5810546875 87.8857421875 79.7265625 c 0,18,19
 72.765625 106.450195312 72.765625 106.450195312 61.3173828125 154.491210938 c 0,20,21
 54.1953125 184.684570312 54.1953125 184.684570312 47.029296875 237.375976562 c 0,22,23
 45.005859375 255.359375 45.005859375 255.359375 46.4755859375 269.571289062 c 128,-1,24
 47.9462890625 283.784179688 47.9462890625 283.784179688 47.9462890625 297 c 0,25,26
 48.7744140625 324.421875 48.7744140625 324.421875 56.6220703125 370.385742188 c 0,27,28
 64.4697265625 413.087890625 64.4697265625 413.087890625 81.708984375 449.48828125 c 0,29,30
 98.6396484375 486.981445312 98.6396484375 486.981445312 120.706054688 521.484375 c 0,31,32
 144.252929688 556.732421875 144.252929688 556.732421875 177.354837285 578.006835938 c 0,33,34
 201.394583696 593.168945312 201.394583696 593.168945312 240.748772696 606.505859375 c 0,35,36
 258.345201081 611.782226562 258.345201081 611.782226562 280.1258142 611.782226562 c 0,37,38
 311.966970325 611.782226562 311.966970325 611.782226562 349.648573646 600.154296875 c 128,-1,39
 387.330176967 588.544921875 387.330176967 588.544921875 416.851259789 567.428710938 c 0,40,41
 502.249023438 499.524414062 502.249023438 499.524414062 512.8828125 376.3984375 c 0,42,43
 514.1640625 364.056640625 514.1640625 364.056640625 514.8046875 351.768554688 c 0,44,45
 514.946289062 339 514.946289062 339 515.446289062 327.25 c 0,46,47
 515.446289062 297.350585938 515.446289062 297.350585938 512.741210938 277.51953125 c 0,48,49
 503.599609375 224.893554688 503.599609375 224.893554688 489.844726562 179.176757812 c 0,50,51
 476.08984375 134.836914062 476.08984375 134.836914062 441.990234375 94.34375 c 1,52,53
 465.903320312 70.8759765625 465.903320312 70.8759765625 503.888671875 37.9296875 c 1,54,55
 535.051757812 14.396484375 535.051757812 14.396484375 535.051757812 -29.11328125 c 0,56,57
 535.051757812 -42.0771484375 535.051757812 -42.0771484375 524.322265625 -51.98828125 c 0,58,59
 511.995117188 -63.005859375 511.995117188 -63.005859375 488.890625 -65 c 1,60,-1
 487.946289062 -65 l 2,0,1
300.872623548 497.428710938 m 0,61,62
 279.822202356 497.428710938 279.822202356 497.428710938 246.446663792 481.177734375 c 1,63,64
 219.837642958 462.608398438 219.837642958 462.608398438 206.521162182 439.701171875 c 0,65,66
 191.822648997 413.202148438 191.822648997 413.202148438 178.88595508 381.717773438 c 0,67,68
 160.196959342 331.403320312 160.196959342 331.403320312 160.196959342 272.526367188 c 0,69,70
 160.196959342 264.551757812 160.196959342 264.551757812 161.732429994 241.435546875 c 0,71,72
 162.799968414 209.395507812 162.799968414 209.395507812 173.278385787 169.858398438 c 0,73,74
 183.75680316 133.116210938 183.75680316 133.116210938 203.082404378 116.173828125 c 0,75,76
 223.256812902 98.2880859375 223.256812902 98.2880859375 251.659211223 86.841796875 c 0,77,78
 256.391856062 86.3017578125 256.391856062 86.3017578125 261.07335482 86.3017578125 c 0,79,80
 273.448530058 86.3017578125 273.448530058 86.3017578125 289.94259716 96.361328125 c 1,81,82
 282.789763284 103.546875 282.789763284 103.546875 272.339639487 113.607421875 c 0,83,84
 262.051659651 127.395507812 262.051659651 127.395507812 242.71082343 142.098632812 c 0,85,86
 223.368898995 153.525390625 223.368898995 153.525390625 215.615370718 164.015625 c 0,87,88
 204.868164364 178.111328125 204.868164364 178.111328125 204.868164364 193.653320312 c 0,89,90
 204.868164364 212.80078125 204.868164364 212.80078125 219.925788333 226.900390625 c 128,-1,91
 234.982324086 241 234.982324086 241 250.78211034 241 c 0,92,93
 254.859650053 241 254.859650053 241 258.859926537 240.056640625 c 0,94,95
 281.345702649 239.875 281.345702649 239.875 303.102375049 220.350585938 c 1,96,97
 326.07240661 203.486328125 326.07240661 203.486328125 337.80879994 193.491210938 c 0,98,99
 349.545193269 180.640625 349.545193269 180.640625 355.724075172 174.826171875 c 1,100,101
 377.618950813 193.858398438 377.618950813 193.858398438 381.470141911 210.866210938 c 0,102,103
 387.04288834 242.37109375 387.04288834 242.37109375 398.06758939 287.990234375 c 1,104,105
 400.583541302 333.907226562 400.583541302 333.907226562 399.606324686 347.159179688 c 0,106,107
 395.345964937 401.221679688 395.345964937 401.221679688 378.471022762 434.366210938 c 0,108,109
 373.118095661 444.448242188 373.118095661 444.448242188 365.96635 453.940429688 c 0,110,111
 338.652166173 487.602539062 338.652166173 487.602539062 313.199917348 496.578125 c 0,112,113
 307.826314172 497.428710938 307.826314172 497.428710938 300.872623548 497.428710938 c 0,61,62
EndSplineSet
EndChar

StartChar: R
Encoding: 82 82 49
Width: 500
Flags: W
LayerCount: 2
Fore
SplineSet
177.78382722 16.4658203125 m 1,0,-1
 177.768522793 16.205078125 l 2,1,2
 176.348490528 4.7158203125 176.348490528 4.7158203125 157.818359375 -1.4189453125 c 0,3,4
 140.8828125 -17 140.8828125 -17 120.643554688 -17 c 128,-1,5
 100.404296875 -17 100.404296875 -17 84.166015625 -2.7919921875 c 0,6,7
 67.9306640625 10.7421875 67.9306640625 10.7421875 64.0322265625 37.9775390625 c 1,8,-1
 64.0322265625 38.990234375 l 1,9,10
 66.03125 469.375976562 66.03125 469.375976562 63 544.446289062 c 1,11,12
 66.7587890625 573.092773438 66.7587890625 573.092773438 78.630859375 585.068359375 c 0,13,14
 88.138671875 594.658203125 88.138671875 594.658203125 96.9052734375 600.624023438 c 1,15,16
 142.7734375 627.291015625 142.7734375 627.291015625 180.362623303 633.7578125 c 0,17,18
 209.559098836 638.5 209.559098836 638.5 222.275985158 638.5 c 128,-1,19
 234.991778306 638.5 234.991778306 638.5 240.304601096 637.999023438 c 0,20,21
 351.655245015 637.758789062 351.655245015 637.758789062 427.815543574 586.137695312 c 0,22,23
 472.115234375 553.485351562 472.115234375 553.485351562 491.600585938 514.182617188 c 128,-1,24
 511.036132812 474.98046875 511.036132812 474.98046875 511.036132812 433.536132812 c 0,25,26
 511.036132812 354.325195312 511.036132812 354.325195312 450.99609375 287.841796875 c 0,27,28
 415.544672005 251.786132812 415.544672005 251.786132812 367.197984611 229.364257812 c 1,29,30
 403.404981246 194.633789062 403.404981246 194.633789062 447.856445312 152.663085938 c 0,31,32
 520.392578125 77.0595703125 520.392578125 77.0595703125 526.836914062 69.759765625 c 0,33,34
 541.036132812 52.4931640625 541.036132812 52.4931640625 541.036132812 30.7099609375 c 128,-1,35
 541.036132812 8.9267578125 541.036132812 8.9267578125 525.5390625 -5.20703125 c 0,36,37
 510.041992188 -20 510.041992188 -20 488.036132812 -20 c 0,38,39
 477.353515625 -20 477.353515625 -20 464.842773438 -15.390625 c 0,40,41
 452.053710938 -10.6787109375 452.053710938 -10.6787109375 441.525031355 1.24609375 c 0,42,43
 426.962868311 6.7109375 426.962868311 6.7109375 392.992504481 18.5 c 0,44,45
 362.476568637 47.9130859375 362.476568637 47.9130859375 321.711038867 88.4521484375 c 0,46,47
 271.773784156 138.112304688 271.773784156 138.112304688 257.378876645 151.829101562 c 128,-1,48
 242.983969133 165.544921875 242.983969133 165.544921875 236.36699046 172.098632812 c 1,49,50
 211.803383855 168.403320312 211.803383855 168.403320312 177.78382722 165.96484375 c 1,51,-1
 177.78382722 16.4658203125 l 1,0,-1
349.034908342 497.482421875 m 128,-1,53
 324.054802666 513.106445312 324.054802666 513.106445312 294.673580826 519.553710938 c 128,-1,54
 265.292358987 526 265.292358987 526 235.516501544 526 c 128,-1,55
 205.740644102 526 205.740644102 526 189.465478319 524.124023438 c 0,56,57
 181.90181147 523.251953125 181.90181147 523.251953125 177.78382722 517.884765625 c 1,58,-1
 177.78382722 276.95703125 l 1,59,60
 206.547406081 278.811523438 206.547406081 278.811523438 225.679033995 282.145507812 c 0,61,62
 243.12717485 285.1875 243.12717485 285.1875 285.11268615 299.1015625 c 0,63,64
 317.695812919 309.686523438 317.695812919 309.686523438 346.081153779 334.67578125 c 0,65,66
 373.802938377 359.08203125 373.802938377 359.08203125 386.603999051 388.006835938 c 0,67,68
 394.949284891 406.864257812 394.949284891 406.864257812 394.949284891 425.66015625 c 128,-1,69
 394.949284891 444.456054688 394.949284891 444.456054688 384.399068275 463.306640625 c 0,70,52
 374.015014019 481.858398438 374.015014019 481.858398438 349.034908342 497.482421875 c 128,-1,53
EndSplineSet
EndChar

StartChar: S
Encoding: 83 83 50
Width: 500
Flags: W
LayerCount: 2
Fore
SplineSet
444.495117188 470.017578125 m 0,0,1
 430.760742188 465.490234375 430.760742188 465.490234375 418 465.490234375 c 1,2,-1
 408.073923639 466.44140625 l 1,3,-1
 405.494978359 466.44140625 l 1,4,5
 367.809948721 476.426757812 367.809948721 476.426757812 341.992011386 481.340820312 c 128,-1,6
 316.174074051 486.254882812 316.174074051 486.254882812 292.986573257 486.411132812 c 1,7,8
 265.159381188 481.866210938 265.159381188 481.866210938 250.064772828 479.123046875 c 0,9,10
 245.600370951 478.3125 245.600370951 478.3125 232.853544977 472.443359375 c 128,-1,11
 220.107814563 466.575195312 220.107814563 466.575195312 203.300847888 456.915039062 c 0,12,13
 196.909358182 449.852539062 196.909358182 449.852539062 190.772038104 444.21484375 c 128,-1,14
 184.633622468 438.577148438 184.633622468 438.577148438 178.785529898 432.836914062 c 0,15,16
 173.822648793 424.208007812 173.822648793 424.208007812 170.267560672 415.616210938 c 0,17,18
 170.434085601 408.11328125 170.434085601 408.11328125 171.519784315 401.978515625 c 1,19,-1
 182.473180627 388.170898438 l 1,20,-1
 223.7527385 369.390625 l 1,21,22
 297.079580721 351.2578125 297.079580721 351.2578125 323.214134532 345.256835938 c 0,23,24
 383.885082155 331.32421875 383.885082155 331.32421875 433.42578125 306.677734375 c 0,25,26
 449.919921875 297.712890625 449.919921875 297.712890625 461.71875 283.685546875 c 0,27,28
 471.630859375 271.900390625 471.630859375 271.900390625 480.548828125 261.53125 c 0,29,30
 498.440429688 241.290039062 498.440429688 241.290039062 506.720703125 216.08984375 c 128,-1,31
 515 190.888671875 515 190.888671875 515 168.169921875 c 0,32,33
 515 126.901367188 515 126.901367188 499.76171875 91.701171875 c 128,-1,34
 484.5234375 56.501953125 484.5234375 56.501953125 455.822265625 33.34375 c 0,35,36
 446.171875 25.1982421875 446.171875 25.1982421875 436.278320312 18.759765625 c 128,-1,37
 426.384765625 12.322265625 426.384765625 12.322265625 418.95703125 7.611328125 c 0,38,39
 410.911420783 2.66015625 410.911420783 2.66015625 404.043363024 -0.7099609375 c 128,-1,40
 397.175305265 -4.0791015625 397.175305265 -4.0791015625 389.959955384 -6.951171875 c 0,41,42
 347.126895213 -24 347.126895213 -24 293.645004062 -24 c 0,43,44
 254.094237885 -24 254.094237885 -24 224.211777613 -15.845703125 c 0,45,46
 195.818181674 -8.09765625 195.818181674 -8.09765625 159.853179262 5.86328125 c 0,47,48
 90.1259765625 35.3076171875 90.1259765625 35.3076171875 50.109375 81.9951171875 c 1,49,50
 42 100.916015625 42 100.916015625 42 116 c 0,51,52
 42 139.208984375 42 139.208984375 56.8955078125 154.104492188 c 128,-1,53
 71.791015625 169 71.791015625 169 94 169 c 0,54,55
 114.907226562 169 114.907226562 169 135.28515625 154.056640625 c 1,56,57
 169.255264394 117.779296875 169.255264394 117.779296875 226.03588292 102.892578125 c 0,58,59
 253.673543327 95.6474609375 253.673543327 95.6474609375 269.313739941 93.3232421875 c 128,-1,60
 284.953936554 91 284.953936554 91 312.716490658 91 c 2,61,-1
 313.527204128 91 l 2,62,63
 320.258317044 90.4287109375 320.258317044 90.4287109375 324.850899294 90.4287109375 c 2,64,-1
 333.732594023 91.1357421875 l 1,65,66
 342.007349208 96.4638671875 342.007349208 96.4638671875 347.837912838 98.916015625 c 2,67,-1
 354.943706844 102.965820312 l 2,68,69
 360.529960874 106.724609375 360.529960874 106.724609375 374.679102038 115.249023438 c 0,70,71
 379.164319532 120.577148438 379.164319532 120.577148438 383.023972983 125.4453125 c 128,-1,72
 386.883626434 130.3125 386.883626434 130.3125 391.775296221 136.116210938 c 1,73,-1
 400.22095857 157.422851562 l 1,74,-1
 400.22095857 167.853515625 l 2,75,76
 400.22095857 172.649414062 400.22095857 172.649414062 399.387238367 178.666015625 c 0,77,78
 397.594904264 183.677734375 397.594904264 183.677734375 394.837382908 188.702148438 c 128,-1,79
 392.078765993 193.7265625 392.078765993 193.7265625 389.141573003 199.428710938 c 0,80,81
 383.492872125 204.927734375 383.492872125 204.927734375 378.159692165 209.821289062 c 128,-1,82
 372.825416646 214.71484375 372.825416646 214.71484375 366.966368489 220.413085938 c 0,83,84
 357.609201265 224.893554688 357.609201265 224.893554688 348.272849659 230.126953125 c 1,85,-1
 329.719562348 237.004882812 l 1,86,87
 284.646084548 249.947265625 284.646084548 249.947265625 263.530285337 253.77734375 c 0,88,89
 188.468078068 267.391601562 188.468078068 267.391601562 157.464861203 279.40625 c 0,90,91
 140.158203125 286.124023438 140.158203125 286.124023438 125.694335938 295.220703125 c 0,92,93
 95.1767578125 314.4140625 95.1767578125 314.4140625 68.2705078125 354.235351562 c 0,94,95
 62.017578125 363.672851562 62.017578125 363.672851562 60.86328125 368.030273438 c 0,96,97
 56 386.381835938 56 386.381835938 56 409.833007812 c 128,-1,98
 56 433.283203125 56 433.283203125 59.9462890625 448.176757812 c 0,99,100
 67.43359375 476.4296875 67.43359375 476.4296875 91.3662109375 504.138671875 c 0,101,102
 102.696289062 517.256835938 102.696289062 517.256835938 119.764648438 534.362304688 c 128,-1,103
 136.83203125 551.467773438 136.83203125 551.467773438 163.139855491 563.22265625 c 0,104,105
 189.882444405 574.978515625 189.882444405 574.978515625 218.146764413 581.415039062 c 128,-1,106
 246.409988862 587.852539062 246.409988862 587.852539062 266.021585918 590.3515625 c 128,-1,107
 285.633182975 593 285.633182975 593 313.838342811 593 c 2,108,-1
 330.105199025 593 l 2,109,110
 338.38871868 593 338.38871868 593 347.183864268 591.907226562 c 0,111,112
 375.487624391 589.758789062 375.487624391 589.758789062 400.802700263 580.3359375 c 0,113,114
 422.010742188 572.196289062 422.010742188 572.196289062 445.431640625 566.12109375 c 1,115,116
 477 545.232421875 477 545.232421875 477 515.90234375 c 0,117,118
 477 495.729492188 477 495.729492188 461.104492188 480.610351562 c 0,119,120
 452.87109375 472.778320312 452.87109375 472.778320312 444.495117188 470.017578125 c 0,0,1
EndSplineSet
EndChar

StartChar: T
Encoding: 84 84 51
Width: 500
Flags: W
LayerCount: 2
Fore
SplineSet
402.477252862 592.869140625 m 0,0,1
 421.821172741 592.375 421.821172741 592.375 436.46875 592.375 c 2,2,-1
 484 593 l 1,3,-1
 486.443359375 593 l 1,4,5
 511.182617188 585.147460938 511.182617188 585.147460938 522.641601562 570.598632812 c 128,-1,6
 534.099609375 556.049804688 534.099609375 556.049804688 534.099609375 540.235351562 c 0,7,8
 534.099609375 519.827148438 534.099609375 519.827148438 518.862304688 504.591796875 c 0,9,10
 505.583984375 491.315429688 505.583984375 491.315429688 479.390625 486.326171875 c 1,11,-1
 344.310545688 488.044921875 l 1,12,-1
 345.381489349 37.861328125 l 1,13,-1
 345.365295644 37.2021484375 l 2,14,15
 343.96292083 9.4169921875 343.96292083 9.4169921875 325.240839206 -5.4189453125 c 0,16,17
 306.518757582 -21 306.518757582 -21 284.145535372 -21 c 128,-1,18
 261.771233581 -21 261.771233581 -21 243.819972294 -6.7919921875 c 0,19,20
 225.799617867 6.798828125 225.799617867 6.798828125 221.570901818 33.9384765625 c 1,21,-1
 220.493480675 488.856445312 l 1,22,-1
 76.1806640625 492.537109375 l 1,23,24
 49.955078125 497.296875 49.955078125 497.296875 36.43359375 512.633789062 c 128,-1,25
 22.9130859375 527.970703125 22.9130859375 527.970703125 22.9130859375 545.239257812 c 0,26,27
 22.9130859375 566.498046875 22.9130859375 566.498046875 39.6708984375 583.159179688 c 0,28,29
 55.603515625 599 55.603515625 599 85 599 c 2,30,-1
 128.152658993 599 l 2,31,32
 162.129210305 599 162.129210305 599 198.147247972 597.997070312 c 128,-1,33
 234.165285639 596.995117188 234.165285639 596.995117188 286.043437545 595.99609375 c 0,34,35
 338.141823833 594.994140625 338.141823833 594.994140625 365.457364674 594.055664062 c 128,-1,36
 392.772905514 593.1171875 392.772905514 593.1171875 402.477252862 592.869140625 c 0,0,1
EndSplineSet
EndChar

StartChar: U
Encoding: 85 85 52
Width: 500
Flags: W
LayerCount: 2
Fore
SplineSet
48.8115234375 336.438476562 m 128,-1,1
 47.599609375 385.73828125 47.599609375 385.73828125 47.599609375 422.200195312 c 2,2,-1
 49 583.5 l 1,3,-1
 49 583.993164062 l 1,4,5
 55.5439453125 590.940429688 55.5439453125 590.940429688 70.375 594.517578125 c 0,6,7
 85.205078125 608 85.205078125 608 105 608 c 0,8,9
 123.16796875 608 123.16796875 608 138.733398438 595.818359375 c 0,10,11
 155.268469705 584.395507812 155.268469705 584.395507812 162.901739419 560.141601562 c 1,12,-1
 162.901739419 558.302734375 l 2,13,14
 162.901739419 527.041015625 162.901739419 527.041015625 161.773859722 486.962890625 c 0,15,16
 158.777551025 380.487304688 158.777551025 380.487304688 160.824240036 328.586914062 c 0,17,18
 164.526986553 234.665039062 164.526986553 234.665039062 179.983890066 175.012695312 c 0,19,20
 186.492581195 149.89453125 186.492581195 149.89453125 201.138511697 129.8203125 c 1,21,22
 223.747823044 110.157226562 223.747823044 110.157226562 227.481379933 108.983398438 c 0,23,24
 233.888836981 107 233.888836981 107 255.297644183 107 c 0,25,26
 320.305328796 107 320.305328796 107 346.879274824 159.61328125 c 0,27,28
 368.409122773 202.23828125 368.409122773 202.23828125 377.711654438 258.83984375 c 0,29,30
 386.940461284 315 386.940461284 315 392.782327929 422.533203125 c 0,31,32
 395.023782507 463.78125 395.023782507 463.78125 395.586071799 500.518554688 c 0,33,34
 396.52248704 561.594726562 396.52248704 561.594726562 398.244566773 567.359375 c 128,-1,35
 399.966646505 573.124023438 399.966646505 573.124023438 403.072992245 579.359375 c 0,36,37
 409.67301412 592.607421875 409.67301412 592.607421875 419.916015625 601.100585938 c 0,38,39
 435.205078125 615 435.205078125 615 455 615 c 0,40,41
 473.16796875 615 473.16796875 615 488.733398438 602.818359375 c 0,42,43
 504.225585938 591.264648438 504.225585938 591.264648438 511.03125 566.622070312 c 1,44,45
 509.995117188 504.448242188 509.995117188 504.448242188 507.484375 437.939453125 c 128,-1,46
 504.973632812 371.430664062 504.973632812 371.430664062 500.057617188 324.21484375 c 0,47,48
 487.061523438 199.397460938 487.061523438 199.397460938 466.114257812 137.611328125 c 0,49,50
 447.6328125 83.0966796875 447.6328125 83.0966796875 412.60109985 49.716796875 c 0,51,52
 389.855342569 30.4814453125 389.855342569 30.4814453125 353.975563765 18.34375 c 0,53,54
 286.448030853 -4.5 286.448030853 -4.5 257.304719858 -4.5 c 0,55,56
 252.973661822 -4.5 252.973661822 -4.5 249.310528641 -3.9990234375 c 0,57,58
 193.209242336 -3.9033203125 193.209242336 -3.9033203125 172.873296309 6.2490234375 c 128,-1,59
 152.538450653 16.4091796875 152.538450653 16.4091796875 136.358398438 28.0029296875 c 0,60,61
 120.913085938 39.5966796875 120.913085938 39.5966796875 103.969726562 65.3076171875 c 128,-1,62
 87.1494140625 90.8310546875 87.1494140625 90.8310546875 80.509765625 121.12890625 c 0,63,64
 64.236328125 170.282226562 64.236328125 170.282226562 57.12890625 228.709960938 c 128,-1,0
 50.0224609375 287.137695312 50.0224609375 287.137695312 48.8115234375 336.438476562 c 128,-1,1
227.596918829 94.0390625 m 1,65,-1
 227.596918829 94.0390625 l 1,65,-1
EndSplineSet
EndChar

StartChar: V
Encoding: 86 86 53
Width: 500
Flags: W
LayerCount: 2
Fore
SplineSet
28 543.418945312 m 1,0,-1
 28 544.482421875 l 1,1,-1
 27 553.053710938 l 1,2,3
 27 578.965820312 27 578.965820312 42.8955078125 594.104492188 c 0,4,5
 58.791015625 610 58.791015625 610 80 610 c 0,6,7
 110.8359375 610 110.8359375 610 131.967861442 580.551757812 c 1,8,-1
 133.816575161 577.418945312 l 1,9,10
 163.351590888 508.791992188 163.351590888 508.791992188 171.933434775 452.560546875 c 0,11,12
 180.000844556 399.69921875 180.000844556 399.69921875 201.924401572 346.819335938 c 128,-1,13
 223.847958587 293.938476562 223.847958587 293.938476562 239.389283646 250.6953125 c 128,-1,14
 254.930608705 207.452148438 254.930608705 207.452148438 268.288567122 173.1015625 c 1,15,16
 271.459647245 183.176757812 271.459647245 183.176757812 294.45106116 245.946289062 c 1,17,18
 388.611996673 488.82421875 388.611996673 488.82421875 421.424228402 576.400390625 c 1,19,20
 443.618164062 611 443.618164062 611 475 611 c 0,21,22
 495.830078125 611 495.830078125 611 512.129882812 596.05859375 c 0,23,24
 529 581.333007812 529 581.333007812 529 557.913085938 c 0,25,26
 529 546.836914062 529 546.836914062 523.190429688 532.302734375 c 0,27,28
 477.060546875 390.071289062 477.060546875 390.071289062 431.6796875 285.599609375 c 0,29,30
 381.47056828 181.127929688 381.47056828 181.127929688 338.285178961 29.9521484375 c 1,31,32
 329.562542583 9.9794921875 329.562542583 9.9794921875 310.406099541 -2.205078125 c 0,33,34
 291.2496565 -15 291.2496565 -15 273.235798681 -15 c 128,-1,35
 255.220857842 -15 255.220857842 -15 239.640544093 -5.6337890625 c 0,36,37
 224.060230344 3.2861328125 224.060230344 3.2861328125 213.964325661 20.6240234375 c 1,38,39
 154.883464015 151.770507812 154.883464015 151.770507812 100.19140625 282.03125 c 0,40,41
 48.3984375 412.291015625 48.3984375 412.291015625 28 543.418945312 c 1,0,-1
EndSplineSet
EndChar

StartChar: W
Encoding: 87 87 54
Width: 500
Flags: W
LayerCount: 2
Fore
SplineSet
472.485351562 625.67578125 m 0,0,1
 481.41015625 629 481.41015625 629 491 629 c 0,2,3
 512.022460938 629 512.022460938 629 528.51171875 613.198242188 c 0,4,5
 545 598.146484375 545 598.146484375 545 569.19140625 c 2,6,-1
 545 564.234375 l 1,7,8
 532.879882812 492.077148438 532.879882812 492.077148438 527.883789062 444.96484375 c 128,-1,9
 522.887695312 397.852539062 522.887695312 397.852539062 507.876953125 280.635742188 c 0,10,11
 498.754882812 213.048828125 498.754882812 213.048828125 479.651367188 143.614257812 c 128,-1,12
 460.553710938 74.2001953125 460.553710938 74.2001953125 444.539071987 10.865234375 c 1,13,-1
 441.782444012 8.041015625 l 2,14,15
 419.286429018 -15 419.286429018 -15 398.711472664 -15 c 2,16,-1
 397.143305309 -15 l 1,17,18
 362.803443581 -9.044921875 362.803443581 -9.044921875 355.473172925 17.5634765625 c 0,19,20
 330.044620621 78.126953125 330.044620621 78.126953125 318.988075418 126.446289062 c 128,-1,21
 307.931530214 174.765625 307.931530214 174.765625 302.833377386 194.783203125 c 0,22,23
 296.286117789 220.487304688 296.286117789 220.487304688 293.514473163 233.256835938 c 1,24,25
 285.06438943 204.5 285.06438943 204.5 269.057712667 142.565429688 c 128,-1,26
 253.051035904 80.630859375 253.051035904 80.630859375 222.035217014 5.3271484375 c 1,27,28
 208.403316258 -9.4111328125 208.403316258 -9.4111328125 204.57085254 -12.2919921875 c 128,-1,29
 200.738388821 -15.1728515625 200.738388821 -15.1728515625 199.079048946 -16.14453125 c 128,-1,30
 197.273833038 -17.2431640625 197.273833038 -17.2431640625 196.350309035 -17.697265625 c 0,31,32
 191.788465152 -19.9404296875 191.788465152 -19.9404296875 185.633783703 -18.96484375 c 0,33,34
 149.520884603 -17.84765625 149.520884603 -17.84765625 129.832983243 16.3486328125 c 1,35,36
 94.509765625 103.995117188 94.509765625 103.995117188 78.279296875 189.044921875 c 0,37,38
 70.35546875 224.955078125 70.35546875 224.955078125 52.794921875 310.608398438 c 128,-1,39
 35.234375 396.262695312 35.234375 396.262695312 28.8232421875 433.673828125 c 0,40,41
 13.2001953125 524.845703125 13.2001953125 524.845703125 13.2001953125 552.990234375 c 0,42,43
 13.2001953125 561.837890625 13.2001953125 561.837890625 15.0634765625 567.46875 c 0,44,45
 16.033203125 587.904296875 16.033203125 587.904296875 30.3955078125 601.604492188 c 0,46,47
 45.791015625 617 45.791015625 617 68 617 c 0,48,49
 81.5439453125 617 81.5439453125 617 94.90625 610.319335938 c 128,-1,50
 108.267578125 603.637695312 108.267578125 603.637695312 119.166870951 588.305664062 c 2,51,-1
 121.416150665 585.234375 l 1,52,53
 128.958799663 519.3046875 128.958799663 519.3046875 153.558218339 377.451171875 c 0,54,55
 166.820065923 307.010742188 166.820065923 307.010742188 168.983536206 287.30859375 c 128,-1,56
 171.148079106 267.60546875 171.148079106 267.60546875 175.150016452 251.627929688 c 128,-1,57
 179.151953797 235.649414062 179.151953797 235.649414062 186.045668972 213.370117188 c 1,58,59
 188.734722021 221.184570312 188.734722021 221.184570312 191.469897639 228.39453125 c 0,60,61
 200.963638578 253.413085938 200.963638578 253.413085938 206.968153522 281.946289062 c 0,62,63
 217.806957294 333.456054688 217.806957294 333.456054688 227.530238462 357.930664062 c 128,-1,64
 237.253519629 382.40625 237.253519629 382.40625 246.325721737 398.109375 c 0,65,66
 252.188651121 411.76171875 252.188651121 411.76171875 287.309378673 430.033203125 c 2,67,-1
 292.150103207 432.551757812 l 1,68,69
 312.190895853 430.063476562 312.190895853 430.063476562 324.279299466 424.087890625 c 128,-1,70
 336.368775697 418.111328125 336.368775697 418.111328125 344.933629544 408.24609375 c 0,71,72
 362.661858019 393.125 362.661858019 393.125 374.865031747 327.518554688 c 0,73,74
 385.105314737 272.46484375 385.105314737 272.46484375 387.983148534 258.435546875 c 1,75,76
 390.854546624 273.075195312 390.854546624 273.075195312 395.785371061 292.1796875 c 0,77,78
 411.980828573 366.975585938 411.980828573 366.975585938 415.815437528 435.803710938 c 128,-1,79
 419.650046482 504.6328125 419.650046482 504.6328125 433.09316649 578.067382812 c 1,80,81
 443.201517479 614.879882812 443.201517479 614.879882812 472.485351562 625.67578125 c 0,0,1
EndSplineSet
EndChar

StartChar: X
Encoding: 88 88 55
Width: 500
Flags: W
LayerCount: 2
Fore
SplineSet
414.479194804 597.291992188 m 2,0,1
 433.368164062 613.25 433.368164062 613.25 453 613.25 c 0,2,3
 478.958984375 613.25 478.958984375 613.25 494.479492188 597.729492188 c 128,-1,4
 510 582.22265625 510 582.22265625 510 559.033203125 c 0,5,6
 510 547.250976562 510 547.250976562 503.78125 531.096679688 c 1,7,8
 472.251953125 466.059570312 472.251953125 466.059570312 435.955078125 404.10546875 c 0,9,10
 399.695681131 346.009765625 399.695681131 346.009765625 358.580706966 278.471679688 c 1,11,12
 393.95667501 223.661132812 393.95667501 223.661132812 443.733398438 153.064453125 c 0,13,14
 490.677734375 82.466796875 490.677734375 82.466796875 514.70703125 42.80078125 c 1,15,16
 519 29.93359375 519 29.93359375 519 18.5 c 0,17,18
 519 12.3232421875 519 12.3232421875 503.604492188 8.3955078125 c 0,19,20
 488.208984375 -7 488.208984375 -7 464.5 -7 c 128,-1,21
 440.791015625 -7 440.791015625 -7 419.144049551 14.4912109375 c 1,22,23
 370.830184997 80.2861328125 370.830184997 80.2861328125 344.77299917 122.811523438 c 1,24,-1
 286.188586532 211.924804688 l 1,25,26
 242.165863836 161.311523438 242.165863836 161.311523438 218.764006431 122.412109375 c 0,27,28
 189.902881208 74.4375 189.902881208 74.4375 128.752929688 10.359375 c 1,29,30
 109.3671875 -1.2724609375 109.3671875 -1.2724609375 94.3642578125 -4 c 1,31,-1
 93 -4 l 2,32,33
 69.791015625 -4 69.791015625 -4 54.8955078125 10.8955078125 c 0,34,35
 40 13.8681640625 40 13.8681640625 40 18.5 c 0,36,37
 40 36.9501953125 40 36.9501953125 51.2333984375 55.4052734375 c 0,38,39
 98.4951171875 131.895507812 98.4951171875 131.895507812 134.555664062 182.423828125 c 0,40,41
 174.448432699 232.952148438 174.448432699 232.952148438 208.591803845 282.302734375 c 1,42,43
 158.281525699 348.5546875 158.281525699 348.5546875 121.916992188 409.499023438 c 0,44,45
 86.7373046875 472.09375 86.7373046875 472.09375 60.185546875 517.423828125 c 0,46,47
 49.822265625 527.309570312 49.822265625 527.309570312 45.419921875 539.268554688 c 128,-1,48
 41 551.275390625 41 551.275390625 41 560.157226562 c 128,-1,49
 41 569.0390625 41 569.0390625 42.638671875 575.6640625 c 0,50,51
 45.9951171875 589.229492188 45.9951171875 589.229492188 55.650390625 599.353515625 c 0,52,53
 70.5859375 615 70.5859375 615 94 615 c 0,54,55
 115.278320312 614.375976562 115.278320312 614.375976562 135.930664062 599.624023438 c 1,56,57
 181.324968403 538.900390625 181.324968403 538.900390625 214.194218998 487.49609375 c 128,-1,58
 247.062376865 436.090820312 247.062376865 436.090820312 283.658921801 384.198242188 c 1,59,60
 317.510534639 438.2265625 317.510534639 438.2265625 334.312316459 467.2578125 c 0,61,62
 363.736196471 518.096679688 363.736196471 518.096679688 412.287182946 595.578125 c 1,63,-1
 414.479194804 597.291992188 l 2,0,1
EndSplineSet
EndChar

StartChar: Y
Encoding: 89 89 56
Width: 500
Flags: W
LayerCount: 2
Fore
SplineSet
338.108174734 50.0595703125 m 0,0,-1
 338.094243668 49.1875 l 2,1,2
 336.702208641 21.412109375 336.702208641 21.412109375 318.118165964 6.5810546875 c 0,3,4
 299.534123286 -9 299.534123286 -9 277.325860085 -9 c 128,-1,5
 255.116525263 -9 255.116525263 -9 237.297619621 5.2080078125 c 0,6,7
 219.48085722 9.6240234375 219.48085722 9.6240234375 215.208306295 18.5 c 1,8,-1
 215.208306295 18.5 l 2,9,10
 215.208306295 82.974609375 215.208306295 82.974609375 214.671424425 145.649414062 c 128,-1,11
 214.133470935 208.323242188 214.133470935 208.323242188 214.112038525 271.180664062 c 1,12,13
 155.579055301 343.099609375 155.579055301 343.099609375 102.319335938 412.706054688 c 0,14,15
 52.978515625 482.3125 52.978515625 482.3125 18 565.303710938 c 1,16,-1
 18 566.901367188 l 2,17,18
 17.4609375 568.248046875 17.4609375 568.248046875 15.23046875 572.784179688 c 128,-1,19
 13 577.319335938 13 577.319335938 13 583.5 c 0,20,21
 13 591.456054688 13 591.456054688 28.8955078125 596.104492188 c 0,22,23
 44.791015625 612 44.791015625 612 66 612 c 0,24,-1
 66.6611328125 611.985351562 l 2,25,26
 96.875 610.671875 96.875 610.671875 118.101271623 582.302734375 c 1,27,28
 155.718365966 525.841796875 155.718365966 525.841796875 193.415831846 470.596679688 c 128,-1,29
 231.113297727 415.352539062 231.113297727 415.352539062 274.15172017 362.391601562 c 1,30,-1
 353.229811582 463.194335938 l 2,31,32
 397.862805326 520.236328125 397.862805326 520.236328125 441.423106952 582.7421875 c 0,33,34
 456.1328125 607.0078125 456.1328125 607.0078125 479.844726562 613.948242188 c 0,35,36
 486.856445312 616 486.856445312 616 495.579101562 616 c 128,-1,37
 504.301757812 616 504.301757812 616 513.776367188 612.140625 c 128,-1,38
 523.250976562 608.28125 523.250976562 608.28125 531.356445312 600.8515625 c 0,39,40
 548 586.328125 548 586.328125 548 562.915039062 c 0,41,42
 548 551.689453125 548 551.689453125 541.435546875 535.442382812 c 1,43,44
 489.41015625 459.697265625 489.41015625 459.697265625 442.557953059 398.467773438 c 2,45,-1
 337.527356424 271.868164062 l 1,46,-1
 337.012978585 163.57421875 l 2,47,48
 337.012978585 107.056640625 337.012978585 107.056640625 338.108174734 50.0595703125 c 0,0,-1
EndSplineSet
EndChar

StartChar: Z
Encoding: 90 90 57
Width: 500
Flags: W
LayerCount: 2
Fore
SplineSet
233.192846034 317.5 m 1025,0,-1
232.634525661 280 m 1025,1,-1
293.491446345 505 m 2,2,3
 254.154940829 505 254.154940829 505 191.92620954 503.009765625 c 2,4,-1
 128.22265625 501.666992188 l 2,5,6
 64.822265625 501.666992188 64.822265625 501.666992188 49.14453125 535.876953125 c 0,7,8
 45 544.920898438 45 544.920898438 45 555 c 0,9,10
 45 575.845703125 45 575.845703125 60.5810546875 592.78125 c 128,-1,11
 76.1611328125 609.716796875 76.1611328125 609.716796875 106.193359375 611.022460938 c 0,12,13
 135.524414062 609 135.524414062 609 165.636080871 609 c 2,14,-1
 228.167962675 609 l 2,15,16
 312.553943308 609 312.553943308 609 352.194689809 611 c 128,-1,17
 391.835436309 613 391.835436309 613 471 613 c 2,18,-1
 473.311523438 613 l 1,19,20
 521 598.850585938 521 598.850585938 521 561.078125 c 0,21,22
 521 540.635742188 521 540.635742188 505.9765625 523.423828125 c 1,23,24
 466.493164062 433.305664062 466.493164062 433.305664062 409.257867175 364.615234375 c 0,25,26
 407.179432348 362.303710938 407.179432348 362.303710938 405.130440197 360 c 1,27,-1
 431.952148438 360 l 1,28,29
 457.694335938 353.612304688 457.694335938 353.612304688 469.818359375 339.002929688 c 128,-1,30
 482 324.326171875 482 324.326171875 482 307.194335938 c 0,31,32
 482 288.528320312 482 288.528320312 468.517578125 274.543945312 c 128,-1,33
 455.036132812 260.55859375 455.036132812 260.55859375 428.881835938 254.393554688 c 1,34,-1
 335.546492273 254.084960938 l 2,35,36
 334.562888802 252.05859375 334.562888802 252.05859375 333.588009088 250.028320312 c 2,37,-1
 327.292728786 236.907226562 l 1,38,-1
 315.875513341 240.813476562 l 1,39,40
 313.74255504 237.225585938 313.74255504 237.225585938 311.694653358 233.659179688 c 0,41,42
 286.429565999 206.505859375 286.429565999 206.505859375 258.955187476 171.506835938 c 128,-1,43
 231.481899422 136.508789062 231.481899422 136.508789062 207.297467316 112 c 1,44,-1
 212.534992224 112 l 2,45,46
 220.081041019 112 220.081041019 112 247.997059681 109.5 c 128,-1,47
 275.913078344 107 275.913078344 107 311.916018663 107 c 2,48,-1
 334.704649835 106.428710938 l 2,49,50
 386.677515674 106.428710938 386.677515674 106.428710938 463.190429688 124 c 1,51,-1
 465 124 l 1,52,-1
 472.002929688 124.295898438 l 2,53,54
 505.1875 124.295898438 505.1875 124.295898438 520.217773438 93.6552734375 c 0,55,56
 524.560546875 84.802734375 524.560546875 84.802734375 526 74.0068359375 c 2,57,-1
 526 73 l 2,58,59
 526 40.15234375 526 40.15234375 492.42578125 20.966796875 c 2,60,-1
 490.705078125 19.9833984375 l 1,61,62
 465.563476562 13.4248046875 465.563476562 13.4248046875 443.047851562 8.3076171875 c 0,63,64
 419.708926662 3.1904296875 419.708926662 3.1904296875 393.122190295 1.0927734375 c 0,65,66
 376.536149519 -1 376.536149519 -1 359.931570762 -1 c 2,67,-1
 328.66562986 -1 l 2,68,69
 270.361498226 -1 270.361498226 -1 253.053566655 1.5 c 128,-1,70
 235.745635085 4 235.745635085 4 215.570859253 4 c 0,71,72
 177.164524203 4 177.164524203 4 151.724961727 3.0302734375 c 0,73,74
 127.758789062 2.0615234375 127.758789062 2.0615234375 101.44140625 -3 c 1,75,-1
 96 -3 l 2,76,77
 64.296875 -3 64.296875 -3 49.994140625 23.3916015625 c 0,78,79
 42 35.37890625 42 35.37890625 42 49.8115234375 c 128,-1,80
 42 64.0712890625 42 64.0712890625 49.814453125 75.9619140625 c 0,81,82
 51.8876953125 82.171875 51.8876953125 82.171875 55.4228515625 85.90234375 c 0,83,84
 123.533203125 176.334960938 123.533203125 176.334960938 180.032458933 251.5859375 c 1,85,-1
 140.008789062 251.451171875 l 1,86,87
 111.415039062 255.1953125 111.415039062 255.1953125 97.2080078125 270.78515625 c 128,-1,88
 83 286.376953125 83 286.376953125 83 305.228515625 c 128,-1,89
 83 323.970703125 83 323.970703125 98.5380859375 341.485351562 c 128,-1,90
 114.076171875 359 114.076171875 359 144.419906687 359 c 2,91,-1
 189.643856921 359 l 1,92,-1
 260.837337796 359.671875 l 1,93,94
 318.773981216 435.330078125 318.773981216 435.330078125 367.960697536 505 c 1,95,-1
 293.491446345 505 l 2,2,3
EndSplineSet
EndChar

StartChar: bracketleft
Encoding: 91 91 58
Width: 500
Flags: W
LayerCount: 2
Fore
SplineSet
370 -101 m 1,0,-1
 222 -99 l 1,1,-1
 221.222861939 -99 l 1,2,3
 169.323056925 -93.6769430755 169.323056925 -93.6769430755 164.078830376 -42.5457342279 c 2,4,-1
 164 -41.7771380613 l 1,5,-1
 164 702.858094475 l 1,6,7
 168.410135756 720.498637498 168.410135756 720.498637498 174.053552234 728.781527988 c 128,-1,8
 179.696968711 737.064418478 179.696968711 737.064418478 184.74628919 741.39240746 c 0,9,10
 199.135251585 753.725803799 199.135251585 753.725803799 224.240067396 754.981044589 c 2,11,-1
 224.619175613 755 l 1,12,-1
 375.321880913 755 l 1,13,14
 401.103965945 746.858288937 401.103965945 746.858288937 412.815140867 731.243389041 c 128,-1,15
 424.526315789 715.628489145 424.526315789 715.628489145 424.526315789 698.814404432 c 0,16,17
 424.526315789 679.99970089 424.526315789 679.99970089 410.767645011 664.177229495 c 128,-1,18
 397.008974233 648.354758101 397.008974233 648.354758101 371.573873256 643 c 1,19,-1
 276 643 l 1,20,-1
 276 11.866680696 l 1,21,-1
 375.387453986 10.979292714 l 1,22,23
 401.103965945 2.8582889373 401.103965945 2.8582889373 412.815140867 -12.7566109589 c 128,-1,24
 424.526315789 -28.3715108552 424.526315789 -28.3715108552 424.526315789 -45.1855955679 c 0,25,26
 424.526315789 -64.0002991098 424.526315789 -64.0002991098 410.767645011 -79.8227705046 c 128,-1,27
 397.008974233 -95.6452418994 397.008974233 -95.6452418994 371.573873256 -101 c 1,28,-1
 370 -101 l 1,0,-1
EndSplineSet
EndChar

StartChar: backslash
Encoding: 92 92 59
Width: 500
Flags: W
LayerCount: 2
Fore
SplineSet
54 643 m 1,0,-1
 53 652 l 1,1,2
 53 679.20904375 53 679.20904375 68.895478125 695.104521875 c 128,-1,3
 84.79095625 711 84.79095625 711 106 711 c 0,4,5
 136.836147768 711 136.836147768 711 158.157974512 680.349874056 c 1,6,7
 233.715826878 508.077970662 233.715826878 508.077970662 309.19885092 340.615632555 c 2,8,-1
 461.000699397 1.44120542911 l 1,9,10
 465 -10.5566963792 465 -10.5566963792 465 -22.3389235682 c 0,11,12
 465 -47.4053130383 465 -47.4053130383 448.864485416 -62.8392835104 c 0,13,14
 433.014645449 -78 433.014645449 -78 412 -78 c 0,15,16
 396.79416136 -78 396.79416136 -78 381.557714841 -68.7264737793 c 128,-1,17
 366.321268322 -59.4529475587 366.321268322 -59.4529475587 357.39762591 -40.3308566753 c 2,18,-1
 270.787280669 153.415448982 l 1,19,-1
 54 639.786924344 l 1,20,-1
 54 643 l 1,0,-1
EndSplineSet
EndChar

StartChar: bracketright
Encoding: 93 93 60
Width: 500
Flags: W
LayerCount: 2
Fore
SplineSet
218.526367188 -101 m 5,0,-1
 366.526367188 -99 l 5,1,-1
 367.303710938 -99 l 5,2,3
 419.203125 -93.6767578125 419.203125 -93.6767578125 424.447265625 -42.5458984375 c 6,4,-1
 424.526367188 -41.77734375 l 5,5,-1
 424.526367188 702.858398438 l 5,6,7
 420.116210938 720.499023438 420.116210938 720.499023438 414.47265625 728.78125 c 132,-1,8
 408.829101562 737.064453125 408.829101562 737.064453125 403.780273438 741.392578125 c 4,9,10
 389.390625 753.725585938 389.390625 753.725585938 364.286132812 754.981445312 c 6,11,-1
 363.907226562 755 l 5,12,-1
 213.204101562 755 l 5,13,14
 187.421875 746.858398438 187.421875 746.858398438 175.7109375 731.243164062 c 132,-1,15
 164 715.62890625 164 715.62890625 164 698.814453125 c 4,16,17
 164 680 164 680 177.758789062 664.176757812 c 132,-1,18
 191.517578125 648.354492188 191.517578125 648.354492188 216.952148438 643 c 5,19,-1
 312.526367188 643 l 5,20,-1
 312.526367188 11.8662109375 l 5,21,-1
 213.138671875 10.9794921875 l 5,22,23
 187.421875 2.8583984375 187.421875 2.8583984375 175.7109375 -12.7568359375 c 132,-1,24
 164 -28.37109375 164 -28.37109375 164 -45.185546875 c 4,25,26
 164 -64 164 -64 177.758789062 -79.8232421875 c 132,-1,27
 191.517578125 -95.6455078125 191.517578125 -95.6455078125 216.952148438 -101 c 5,28,-1
 218.526367188 -101 l 5,0,-1
EndSplineSet
EndChar

StartChar: asciicircum
Encoding: 94 94 61
Width: 500
Flags: W
LayerCount: 2
Fore
SplineSet
442.626253729 453.495238559 m 1,0,1
 458 432.996910197 458 432.996910197 458 412.221689682 c 0,2,3
 458 386.440192105 458 386.440192105 450.206165585 375.250184184 c 0,4,5
 441.903708139 363.329920085 441.903708139 363.329920085 424.232009658 359.933133029 c 0,6,7
 414.174934121 358 414.174934121 358 400 358 c 0,8,9
 364.378226417 358 364.378226417 358 343.945512434 389.022874844 c 1,10,-1
 251.647250927 497.295835458 l 1,11,-1
 155.594892627 391.46036659 l 1,12,13
 134.152428373 363 134.152428373 363 101 363 c 0,14,15
 72.1523933572 363 72.1523933572 363 59.2312216205 372.331957365 c 0,16,17
 50.1978605411 378.856051478 50.1978605411 378.856051478 47.0989302705 389.458859098 c 128,-1,18
 44 400.061666717 44 400.061666717 44 415 c 0,19,20
 44 439.321882507 44 439.321882507 60.9758980942 460.215295546 c 1,21,22
 117.036660649 513.272802963 117.036660649 513.272802963 175.903426039 584.112469789 c 1,23,24
 217.79095625 626 217.79095625 626 252.678167573 626.000796605 c 128,-1,25
 287.565378896 626.001593209 287.565378896 626.001593209 328.024834101 582.170516738 c 1,26,-1
 442.626253729 453.495238559 l 1,0,1
EndSplineSet
EndChar

StartChar: underscore
Encoding: 95 95 62
Width: 500
Flags: W
LayerCount: 2
Fore
SplineSet
45.6271369947 -96.9378917852 m 2,0,1
 17.49289196 -94.3802331457 17.49289196 -94.3802331457 3.24644597999 -77.4201784076 c 128,-1,2
 -11 -60.4601236696 -11 -60.4601236696 -11 -40.2186228525 c 128,-1,3
 -11 -19.9771220355 -11 -19.9771220355 4.54076628422 -3.7606702607 c 128,-1,4
 20.0815325684 12.4557815141 20.0815325684 12.4557815141 48.6859500397 14.9431221638 c 0,5,-1
 50 15 l 1,6,-1
 460.951877256 15 l 1,7,8
 496.79478458 5.56765596747 496.79478458 5.56765596747 507.883624812 -24.0032872615 c 0,9,10
 511 -32.3138185538 511 -32.3138185538 511 -41.5317708286 c 0,11,12
 511 -60.7949226863 511 -60.7949226863 497.10064997 -76.0842077194 c 0,13,14
 484.035763609 -90.4555827166 484.035763609 -90.4555827166 457.858094475 -97 c 1,15,-1
 47 -97 l 1,16,-1
 45.6271369947 -96.9378917852 l 2,0,1
EndSplineSet
EndChar

StartChar: grave
Encoding: 96 96 63
Width: 500
Flags: W
LayerCount: 2
Fore
SplineSet
393.761904762 448.276643991 m 0,0,1
 393.761904762 434.89251467 393.761904762 434.89251467 385.025395143 419.603233751 c 0,2,3
 368.478963171 390.646240893 368.478963171 390.646240893 334.680075988 383.338373394 c 0,4,5
 327.422791347 381.769230769 327.422791347 381.769230769 320.11036181 381.769230769 c 0,6,7
 304.31078211 381.769230769 304.31078211 381.769230769 291.154555592 391.636400658 c 1,8,9
 272.931878005 409.859078245 272.931878005 409.859078245 232.108059334 443.215125208 c 128,-1,10
 191.284240662 476.571172171 191.284240662 476.571172171 145.80824036 516.879445167 c 1,11,12
 130.344827586 538.290324392 130.344827586 538.290324392 130.344827586 560.079667063 c 0,13,14
 130.344827586 586.440667299 130.344827586 586.440667299 145.588681525 604.733292026 c 0,15,16
 166.197051002 628.285714286 166.197051002 628.285714286 191.285714286 628.285714286 c 0,17,18
 211.058586406 628.285714286 211.058586406 628.285714286 229.359809689 614.718626301 c 0,19,20
 343.157241947 523.680680496 343.157241947 523.680680496 375.861890582 489.340799429 c 0,21,22
 376.663945521 488.427757146 l 1,23,24
 393.761904762 467.306748672 393.761904762 467.306748672 393.761904762 448.276643991 c 0,0,1
EndSplineSet
EndChar

